M48
; DRILL file {KiCad (5.1.4-0)} date 2019年09月26日 木曜日 23:55:03
; FORMAT={3:3/ absolute / metric / suppress leading zeros}
; #@! TF.CreationDate,2019-09-26T23:55:03+09:00
; #@! TF.GenerationSoftware,Kicad,Pcbnew,(5.1.4-0)
FMAT,2
METRIC,TZ
T1C0.300
T2C0.762
T3C1.000
%
G90
G05
T1
X38735Y51590
X38735Y21590
X40005Y50320
X40005Y20320
X43815Y55400
X43815Y25400
X45085Y54130
X45085Y24130
T2
X15590Y43195
X15590Y38195
X50590Y43195
X50590Y38195
X15590Y13195
X15590Y8195
X50590Y13195
X50590Y8195
T3
X3015Y42620
X3015Y40080
X3015Y37540
X3015Y35000
X3015Y32460
X5555Y42620
X5555Y40080
X5555Y37540
X5555Y32460
X3015Y12620
X5555Y35000
X3015Y10080
X3015Y7540
X3015Y5000
X3015Y2460
X5555Y12620
X5555Y10080
X5555Y7540
X5555Y5000
X5555Y2460
X13970Y56670
X16510Y56670
X19050Y56670
X21590Y56670
X24130Y56670
X26670Y56670
X13970Y26670
X16510Y26670
X19050Y26670
X21590Y26670
X24130Y26670
X26670Y26670
T0
M30
