G04 #@! TF.GenerationSoftware,KiCad,Pcbnew,(5.1.4-0)*
G04 #@! TF.CreationDate,2019-09-26T23:54:48+09:00*
G04 #@! TF.ProjectId,PiRoombaBoard_ALL,5069526f-6f6d-4626-9142-6f6172645f41,1*
G04 #@! TF.SameCoordinates,PX490d2c0PY808e280*
G04 #@! TF.FileFunction,Legend,Top*
G04 #@! TF.FilePolarity,Positive*
%FSLAX46Y46*%
G04 Gerber Fmt 4.6, Leading zero omitted, Abs format (unit mm)*
G04 Created by KiCad (PCBNEW (5.1.4-0)) date 2019-09-26 23:54:48*
%MOMM*%
%LPD*%
G04 APERTURE LIST*
%ADD10C,0.150000*%
%ADD11C,0.120000*%
G04 APERTURE END LIST*
D10*
X36807142Y58122620D02*
X36807142Y59122620D01*
X37188095Y59122620D01*
X37283333Y59075000D01*
X37330952Y59027381D01*
X37378571Y58932143D01*
X37378571Y58789286D01*
X37330952Y58694048D01*
X37283333Y58646429D01*
X37188095Y58598810D01*
X36807142Y58598810D01*
X37807142Y58122620D02*
X37807142Y58789286D01*
X37807142Y59122620D02*
X37759523Y59075000D01*
X37807142Y59027381D01*
X37854761Y59075000D01*
X37807142Y59122620D01*
X37807142Y59027381D01*
X38854761Y58122620D02*
X38521428Y58598810D01*
X38283333Y58122620D02*
X38283333Y59122620D01*
X38664285Y59122620D01*
X38759523Y59075000D01*
X38807142Y59027381D01*
X38854761Y58932143D01*
X38854761Y58789286D01*
X38807142Y58694048D01*
X38759523Y58646429D01*
X38664285Y58598810D01*
X38283333Y58598810D01*
X39426190Y58122620D02*
X39330952Y58170239D01*
X39283333Y58217858D01*
X39235714Y58313096D01*
X39235714Y58598810D01*
X39283333Y58694048D01*
X39330952Y58741667D01*
X39426190Y58789286D01*
X39569047Y58789286D01*
X39664285Y58741667D01*
X39711904Y58694048D01*
X39759523Y58598810D01*
X39759523Y58313096D01*
X39711904Y58217858D01*
X39664285Y58170239D01*
X39569047Y58122620D01*
X39426190Y58122620D01*
X40330952Y58122620D02*
X40235714Y58170239D01*
X40188095Y58217858D01*
X40140476Y58313096D01*
X40140476Y58598810D01*
X40188095Y58694048D01*
X40235714Y58741667D01*
X40330952Y58789286D01*
X40473809Y58789286D01*
X40569047Y58741667D01*
X40616666Y58694048D01*
X40664285Y58598810D01*
X40664285Y58313096D01*
X40616666Y58217858D01*
X40569047Y58170239D01*
X40473809Y58122620D01*
X40330952Y58122620D01*
X41092857Y58122620D02*
X41092857Y58789286D01*
X41092857Y58694048D02*
X41140476Y58741667D01*
X41235714Y58789286D01*
X41378571Y58789286D01*
X41473809Y58741667D01*
X41521428Y58646429D01*
X41521428Y58122620D01*
X41521428Y58646429D02*
X41569047Y58741667D01*
X41664285Y58789286D01*
X41807142Y58789286D01*
X41902380Y58741667D01*
X41950000Y58646429D01*
X41950000Y58122620D01*
X42426190Y58122620D02*
X42426190Y59122620D01*
X42426190Y58741667D02*
X42521428Y58789286D01*
X42711904Y58789286D01*
X42807142Y58741667D01*
X42854761Y58694048D01*
X42902380Y58598810D01*
X42902380Y58313096D01*
X42854761Y58217858D01*
X42807142Y58170239D01*
X42711904Y58122620D01*
X42521428Y58122620D01*
X42426190Y58170239D01*
X43759523Y58122620D02*
X43759523Y58646429D01*
X43711904Y58741667D01*
X43616666Y58789286D01*
X43426190Y58789286D01*
X43330952Y58741667D01*
X43759523Y58170239D02*
X43664285Y58122620D01*
X43426190Y58122620D01*
X43330952Y58170239D01*
X43283333Y58265477D01*
X43283333Y58360715D01*
X43330952Y58455953D01*
X43426190Y58503572D01*
X43664285Y58503572D01*
X43759523Y58551191D01*
X44569047Y58646429D02*
X44711904Y58598810D01*
X44759523Y58551191D01*
X44807142Y58455953D01*
X44807142Y58313096D01*
X44759523Y58217858D01*
X44711904Y58170239D01*
X44616666Y58122620D01*
X44235714Y58122620D01*
X44235714Y59122620D01*
X44569047Y59122620D01*
X44664285Y59075000D01*
X44711904Y59027381D01*
X44759523Y58932143D01*
X44759523Y58836905D01*
X44711904Y58741667D01*
X44664285Y58694048D01*
X44569047Y58646429D01*
X44235714Y58646429D01*
X45378571Y58122620D02*
X45283333Y58170239D01*
X45235714Y58217858D01*
X45188095Y58313096D01*
X45188095Y58598810D01*
X45235714Y58694048D01*
X45283333Y58741667D01*
X45378571Y58789286D01*
X45521428Y58789286D01*
X45616666Y58741667D01*
X45664285Y58694048D01*
X45711904Y58598810D01*
X45711904Y58313096D01*
X45664285Y58217858D01*
X45616666Y58170239D01*
X45521428Y58122620D01*
X45378571Y58122620D01*
X46569047Y58122620D02*
X46569047Y58646429D01*
X46521428Y58741667D01*
X46426190Y58789286D01*
X46235714Y58789286D01*
X46140476Y58741667D01*
X46569047Y58170239D02*
X46473809Y58122620D01*
X46235714Y58122620D01*
X46140476Y58170239D01*
X46092857Y58265477D01*
X46092857Y58360715D01*
X46140476Y58455953D01*
X46235714Y58503572D01*
X46473809Y58503572D01*
X46569047Y58551191D01*
X47045238Y58122620D02*
X47045238Y58789286D01*
X47045238Y58598810D02*
X47092857Y58694048D01*
X47140476Y58741667D01*
X47235714Y58789286D01*
X47330952Y58789286D01*
X48092857Y58122620D02*
X48092857Y59122620D01*
X48092857Y58170239D02*
X47997619Y58122620D01*
X47807142Y58122620D01*
X47711904Y58170239D01*
X47664285Y58217858D01*
X47616666Y58313096D01*
X47616666Y58598810D01*
X47664285Y58694048D01*
X47711904Y58741667D01*
X47807142Y58789286D01*
X47997619Y58789286D01*
X48092857Y58741667D01*
X49188095Y59122620D02*
X49521428Y58122620D01*
X49854761Y59122620D01*
X50711904Y58122620D02*
X50140476Y58122620D01*
X50426190Y58122620D02*
X50426190Y59122620D01*
X50330952Y58979762D01*
X50235714Y58884524D01*
X50140476Y58836905D01*
X51140476Y58217858D02*
X51188095Y58170239D01*
X51140476Y58122620D01*
X51092857Y58170239D01*
X51140476Y58217858D01*
X51140476Y58122620D01*
X51807142Y59122620D02*
X51902380Y59122620D01*
X51997619Y59075000D01*
X52045238Y59027381D01*
X52092857Y58932143D01*
X52140476Y58741667D01*
X52140476Y58503572D01*
X52092857Y58313096D01*
X52045238Y58217858D01*
X51997619Y58170239D01*
X51902380Y58122620D01*
X51807142Y58122620D01*
X51711904Y58170239D01*
X51664285Y58217858D01*
X51616666Y58313096D01*
X51569047Y58503572D01*
X51569047Y58741667D01*
X51616666Y58932143D01*
X51664285Y59027381D01*
X51711904Y59075000D01*
X51807142Y59122620D01*
X36807142Y28122620D02*
X36807142Y29122620D01*
X37188095Y29122620D01*
X37283333Y29075000D01*
X37330952Y29027381D01*
X37378571Y28932143D01*
X37378571Y28789286D01*
X37330952Y28694048D01*
X37283333Y28646429D01*
X37188095Y28598810D01*
X36807142Y28598810D01*
X37807142Y28122620D02*
X37807142Y28789286D01*
X37807142Y29122620D02*
X37759523Y29075000D01*
X37807142Y29027381D01*
X37854761Y29075000D01*
X37807142Y29122620D01*
X37807142Y29027381D01*
X38854761Y28122620D02*
X38521428Y28598810D01*
X38283333Y28122620D02*
X38283333Y29122620D01*
X38664285Y29122620D01*
X38759523Y29075000D01*
X38807142Y29027381D01*
X38854761Y28932143D01*
X38854761Y28789286D01*
X38807142Y28694048D01*
X38759523Y28646429D01*
X38664285Y28598810D01*
X38283333Y28598810D01*
X39426190Y28122620D02*
X39330952Y28170239D01*
X39283333Y28217858D01*
X39235714Y28313096D01*
X39235714Y28598810D01*
X39283333Y28694048D01*
X39330952Y28741667D01*
X39426190Y28789286D01*
X39569047Y28789286D01*
X39664285Y28741667D01*
X39711904Y28694048D01*
X39759523Y28598810D01*
X39759523Y28313096D01*
X39711904Y28217858D01*
X39664285Y28170239D01*
X39569047Y28122620D01*
X39426190Y28122620D01*
X40330952Y28122620D02*
X40235714Y28170239D01*
X40188095Y28217858D01*
X40140476Y28313096D01*
X40140476Y28598810D01*
X40188095Y28694048D01*
X40235714Y28741667D01*
X40330952Y28789286D01*
X40473809Y28789286D01*
X40569047Y28741667D01*
X40616666Y28694048D01*
X40664285Y28598810D01*
X40664285Y28313096D01*
X40616666Y28217858D01*
X40569047Y28170239D01*
X40473809Y28122620D01*
X40330952Y28122620D01*
X41092857Y28122620D02*
X41092857Y28789286D01*
X41092857Y28694048D02*
X41140476Y28741667D01*
X41235714Y28789286D01*
X41378571Y28789286D01*
X41473809Y28741667D01*
X41521428Y28646429D01*
X41521428Y28122620D01*
X41521428Y28646429D02*
X41569047Y28741667D01*
X41664285Y28789286D01*
X41807142Y28789286D01*
X41902380Y28741667D01*
X41950000Y28646429D01*
X41950000Y28122620D01*
X42426190Y28122620D02*
X42426190Y29122620D01*
X42426190Y28741667D02*
X42521428Y28789286D01*
X42711904Y28789286D01*
X42807142Y28741667D01*
X42854761Y28694048D01*
X42902380Y28598810D01*
X42902380Y28313096D01*
X42854761Y28217858D01*
X42807142Y28170239D01*
X42711904Y28122620D01*
X42521428Y28122620D01*
X42426190Y28170239D01*
X43759523Y28122620D02*
X43759523Y28646429D01*
X43711904Y28741667D01*
X43616666Y28789286D01*
X43426190Y28789286D01*
X43330952Y28741667D01*
X43759523Y28170239D02*
X43664285Y28122620D01*
X43426190Y28122620D01*
X43330952Y28170239D01*
X43283333Y28265477D01*
X43283333Y28360715D01*
X43330952Y28455953D01*
X43426190Y28503572D01*
X43664285Y28503572D01*
X43759523Y28551191D01*
X44569047Y28646429D02*
X44711904Y28598810D01*
X44759523Y28551191D01*
X44807142Y28455953D01*
X44807142Y28313096D01*
X44759523Y28217858D01*
X44711904Y28170239D01*
X44616666Y28122620D01*
X44235714Y28122620D01*
X44235714Y29122620D01*
X44569047Y29122620D01*
X44664285Y29075000D01*
X44711904Y29027381D01*
X44759523Y28932143D01*
X44759523Y28836905D01*
X44711904Y28741667D01*
X44664285Y28694048D01*
X44569047Y28646429D01*
X44235714Y28646429D01*
X45378571Y28122620D02*
X45283333Y28170239D01*
X45235714Y28217858D01*
X45188095Y28313096D01*
X45188095Y28598810D01*
X45235714Y28694048D01*
X45283333Y28741667D01*
X45378571Y28789286D01*
X45521428Y28789286D01*
X45616666Y28741667D01*
X45664285Y28694048D01*
X45711904Y28598810D01*
X45711904Y28313096D01*
X45664285Y28217858D01*
X45616666Y28170239D01*
X45521428Y28122620D01*
X45378571Y28122620D01*
X46569047Y28122620D02*
X46569047Y28646429D01*
X46521428Y28741667D01*
X46426190Y28789286D01*
X46235714Y28789286D01*
X46140476Y28741667D01*
X46569047Y28170239D02*
X46473809Y28122620D01*
X46235714Y28122620D01*
X46140476Y28170239D01*
X46092857Y28265477D01*
X46092857Y28360715D01*
X46140476Y28455953D01*
X46235714Y28503572D01*
X46473809Y28503572D01*
X46569047Y28551191D01*
X47045238Y28122620D02*
X47045238Y28789286D01*
X47045238Y28598810D02*
X47092857Y28694048D01*
X47140476Y28741667D01*
X47235714Y28789286D01*
X47330952Y28789286D01*
X48092857Y28122620D02*
X48092857Y29122620D01*
X48092857Y28170239D02*
X47997619Y28122620D01*
X47807142Y28122620D01*
X47711904Y28170239D01*
X47664285Y28217858D01*
X47616666Y28313096D01*
X47616666Y28598810D01*
X47664285Y28694048D01*
X47711904Y28741667D01*
X47807142Y28789286D01*
X47997619Y28789286D01*
X48092857Y28741667D01*
X49188095Y29122620D02*
X49521428Y28122620D01*
X49854761Y29122620D01*
X50711904Y28122620D02*
X50140476Y28122620D01*
X50426190Y28122620D02*
X50426190Y29122620D01*
X50330952Y28979762D01*
X50235714Y28884524D01*
X50140476Y28836905D01*
X51140476Y28217858D02*
X51188095Y28170239D01*
X51140476Y28122620D01*
X51092857Y28170239D01*
X51140476Y28217858D01*
X51140476Y28122620D01*
X51807142Y29122620D02*
X51902380Y29122620D01*
X51997619Y29075000D01*
X52045238Y29027381D01*
X52092857Y28932143D01*
X52140476Y28741667D01*
X52140476Y28503572D01*
X52092857Y28313096D01*
X52045238Y28217858D01*
X51997619Y28170239D01*
X51902380Y28122620D01*
X51807142Y28122620D01*
X51711904Y28170239D01*
X51664285Y28217858D01*
X51616666Y28313096D01*
X51569047Y28503572D01*
X51569047Y28741667D01*
X51616666Y28932143D01*
X51664285Y29027381D01*
X51711904Y29075000D01*
X51807142Y29122620D01*
D11*
X13090000Y30695000D02*
X53090000Y30695000D01*
X13090000Y50695000D02*
X13090000Y30695000D01*
X53090000Y50695000D02*
X13090000Y50695000D01*
X53090000Y30695000D02*
X53090000Y50695000D01*
X39050000Y56670000D02*
G75*
G03X39050000Y56670000I-950000J0D01*
G01*
X42860000Y56670000D02*
G75*
G03X42860000Y56670000I-950000J0D01*
G01*
X47305000Y56670000D02*
G75*
G03X47305000Y56670000I-950000J0D01*
G01*
X51750000Y56670000D02*
G75*
G03X51750000Y56670000I-950000J0D01*
G01*
X41546267Y52735000D02*
X41203733Y52735000D01*
X41546267Y51715000D02*
X41203733Y51715000D01*
X36671267Y51715000D02*
X36328733Y51715000D01*
X36671267Y52735000D02*
X36328733Y52735000D01*
X26796267Y51715000D02*
X26453733Y51715000D01*
X26796267Y52735000D02*
X26453733Y52735000D01*
X31671267Y52735000D02*
X31328733Y52735000D01*
X31671267Y51715000D02*
X31328733Y51715000D01*
X6885000Y31130000D02*
X5555000Y31130000D01*
X6885000Y32460000D02*
X6885000Y31130000D01*
X4285000Y31130000D02*
X1685000Y31130000D01*
X4285000Y33730000D02*
X4285000Y31130000D01*
X6885000Y33730000D02*
X4285000Y33730000D01*
X1685000Y31130000D02*
X1685000Y43950000D01*
X6885000Y33730000D02*
X6885000Y43950000D01*
X6885000Y43950000D02*
X1685000Y43950000D01*
X47772500Y52960000D02*
X45487500Y52960000D01*
X47772500Y51490000D02*
X47772500Y52960000D01*
X45487500Y51490000D02*
X47772500Y51490000D01*
X28000000Y58000000D02*
X28000000Y56670000D01*
X26670000Y58000000D02*
X28000000Y58000000D01*
X25400000Y58000000D02*
X25400000Y55340000D01*
X25400000Y55340000D02*
X12640000Y55340000D01*
X25400000Y58000000D02*
X12640000Y58000000D01*
X12640000Y58000000D02*
X12640000Y55340000D01*
X45487500Y21490000D02*
X47772500Y21490000D01*
X47772500Y21490000D02*
X47772500Y22960000D01*
X47772500Y22960000D02*
X45487500Y22960000D01*
X6885000Y13950000D02*
X1685000Y13950000D01*
X6885000Y3730000D02*
X6885000Y13950000D01*
X1685000Y1130000D02*
X1685000Y13950000D01*
X6885000Y3730000D02*
X4285000Y3730000D01*
X4285000Y3730000D02*
X4285000Y1130000D01*
X4285000Y1130000D02*
X1685000Y1130000D01*
X6885000Y2460000D02*
X6885000Y1130000D01*
X6885000Y1130000D02*
X5555000Y1130000D01*
X53090000Y695000D02*
X53090000Y20695000D01*
X53090000Y20695000D02*
X13090000Y20695000D01*
X13090000Y20695000D02*
X13090000Y695000D01*
X13090000Y695000D02*
X53090000Y695000D01*
X12640000Y28000000D02*
X12640000Y25340000D01*
X25400000Y28000000D02*
X12640000Y28000000D01*
X25400000Y25340000D02*
X12640000Y25340000D01*
X25400000Y28000000D02*
X25400000Y25340000D01*
X26670000Y28000000D02*
X28000000Y28000000D01*
X28000000Y28000000D02*
X28000000Y26670000D01*
X36671267Y22735000D02*
X36328733Y22735000D01*
X36671267Y21715000D02*
X36328733Y21715000D01*
X26796267Y22735000D02*
X26453733Y22735000D01*
X26796267Y21715000D02*
X26453733Y21715000D01*
X31671267Y21715000D02*
X31328733Y21715000D01*
X31671267Y22735000D02*
X31328733Y22735000D01*
X41546267Y21715000D02*
X41203733Y21715000D01*
X41546267Y22735000D02*
X41203733Y22735000D01*
X51750000Y26670000D02*
G75*
G03X51750000Y26670000I-950000J0D01*
G01*
X47305000Y26670000D02*
G75*
G03X47305000Y26670000I-950000J0D01*
G01*
X42860000Y26670000D02*
G75*
G03X42860000Y26670000I-950000J0D01*
G01*
X39050000Y26670000D02*
G75*
G03X39050000Y26670000I-950000J0D01*
G01*
D10*
X52756666Y41742620D02*
X52756666Y41028334D01*
X52709047Y40885477D01*
X52613809Y40790239D01*
X52470952Y40742620D01*
X52375714Y40742620D01*
X53185238Y41647381D02*
X53232857Y41695000D01*
X53328095Y41742620D01*
X53566190Y41742620D01*
X53661428Y41695000D01*
X53709047Y41647381D01*
X53756666Y41552143D01*
X53756666Y41456905D01*
X53709047Y41314048D01*
X53137619Y40742620D01*
X53756666Y40742620D01*
X36838095Y55569620D02*
X37409523Y55569620D01*
X37123809Y54569620D02*
X37123809Y55569620D01*
X37742857Y54569620D02*
X37742857Y55569620D01*
X38123809Y55569620D01*
X38219047Y55522000D01*
X38266666Y55474381D01*
X38314285Y55379143D01*
X38314285Y55236286D01*
X38266666Y55141048D01*
X38219047Y55093429D01*
X38123809Y55045810D01*
X37742857Y55045810D01*
X39171428Y55236286D02*
X39171428Y54569620D01*
X38933333Y55617239D02*
X38695238Y54902953D01*
X39314285Y54902953D01*
X40648095Y55569620D02*
X41219523Y55569620D01*
X40933809Y54569620D02*
X40933809Y55569620D01*
X41552857Y54569620D02*
X41552857Y55569620D01*
X41933809Y55569620D01*
X42029047Y55522000D01*
X42076666Y55474381D01*
X42124285Y55379143D01*
X42124285Y55236286D01*
X42076666Y55141048D01*
X42029047Y55093429D01*
X41933809Y55045810D01*
X41552857Y55045810D01*
X42457619Y55569620D02*
X43076666Y55569620D01*
X42743333Y55188667D01*
X42886190Y55188667D01*
X42981428Y55141048D01*
X43029047Y55093429D01*
X43076666Y54998191D01*
X43076666Y54760096D01*
X43029047Y54664858D01*
X42981428Y54617239D01*
X42886190Y54569620D01*
X42600476Y54569620D01*
X42505238Y54617239D01*
X42457619Y54664858D01*
X45093095Y55569620D02*
X45664523Y55569620D01*
X45378809Y54569620D02*
X45378809Y55569620D01*
X45997857Y54569620D02*
X45997857Y55569620D01*
X46378809Y55569620D01*
X46474047Y55522000D01*
X46521666Y55474381D01*
X46569285Y55379143D01*
X46569285Y55236286D01*
X46521666Y55141048D01*
X46474047Y55093429D01*
X46378809Y55045810D01*
X45997857Y55045810D01*
X46950238Y55474381D02*
X46997857Y55522000D01*
X47093095Y55569620D01*
X47331190Y55569620D01*
X47426428Y55522000D01*
X47474047Y55474381D01*
X47521666Y55379143D01*
X47521666Y55283905D01*
X47474047Y55141048D01*
X46902619Y54569620D01*
X47521666Y54569620D01*
X49538095Y55569620D02*
X50109523Y55569620D01*
X49823809Y54569620D02*
X49823809Y55569620D01*
X50442857Y54569620D02*
X50442857Y55569620D01*
X50823809Y55569620D01*
X50919047Y55522000D01*
X50966666Y55474381D01*
X51014285Y55379143D01*
X51014285Y55236286D01*
X50966666Y55141048D01*
X50919047Y55093429D01*
X50823809Y55045810D01*
X50442857Y55045810D01*
X51966666Y54569620D02*
X51395238Y54569620D01*
X51680952Y54569620D02*
X51680952Y55569620D01*
X51585714Y55426762D01*
X51490476Y55331524D01*
X51395238Y55283905D01*
X41208333Y50342620D02*
X40875000Y50818810D01*
X40636904Y50342620D02*
X40636904Y51342620D01*
X41017857Y51342620D01*
X41113095Y51295000D01*
X41160714Y51247381D01*
X41208333Y51152143D01*
X41208333Y51009286D01*
X41160714Y50914048D01*
X41113095Y50866429D01*
X41017857Y50818810D01*
X40636904Y50818810D01*
X42065476Y51009286D02*
X42065476Y50342620D01*
X41827380Y51390239D02*
X41589285Y50675953D01*
X42208333Y50675953D01*
X36333333Y50342620D02*
X36000000Y50818810D01*
X35761904Y50342620D02*
X35761904Y51342620D01*
X36142857Y51342620D01*
X36238095Y51295000D01*
X36285714Y51247381D01*
X36333333Y51152143D01*
X36333333Y51009286D01*
X36285714Y50914048D01*
X36238095Y50866429D01*
X36142857Y50818810D01*
X35761904Y50818810D01*
X37285714Y50342620D02*
X36714285Y50342620D01*
X37000000Y50342620D02*
X37000000Y51342620D01*
X36904761Y51199762D01*
X36809523Y51104524D01*
X36714285Y51056905D01*
X26458333Y50342620D02*
X26125000Y50818810D01*
X25886904Y50342620D02*
X25886904Y51342620D01*
X26267857Y51342620D01*
X26363095Y51295000D01*
X26410714Y51247381D01*
X26458333Y51152143D01*
X26458333Y51009286D01*
X26410714Y50914048D01*
X26363095Y50866429D01*
X26267857Y50818810D01*
X25886904Y50818810D01*
X26839285Y51247381D02*
X26886904Y51295000D01*
X26982142Y51342620D01*
X27220238Y51342620D01*
X27315476Y51295000D01*
X27363095Y51247381D01*
X27410714Y51152143D01*
X27410714Y51056905D01*
X27363095Y50914048D01*
X26791666Y50342620D01*
X27410714Y50342620D01*
X31333333Y50342620D02*
X31000000Y50818810D01*
X30761904Y50342620D02*
X30761904Y51342620D01*
X31142857Y51342620D01*
X31238095Y51295000D01*
X31285714Y51247381D01*
X31333333Y51152143D01*
X31333333Y51009286D01*
X31285714Y50914048D01*
X31238095Y50866429D01*
X31142857Y50818810D01*
X30761904Y50818810D01*
X31666666Y51342620D02*
X32285714Y51342620D01*
X31952380Y50961667D01*
X32095238Y50961667D01*
X32190476Y50914048D01*
X32238095Y50866429D01*
X32285714Y50771191D01*
X32285714Y50533096D01*
X32238095Y50437858D01*
X32190476Y50390239D01*
X32095238Y50342620D01*
X31809523Y50342620D01*
X31714285Y50390239D01*
X31666666Y50437858D01*
X3951666Y30677620D02*
X3951666Y29963334D01*
X3904047Y29820477D01*
X3808809Y29725239D01*
X3665952Y29677620D01*
X3570714Y29677620D01*
X4951666Y29677620D02*
X4380238Y29677620D01*
X4665952Y29677620D02*
X4665952Y30677620D01*
X4570714Y30534762D01*
X4475476Y30439524D01*
X4380238Y30391905D01*
X45549404Y50342620D02*
X45549404Y51342620D01*
X45787500Y51342620D01*
X45930357Y51295000D01*
X46025595Y51199762D01*
X46073214Y51104524D01*
X46120833Y50914048D01*
X46120833Y50771191D01*
X46073214Y50580715D01*
X46025595Y50485477D01*
X45930357Y50390239D01*
X45787500Y50342620D01*
X45549404Y50342620D01*
X47073214Y50342620D02*
X46501785Y50342620D01*
X46787500Y50342620D02*
X46787500Y51342620D01*
X46692261Y51199762D01*
X46597023Y51104524D01*
X46501785Y51056905D01*
X28452380Y56336667D02*
X29166666Y56336667D01*
X29309523Y56289048D01*
X29404761Y56193810D01*
X29452380Y56050953D01*
X29452380Y55955715D01*
X28452380Y56717620D02*
X28452380Y57336667D01*
X28833333Y57003334D01*
X28833333Y57146191D01*
X28880952Y57241429D01*
X28928571Y57289048D01*
X29023809Y57336667D01*
X29261904Y57336667D01*
X29357142Y57289048D01*
X29404761Y57241429D01*
X29452380Y57146191D01*
X29452380Y56860477D01*
X29404761Y56765239D01*
X29357142Y56717620D01*
X45549404Y20342620D02*
X45549404Y21342620D01*
X45787500Y21342620D01*
X45930357Y21295000D01*
X46025595Y21199762D01*
X46073214Y21104524D01*
X46120833Y20914048D01*
X46120833Y20771191D01*
X46073214Y20580715D01*
X46025595Y20485477D01*
X45930357Y20390239D01*
X45787500Y20342620D01*
X45549404Y20342620D01*
X47073214Y20342620D02*
X46501785Y20342620D01*
X46787500Y20342620D02*
X46787500Y21342620D01*
X46692261Y21199762D01*
X46597023Y21104524D01*
X46501785Y21056905D01*
X3951666Y677620D02*
X3951666Y-36666D01*
X3904047Y-179523D01*
X3808809Y-274761D01*
X3665952Y-322380D01*
X3570714Y-322380D01*
X4951666Y-322380D02*
X4380238Y-322380D01*
X4665952Y-322380D02*
X4665952Y677620D01*
X4570714Y534762D01*
X4475476Y439524D01*
X4380238Y391905D01*
X52756666Y11742620D02*
X52756666Y11028334D01*
X52709047Y10885477D01*
X52613809Y10790239D01*
X52470952Y10742620D01*
X52375714Y10742620D01*
X53185238Y11647381D02*
X53232857Y11695000D01*
X53328095Y11742620D01*
X53566190Y11742620D01*
X53661428Y11695000D01*
X53709047Y11647381D01*
X53756666Y11552143D01*
X53756666Y11456905D01*
X53709047Y11314048D01*
X53137619Y10742620D01*
X53756666Y10742620D01*
X28452380Y26336667D02*
X29166666Y26336667D01*
X29309523Y26289048D01*
X29404761Y26193810D01*
X29452380Y26050953D01*
X29452380Y25955715D01*
X28452380Y26717620D02*
X28452380Y27336667D01*
X28833333Y27003334D01*
X28833333Y27146191D01*
X28880952Y27241429D01*
X28928571Y27289048D01*
X29023809Y27336667D01*
X29261904Y27336667D01*
X29357142Y27289048D01*
X29404761Y27241429D01*
X29452380Y27146191D01*
X29452380Y26860477D01*
X29404761Y26765239D01*
X29357142Y26717620D01*
X36333333Y20342620D02*
X36000000Y20818810D01*
X35761904Y20342620D02*
X35761904Y21342620D01*
X36142857Y21342620D01*
X36238095Y21295000D01*
X36285714Y21247381D01*
X36333333Y21152143D01*
X36333333Y21009286D01*
X36285714Y20914048D01*
X36238095Y20866429D01*
X36142857Y20818810D01*
X35761904Y20818810D01*
X37285714Y20342620D02*
X36714285Y20342620D01*
X37000000Y20342620D02*
X37000000Y21342620D01*
X36904761Y21199762D01*
X36809523Y21104524D01*
X36714285Y21056905D01*
X26458333Y20342620D02*
X26125000Y20818810D01*
X25886904Y20342620D02*
X25886904Y21342620D01*
X26267857Y21342620D01*
X26363095Y21295000D01*
X26410714Y21247381D01*
X26458333Y21152143D01*
X26458333Y21009286D01*
X26410714Y20914048D01*
X26363095Y20866429D01*
X26267857Y20818810D01*
X25886904Y20818810D01*
X26839285Y21247381D02*
X26886904Y21295000D01*
X26982142Y21342620D01*
X27220238Y21342620D01*
X27315476Y21295000D01*
X27363095Y21247381D01*
X27410714Y21152143D01*
X27410714Y21056905D01*
X27363095Y20914048D01*
X26791666Y20342620D01*
X27410714Y20342620D01*
X31333333Y20342620D02*
X31000000Y20818810D01*
X30761904Y20342620D02*
X30761904Y21342620D01*
X31142857Y21342620D01*
X31238095Y21295000D01*
X31285714Y21247381D01*
X31333333Y21152143D01*
X31333333Y21009286D01*
X31285714Y20914048D01*
X31238095Y20866429D01*
X31142857Y20818810D01*
X30761904Y20818810D01*
X31666666Y21342620D02*
X32285714Y21342620D01*
X31952380Y20961667D01*
X32095238Y20961667D01*
X32190476Y20914048D01*
X32238095Y20866429D01*
X32285714Y20771191D01*
X32285714Y20533096D01*
X32238095Y20437858D01*
X32190476Y20390239D01*
X32095238Y20342620D01*
X31809523Y20342620D01*
X31714285Y20390239D01*
X31666666Y20437858D01*
X41208333Y20342620D02*
X40875000Y20818810D01*
X40636904Y20342620D02*
X40636904Y21342620D01*
X41017857Y21342620D01*
X41113095Y21295000D01*
X41160714Y21247381D01*
X41208333Y21152143D01*
X41208333Y21009286D01*
X41160714Y20914048D01*
X41113095Y20866429D01*
X41017857Y20818810D01*
X40636904Y20818810D01*
X42065476Y21009286D02*
X42065476Y20342620D01*
X41827380Y21390239D02*
X41589285Y20675953D01*
X42208333Y20675953D01*
X49538095Y25569620D02*
X50109523Y25569620D01*
X49823809Y24569620D02*
X49823809Y25569620D01*
X50442857Y24569620D02*
X50442857Y25569620D01*
X50823809Y25569620D01*
X50919047Y25522000D01*
X50966666Y25474381D01*
X51014285Y25379143D01*
X51014285Y25236286D01*
X50966666Y25141048D01*
X50919047Y25093429D01*
X50823809Y25045810D01*
X50442857Y25045810D01*
X51966666Y24569620D02*
X51395238Y24569620D01*
X51680952Y24569620D02*
X51680952Y25569620D01*
X51585714Y25426762D01*
X51490476Y25331524D01*
X51395238Y25283905D01*
X45093095Y25569620D02*
X45664523Y25569620D01*
X45378809Y24569620D02*
X45378809Y25569620D01*
X45997857Y24569620D02*
X45997857Y25569620D01*
X46378809Y25569620D01*
X46474047Y25522000D01*
X46521666Y25474381D01*
X46569285Y25379143D01*
X46569285Y25236286D01*
X46521666Y25141048D01*
X46474047Y25093429D01*
X46378809Y25045810D01*
X45997857Y25045810D01*
X46950238Y25474381D02*
X46997857Y25522000D01*
X47093095Y25569620D01*
X47331190Y25569620D01*
X47426428Y25522000D01*
X47474047Y25474381D01*
X47521666Y25379143D01*
X47521666Y25283905D01*
X47474047Y25141048D01*
X46902619Y24569620D01*
X47521666Y24569620D01*
X40648095Y25569620D02*
X41219523Y25569620D01*
X40933809Y24569620D02*
X40933809Y25569620D01*
X41552857Y24569620D02*
X41552857Y25569620D01*
X41933809Y25569620D01*
X42029047Y25522000D01*
X42076666Y25474381D01*
X42124285Y25379143D01*
X42124285Y25236286D01*
X42076666Y25141048D01*
X42029047Y25093429D01*
X41933809Y25045810D01*
X41552857Y25045810D01*
X42457619Y25569620D02*
X43076666Y25569620D01*
X42743333Y25188667D01*
X42886190Y25188667D01*
X42981428Y25141048D01*
X43029047Y25093429D01*
X43076666Y24998191D01*
X43076666Y24760096D01*
X43029047Y24664858D01*
X42981428Y24617239D01*
X42886190Y24569620D01*
X42600476Y24569620D01*
X42505238Y24617239D01*
X42457619Y24664858D01*
X36838095Y25569620D02*
X37409523Y25569620D01*
X37123809Y24569620D02*
X37123809Y25569620D01*
X37742857Y24569620D02*
X37742857Y25569620D01*
X38123809Y25569620D01*
X38219047Y25522000D01*
X38266666Y25474381D01*
X38314285Y25379143D01*
X38314285Y25236286D01*
X38266666Y25141048D01*
X38219047Y25093429D01*
X38123809Y25045810D01*
X37742857Y25045810D01*
X39171428Y25236286D02*
X39171428Y24569620D01*
X38933333Y25617239D02*
X38695238Y24902953D01*
X39314285Y24902953D01*
M02*
