G04 #@! TF.GenerationSoftware,KiCad,Pcbnew,(5.1.4-0)*
G04 #@! TF.CreationDate,2019-09-26T23:54:48+09:00*
G04 #@! TF.ProjectId,PiRoombaBoard_ALL,5069526f-6f6d-4626-9142-6f6172645f41,1*
G04 #@! TF.SameCoordinates,PX490d2c0PY808e280*
G04 #@! TF.FileFunction,Copper,L1,Top*
G04 #@! TF.FilePolarity,Positive*
%FSLAX46Y46*%
G04 Gerber Fmt 4.6, Leading zero omitted, Abs format (unit mm)*
G04 Created by KiCad (PCBNEW (5.1.4-0)) date 2019-09-26 23:54:48*
%MOMM*%
%LPD*%
G04 APERTURE LIST*
%ADD10C,1.524000*%
%ADD11C,1.500000*%
%ADD12C,0.100000*%
%ADD13C,0.950000*%
%ADD14O,1.700000X1.700000*%
%ADD15R,1.700000X1.700000*%
%ADD16C,0.875000*%
%ADD17C,0.600000*%
%ADD18C,0.200000*%
%ADD19C,1.000000*%
%ADD20C,0.254000*%
G04 APERTURE END LIST*
D10*
X15590000Y43195000D03*
X15590000Y38195000D03*
X50590000Y43195000D03*
X50590000Y38195000D03*
D11*
X38100000Y56670000D03*
X41910000Y56670000D03*
X46355000Y56670000D03*
X50800000Y56670000D03*
D12*
G36*
X40810779Y52698856D02*
G01*
X40833834Y52695437D01*
X40856443Y52689773D01*
X40878387Y52681921D01*
X40899457Y52671956D01*
X40919448Y52659974D01*
X40938168Y52646090D01*
X40955438Y52630438D01*
X40971090Y52613168D01*
X40984974Y52594448D01*
X40996956Y52574457D01*
X41006921Y52553387D01*
X41014773Y52531443D01*
X41020437Y52508834D01*
X41023856Y52485779D01*
X41025000Y52462500D01*
X41025000Y51987500D01*
X41023856Y51964221D01*
X41020437Y51941166D01*
X41014773Y51918557D01*
X41006921Y51896613D01*
X40996956Y51875543D01*
X40984974Y51855552D01*
X40971090Y51836832D01*
X40955438Y51819562D01*
X40938168Y51803910D01*
X40919448Y51790026D01*
X40899457Y51778044D01*
X40878387Y51768079D01*
X40856443Y51760227D01*
X40833834Y51754563D01*
X40810779Y51751144D01*
X40787500Y51750000D01*
X40212500Y51750000D01*
X40189221Y51751144D01*
X40166166Y51754563D01*
X40143557Y51760227D01*
X40121613Y51768079D01*
X40100543Y51778044D01*
X40080552Y51790026D01*
X40061832Y51803910D01*
X40044562Y51819562D01*
X40028910Y51836832D01*
X40015026Y51855552D01*
X40003044Y51875543D01*
X39993079Y51896613D01*
X39985227Y51918557D01*
X39979563Y51941166D01*
X39976144Y51964221D01*
X39975000Y51987500D01*
X39975000Y52462500D01*
X39976144Y52485779D01*
X39979563Y52508834D01*
X39985227Y52531443D01*
X39993079Y52553387D01*
X40003044Y52574457D01*
X40015026Y52594448D01*
X40028910Y52613168D01*
X40044562Y52630438D01*
X40061832Y52646090D01*
X40080552Y52659974D01*
X40100543Y52671956D01*
X40121613Y52681921D01*
X40143557Y52689773D01*
X40166166Y52695437D01*
X40189221Y52698856D01*
X40212500Y52700000D01*
X40787500Y52700000D01*
X40810779Y52698856D01*
X40810779Y52698856D01*
G37*
D13*
X40500000Y52225000D03*
D12*
G36*
X42560779Y52698856D02*
G01*
X42583834Y52695437D01*
X42606443Y52689773D01*
X42628387Y52681921D01*
X42649457Y52671956D01*
X42669448Y52659974D01*
X42688168Y52646090D01*
X42705438Y52630438D01*
X42721090Y52613168D01*
X42734974Y52594448D01*
X42746956Y52574457D01*
X42756921Y52553387D01*
X42764773Y52531443D01*
X42770437Y52508834D01*
X42773856Y52485779D01*
X42775000Y52462500D01*
X42775000Y51987500D01*
X42773856Y51964221D01*
X42770437Y51941166D01*
X42764773Y51918557D01*
X42756921Y51896613D01*
X42746956Y51875543D01*
X42734974Y51855552D01*
X42721090Y51836832D01*
X42705438Y51819562D01*
X42688168Y51803910D01*
X42669448Y51790026D01*
X42649457Y51778044D01*
X42628387Y51768079D01*
X42606443Y51760227D01*
X42583834Y51754563D01*
X42560779Y51751144D01*
X42537500Y51750000D01*
X41962500Y51750000D01*
X41939221Y51751144D01*
X41916166Y51754563D01*
X41893557Y51760227D01*
X41871613Y51768079D01*
X41850543Y51778044D01*
X41830552Y51790026D01*
X41811832Y51803910D01*
X41794562Y51819562D01*
X41778910Y51836832D01*
X41765026Y51855552D01*
X41753044Y51875543D01*
X41743079Y51896613D01*
X41735227Y51918557D01*
X41729563Y51941166D01*
X41726144Y51964221D01*
X41725000Y51987500D01*
X41725000Y52462500D01*
X41726144Y52485779D01*
X41729563Y52508834D01*
X41735227Y52531443D01*
X41743079Y52553387D01*
X41753044Y52574457D01*
X41765026Y52594448D01*
X41778910Y52613168D01*
X41794562Y52630438D01*
X41811832Y52646090D01*
X41830552Y52659974D01*
X41850543Y52671956D01*
X41871613Y52681921D01*
X41893557Y52689773D01*
X41916166Y52695437D01*
X41939221Y52698856D01*
X41962500Y52700000D01*
X42537500Y52700000D01*
X42560779Y52698856D01*
X42560779Y52698856D01*
G37*
D13*
X42250000Y52225000D03*
D12*
G36*
X37685779Y52698856D02*
G01*
X37708834Y52695437D01*
X37731443Y52689773D01*
X37753387Y52681921D01*
X37774457Y52671956D01*
X37794448Y52659974D01*
X37813168Y52646090D01*
X37830438Y52630438D01*
X37846090Y52613168D01*
X37859974Y52594448D01*
X37871956Y52574457D01*
X37881921Y52553387D01*
X37889773Y52531443D01*
X37895437Y52508834D01*
X37898856Y52485779D01*
X37900000Y52462500D01*
X37900000Y51987500D01*
X37898856Y51964221D01*
X37895437Y51941166D01*
X37889773Y51918557D01*
X37881921Y51896613D01*
X37871956Y51875543D01*
X37859974Y51855552D01*
X37846090Y51836832D01*
X37830438Y51819562D01*
X37813168Y51803910D01*
X37794448Y51790026D01*
X37774457Y51778044D01*
X37753387Y51768079D01*
X37731443Y51760227D01*
X37708834Y51754563D01*
X37685779Y51751144D01*
X37662500Y51750000D01*
X37087500Y51750000D01*
X37064221Y51751144D01*
X37041166Y51754563D01*
X37018557Y51760227D01*
X36996613Y51768079D01*
X36975543Y51778044D01*
X36955552Y51790026D01*
X36936832Y51803910D01*
X36919562Y51819562D01*
X36903910Y51836832D01*
X36890026Y51855552D01*
X36878044Y51875543D01*
X36868079Y51896613D01*
X36860227Y51918557D01*
X36854563Y51941166D01*
X36851144Y51964221D01*
X36850000Y51987500D01*
X36850000Y52462500D01*
X36851144Y52485779D01*
X36854563Y52508834D01*
X36860227Y52531443D01*
X36868079Y52553387D01*
X36878044Y52574457D01*
X36890026Y52594448D01*
X36903910Y52613168D01*
X36919562Y52630438D01*
X36936832Y52646090D01*
X36955552Y52659974D01*
X36975543Y52671956D01*
X36996613Y52681921D01*
X37018557Y52689773D01*
X37041166Y52695437D01*
X37064221Y52698856D01*
X37087500Y52700000D01*
X37662500Y52700000D01*
X37685779Y52698856D01*
X37685779Y52698856D01*
G37*
D13*
X37375000Y52225000D03*
D12*
G36*
X35935779Y52698856D02*
G01*
X35958834Y52695437D01*
X35981443Y52689773D01*
X36003387Y52681921D01*
X36024457Y52671956D01*
X36044448Y52659974D01*
X36063168Y52646090D01*
X36080438Y52630438D01*
X36096090Y52613168D01*
X36109974Y52594448D01*
X36121956Y52574457D01*
X36131921Y52553387D01*
X36139773Y52531443D01*
X36145437Y52508834D01*
X36148856Y52485779D01*
X36150000Y52462500D01*
X36150000Y51987500D01*
X36148856Y51964221D01*
X36145437Y51941166D01*
X36139773Y51918557D01*
X36131921Y51896613D01*
X36121956Y51875543D01*
X36109974Y51855552D01*
X36096090Y51836832D01*
X36080438Y51819562D01*
X36063168Y51803910D01*
X36044448Y51790026D01*
X36024457Y51778044D01*
X36003387Y51768079D01*
X35981443Y51760227D01*
X35958834Y51754563D01*
X35935779Y51751144D01*
X35912500Y51750000D01*
X35337500Y51750000D01*
X35314221Y51751144D01*
X35291166Y51754563D01*
X35268557Y51760227D01*
X35246613Y51768079D01*
X35225543Y51778044D01*
X35205552Y51790026D01*
X35186832Y51803910D01*
X35169562Y51819562D01*
X35153910Y51836832D01*
X35140026Y51855552D01*
X35128044Y51875543D01*
X35118079Y51896613D01*
X35110227Y51918557D01*
X35104563Y51941166D01*
X35101144Y51964221D01*
X35100000Y51987500D01*
X35100000Y52462500D01*
X35101144Y52485779D01*
X35104563Y52508834D01*
X35110227Y52531443D01*
X35118079Y52553387D01*
X35128044Y52574457D01*
X35140026Y52594448D01*
X35153910Y52613168D01*
X35169562Y52630438D01*
X35186832Y52646090D01*
X35205552Y52659974D01*
X35225543Y52671956D01*
X35246613Y52681921D01*
X35268557Y52689773D01*
X35291166Y52695437D01*
X35314221Y52698856D01*
X35337500Y52700000D01*
X35912500Y52700000D01*
X35935779Y52698856D01*
X35935779Y52698856D01*
G37*
D13*
X35625000Y52225000D03*
D12*
G36*
X27810779Y52698856D02*
G01*
X27833834Y52695437D01*
X27856443Y52689773D01*
X27878387Y52681921D01*
X27899457Y52671956D01*
X27919448Y52659974D01*
X27938168Y52646090D01*
X27955438Y52630438D01*
X27971090Y52613168D01*
X27984974Y52594448D01*
X27996956Y52574457D01*
X28006921Y52553387D01*
X28014773Y52531443D01*
X28020437Y52508834D01*
X28023856Y52485779D01*
X28025000Y52462500D01*
X28025000Y51987500D01*
X28023856Y51964221D01*
X28020437Y51941166D01*
X28014773Y51918557D01*
X28006921Y51896613D01*
X27996956Y51875543D01*
X27984974Y51855552D01*
X27971090Y51836832D01*
X27955438Y51819562D01*
X27938168Y51803910D01*
X27919448Y51790026D01*
X27899457Y51778044D01*
X27878387Y51768079D01*
X27856443Y51760227D01*
X27833834Y51754563D01*
X27810779Y51751144D01*
X27787500Y51750000D01*
X27212500Y51750000D01*
X27189221Y51751144D01*
X27166166Y51754563D01*
X27143557Y51760227D01*
X27121613Y51768079D01*
X27100543Y51778044D01*
X27080552Y51790026D01*
X27061832Y51803910D01*
X27044562Y51819562D01*
X27028910Y51836832D01*
X27015026Y51855552D01*
X27003044Y51875543D01*
X26993079Y51896613D01*
X26985227Y51918557D01*
X26979563Y51941166D01*
X26976144Y51964221D01*
X26975000Y51987500D01*
X26975000Y52462500D01*
X26976144Y52485779D01*
X26979563Y52508834D01*
X26985227Y52531443D01*
X26993079Y52553387D01*
X27003044Y52574457D01*
X27015026Y52594448D01*
X27028910Y52613168D01*
X27044562Y52630438D01*
X27061832Y52646090D01*
X27080552Y52659974D01*
X27100543Y52671956D01*
X27121613Y52681921D01*
X27143557Y52689773D01*
X27166166Y52695437D01*
X27189221Y52698856D01*
X27212500Y52700000D01*
X27787500Y52700000D01*
X27810779Y52698856D01*
X27810779Y52698856D01*
G37*
D13*
X27500000Y52225000D03*
D12*
G36*
X26060779Y52698856D02*
G01*
X26083834Y52695437D01*
X26106443Y52689773D01*
X26128387Y52681921D01*
X26149457Y52671956D01*
X26169448Y52659974D01*
X26188168Y52646090D01*
X26205438Y52630438D01*
X26221090Y52613168D01*
X26234974Y52594448D01*
X26246956Y52574457D01*
X26256921Y52553387D01*
X26264773Y52531443D01*
X26270437Y52508834D01*
X26273856Y52485779D01*
X26275000Y52462500D01*
X26275000Y51987500D01*
X26273856Y51964221D01*
X26270437Y51941166D01*
X26264773Y51918557D01*
X26256921Y51896613D01*
X26246956Y51875543D01*
X26234974Y51855552D01*
X26221090Y51836832D01*
X26205438Y51819562D01*
X26188168Y51803910D01*
X26169448Y51790026D01*
X26149457Y51778044D01*
X26128387Y51768079D01*
X26106443Y51760227D01*
X26083834Y51754563D01*
X26060779Y51751144D01*
X26037500Y51750000D01*
X25462500Y51750000D01*
X25439221Y51751144D01*
X25416166Y51754563D01*
X25393557Y51760227D01*
X25371613Y51768079D01*
X25350543Y51778044D01*
X25330552Y51790026D01*
X25311832Y51803910D01*
X25294562Y51819562D01*
X25278910Y51836832D01*
X25265026Y51855552D01*
X25253044Y51875543D01*
X25243079Y51896613D01*
X25235227Y51918557D01*
X25229563Y51941166D01*
X25226144Y51964221D01*
X25225000Y51987500D01*
X25225000Y52462500D01*
X25226144Y52485779D01*
X25229563Y52508834D01*
X25235227Y52531443D01*
X25243079Y52553387D01*
X25253044Y52574457D01*
X25265026Y52594448D01*
X25278910Y52613168D01*
X25294562Y52630438D01*
X25311832Y52646090D01*
X25330552Y52659974D01*
X25350543Y52671956D01*
X25371613Y52681921D01*
X25393557Y52689773D01*
X25416166Y52695437D01*
X25439221Y52698856D01*
X25462500Y52700000D01*
X26037500Y52700000D01*
X26060779Y52698856D01*
X26060779Y52698856D01*
G37*
D13*
X25750000Y52225000D03*
D12*
G36*
X30935779Y52698856D02*
G01*
X30958834Y52695437D01*
X30981443Y52689773D01*
X31003387Y52681921D01*
X31024457Y52671956D01*
X31044448Y52659974D01*
X31063168Y52646090D01*
X31080438Y52630438D01*
X31096090Y52613168D01*
X31109974Y52594448D01*
X31121956Y52574457D01*
X31131921Y52553387D01*
X31139773Y52531443D01*
X31145437Y52508834D01*
X31148856Y52485779D01*
X31150000Y52462500D01*
X31150000Y51987500D01*
X31148856Y51964221D01*
X31145437Y51941166D01*
X31139773Y51918557D01*
X31131921Y51896613D01*
X31121956Y51875543D01*
X31109974Y51855552D01*
X31096090Y51836832D01*
X31080438Y51819562D01*
X31063168Y51803910D01*
X31044448Y51790026D01*
X31024457Y51778044D01*
X31003387Y51768079D01*
X30981443Y51760227D01*
X30958834Y51754563D01*
X30935779Y51751144D01*
X30912500Y51750000D01*
X30337500Y51750000D01*
X30314221Y51751144D01*
X30291166Y51754563D01*
X30268557Y51760227D01*
X30246613Y51768079D01*
X30225543Y51778044D01*
X30205552Y51790026D01*
X30186832Y51803910D01*
X30169562Y51819562D01*
X30153910Y51836832D01*
X30140026Y51855552D01*
X30128044Y51875543D01*
X30118079Y51896613D01*
X30110227Y51918557D01*
X30104563Y51941166D01*
X30101144Y51964221D01*
X30100000Y51987500D01*
X30100000Y52462500D01*
X30101144Y52485779D01*
X30104563Y52508834D01*
X30110227Y52531443D01*
X30118079Y52553387D01*
X30128044Y52574457D01*
X30140026Y52594448D01*
X30153910Y52613168D01*
X30169562Y52630438D01*
X30186832Y52646090D01*
X30205552Y52659974D01*
X30225543Y52671956D01*
X30246613Y52681921D01*
X30268557Y52689773D01*
X30291166Y52695437D01*
X30314221Y52698856D01*
X30337500Y52700000D01*
X30912500Y52700000D01*
X30935779Y52698856D01*
X30935779Y52698856D01*
G37*
D13*
X30625000Y52225000D03*
D12*
G36*
X32685779Y52698856D02*
G01*
X32708834Y52695437D01*
X32731443Y52689773D01*
X32753387Y52681921D01*
X32774457Y52671956D01*
X32794448Y52659974D01*
X32813168Y52646090D01*
X32830438Y52630438D01*
X32846090Y52613168D01*
X32859974Y52594448D01*
X32871956Y52574457D01*
X32881921Y52553387D01*
X32889773Y52531443D01*
X32895437Y52508834D01*
X32898856Y52485779D01*
X32900000Y52462500D01*
X32900000Y51987500D01*
X32898856Y51964221D01*
X32895437Y51941166D01*
X32889773Y51918557D01*
X32881921Y51896613D01*
X32871956Y51875543D01*
X32859974Y51855552D01*
X32846090Y51836832D01*
X32830438Y51819562D01*
X32813168Y51803910D01*
X32794448Y51790026D01*
X32774457Y51778044D01*
X32753387Y51768079D01*
X32731443Y51760227D01*
X32708834Y51754563D01*
X32685779Y51751144D01*
X32662500Y51750000D01*
X32087500Y51750000D01*
X32064221Y51751144D01*
X32041166Y51754563D01*
X32018557Y51760227D01*
X31996613Y51768079D01*
X31975543Y51778044D01*
X31955552Y51790026D01*
X31936832Y51803910D01*
X31919562Y51819562D01*
X31903910Y51836832D01*
X31890026Y51855552D01*
X31878044Y51875543D01*
X31868079Y51896613D01*
X31860227Y51918557D01*
X31854563Y51941166D01*
X31851144Y51964221D01*
X31850000Y51987500D01*
X31850000Y52462500D01*
X31851144Y52485779D01*
X31854563Y52508834D01*
X31860227Y52531443D01*
X31868079Y52553387D01*
X31878044Y52574457D01*
X31890026Y52594448D01*
X31903910Y52613168D01*
X31919562Y52630438D01*
X31936832Y52646090D01*
X31955552Y52659974D01*
X31975543Y52671956D01*
X31996613Y52681921D01*
X32018557Y52689773D01*
X32041166Y52695437D01*
X32064221Y52698856D01*
X32087500Y52700000D01*
X32662500Y52700000D01*
X32685779Y52698856D01*
X32685779Y52698856D01*
G37*
D13*
X32375000Y52225000D03*
D14*
X3015000Y42620000D03*
X5555000Y42620000D03*
X3015000Y40080000D03*
X5555000Y40080000D03*
X3015000Y37540000D03*
X5555000Y37540000D03*
X3015000Y35000000D03*
X5555000Y35000000D03*
X3015000Y32460000D03*
D15*
X5555000Y32460000D03*
D12*
G36*
X45740191Y52698947D02*
G01*
X45761426Y52695797D01*
X45782250Y52690581D01*
X45802462Y52683349D01*
X45821868Y52674170D01*
X45840281Y52663134D01*
X45857524Y52650346D01*
X45873430Y52635930D01*
X45887846Y52620024D01*
X45900634Y52602781D01*
X45911670Y52584368D01*
X45920849Y52564962D01*
X45928081Y52544750D01*
X45933297Y52523926D01*
X45936447Y52502691D01*
X45937500Y52481250D01*
X45937500Y51968750D01*
X45936447Y51947309D01*
X45933297Y51926074D01*
X45928081Y51905250D01*
X45920849Y51885038D01*
X45911670Y51865632D01*
X45900634Y51847219D01*
X45887846Y51829976D01*
X45873430Y51814070D01*
X45857524Y51799654D01*
X45840281Y51786866D01*
X45821868Y51775830D01*
X45802462Y51766651D01*
X45782250Y51759419D01*
X45761426Y51754203D01*
X45740191Y51751053D01*
X45718750Y51750000D01*
X45281250Y51750000D01*
X45259809Y51751053D01*
X45238574Y51754203D01*
X45217750Y51759419D01*
X45197538Y51766651D01*
X45178132Y51775830D01*
X45159719Y51786866D01*
X45142476Y51799654D01*
X45126570Y51814070D01*
X45112154Y51829976D01*
X45099366Y51847219D01*
X45088330Y51865632D01*
X45079151Y51885038D01*
X45071919Y51905250D01*
X45066703Y51926074D01*
X45063553Y51947309D01*
X45062500Y51968750D01*
X45062500Y52481250D01*
X45063553Y52502691D01*
X45066703Y52523926D01*
X45071919Y52544750D01*
X45079151Y52564962D01*
X45088330Y52584368D01*
X45099366Y52602781D01*
X45112154Y52620024D01*
X45126570Y52635930D01*
X45142476Y52650346D01*
X45159719Y52663134D01*
X45178132Y52674170D01*
X45197538Y52683349D01*
X45217750Y52690581D01*
X45238574Y52695797D01*
X45259809Y52698947D01*
X45281250Y52700000D01*
X45718750Y52700000D01*
X45740191Y52698947D01*
X45740191Y52698947D01*
G37*
D16*
X45500000Y52225000D03*
D12*
G36*
X47315191Y52698947D02*
G01*
X47336426Y52695797D01*
X47357250Y52690581D01*
X47377462Y52683349D01*
X47396868Y52674170D01*
X47415281Y52663134D01*
X47432524Y52650346D01*
X47448430Y52635930D01*
X47462846Y52620024D01*
X47475634Y52602781D01*
X47486670Y52584368D01*
X47495849Y52564962D01*
X47503081Y52544750D01*
X47508297Y52523926D01*
X47511447Y52502691D01*
X47512500Y52481250D01*
X47512500Y51968750D01*
X47511447Y51947309D01*
X47508297Y51926074D01*
X47503081Y51905250D01*
X47495849Y51885038D01*
X47486670Y51865632D01*
X47475634Y51847219D01*
X47462846Y51829976D01*
X47448430Y51814070D01*
X47432524Y51799654D01*
X47415281Y51786866D01*
X47396868Y51775830D01*
X47377462Y51766651D01*
X47357250Y51759419D01*
X47336426Y51754203D01*
X47315191Y51751053D01*
X47293750Y51750000D01*
X46856250Y51750000D01*
X46834809Y51751053D01*
X46813574Y51754203D01*
X46792750Y51759419D01*
X46772538Y51766651D01*
X46753132Y51775830D01*
X46734719Y51786866D01*
X46717476Y51799654D01*
X46701570Y51814070D01*
X46687154Y51829976D01*
X46674366Y51847219D01*
X46663330Y51865632D01*
X46654151Y51885038D01*
X46646919Y51905250D01*
X46641703Y51926074D01*
X46638553Y51947309D01*
X46637500Y51968750D01*
X46637500Y52481250D01*
X46638553Y52502691D01*
X46641703Y52523926D01*
X46646919Y52544750D01*
X46654151Y52564962D01*
X46663330Y52584368D01*
X46674366Y52602781D01*
X46687154Y52620024D01*
X46701570Y52635930D01*
X46717476Y52650346D01*
X46734719Y52663134D01*
X46753132Y52674170D01*
X46772538Y52683349D01*
X46792750Y52690581D01*
X46813574Y52695797D01*
X46834809Y52698947D01*
X46856250Y52700000D01*
X47293750Y52700000D01*
X47315191Y52698947D01*
X47315191Y52698947D01*
G37*
D16*
X47075000Y52225000D03*
D14*
X13970000Y56670000D03*
X16510000Y56670000D03*
X19050000Y56670000D03*
X21590000Y56670000D03*
X24130000Y56670000D03*
D15*
X26670000Y56670000D03*
D12*
G36*
X47315191Y22698947D02*
G01*
X47336426Y22695797D01*
X47357250Y22690581D01*
X47377462Y22683349D01*
X47396868Y22674170D01*
X47415281Y22663134D01*
X47432524Y22650346D01*
X47448430Y22635930D01*
X47462846Y22620024D01*
X47475634Y22602781D01*
X47486670Y22584368D01*
X47495849Y22564962D01*
X47503081Y22544750D01*
X47508297Y22523926D01*
X47511447Y22502691D01*
X47512500Y22481250D01*
X47512500Y21968750D01*
X47511447Y21947309D01*
X47508297Y21926074D01*
X47503081Y21905250D01*
X47495849Y21885038D01*
X47486670Y21865632D01*
X47475634Y21847219D01*
X47462846Y21829976D01*
X47448430Y21814070D01*
X47432524Y21799654D01*
X47415281Y21786866D01*
X47396868Y21775830D01*
X47377462Y21766651D01*
X47357250Y21759419D01*
X47336426Y21754203D01*
X47315191Y21751053D01*
X47293750Y21750000D01*
X46856250Y21750000D01*
X46834809Y21751053D01*
X46813574Y21754203D01*
X46792750Y21759419D01*
X46772538Y21766651D01*
X46753132Y21775830D01*
X46734719Y21786866D01*
X46717476Y21799654D01*
X46701570Y21814070D01*
X46687154Y21829976D01*
X46674366Y21847219D01*
X46663330Y21865632D01*
X46654151Y21885038D01*
X46646919Y21905250D01*
X46641703Y21926074D01*
X46638553Y21947309D01*
X46637500Y21968750D01*
X46637500Y22481250D01*
X46638553Y22502691D01*
X46641703Y22523926D01*
X46646919Y22544750D01*
X46654151Y22564962D01*
X46663330Y22584368D01*
X46674366Y22602781D01*
X46687154Y22620024D01*
X46701570Y22635930D01*
X46717476Y22650346D01*
X46734719Y22663134D01*
X46753132Y22674170D01*
X46772538Y22683349D01*
X46792750Y22690581D01*
X46813574Y22695797D01*
X46834809Y22698947D01*
X46856250Y22700000D01*
X47293750Y22700000D01*
X47315191Y22698947D01*
X47315191Y22698947D01*
G37*
D16*
X47075000Y22225000D03*
D12*
G36*
X45740191Y22698947D02*
G01*
X45761426Y22695797D01*
X45782250Y22690581D01*
X45802462Y22683349D01*
X45821868Y22674170D01*
X45840281Y22663134D01*
X45857524Y22650346D01*
X45873430Y22635930D01*
X45887846Y22620024D01*
X45900634Y22602781D01*
X45911670Y22584368D01*
X45920849Y22564962D01*
X45928081Y22544750D01*
X45933297Y22523926D01*
X45936447Y22502691D01*
X45937500Y22481250D01*
X45937500Y21968750D01*
X45936447Y21947309D01*
X45933297Y21926074D01*
X45928081Y21905250D01*
X45920849Y21885038D01*
X45911670Y21865632D01*
X45900634Y21847219D01*
X45887846Y21829976D01*
X45873430Y21814070D01*
X45857524Y21799654D01*
X45840281Y21786866D01*
X45821868Y21775830D01*
X45802462Y21766651D01*
X45782250Y21759419D01*
X45761426Y21754203D01*
X45740191Y21751053D01*
X45718750Y21750000D01*
X45281250Y21750000D01*
X45259809Y21751053D01*
X45238574Y21754203D01*
X45217750Y21759419D01*
X45197538Y21766651D01*
X45178132Y21775830D01*
X45159719Y21786866D01*
X45142476Y21799654D01*
X45126570Y21814070D01*
X45112154Y21829976D01*
X45099366Y21847219D01*
X45088330Y21865632D01*
X45079151Y21885038D01*
X45071919Y21905250D01*
X45066703Y21926074D01*
X45063553Y21947309D01*
X45062500Y21968750D01*
X45062500Y22481250D01*
X45063553Y22502691D01*
X45066703Y22523926D01*
X45071919Y22544750D01*
X45079151Y22564962D01*
X45088330Y22584368D01*
X45099366Y22602781D01*
X45112154Y22620024D01*
X45126570Y22635930D01*
X45142476Y22650346D01*
X45159719Y22663134D01*
X45178132Y22674170D01*
X45197538Y22683349D01*
X45217750Y22690581D01*
X45238574Y22695797D01*
X45259809Y22698947D01*
X45281250Y22700000D01*
X45718750Y22700000D01*
X45740191Y22698947D01*
X45740191Y22698947D01*
G37*
D16*
X45500000Y22225000D03*
D15*
X5555000Y2460000D03*
D14*
X3015000Y2460000D03*
X5555000Y5000000D03*
X3015000Y5000000D03*
X5555000Y7540000D03*
X3015000Y7540000D03*
X5555000Y10080000D03*
X3015000Y10080000D03*
X5555000Y12620000D03*
X3015000Y12620000D03*
D10*
X50590000Y8195000D03*
X50590000Y13195000D03*
X15590000Y8195000D03*
X15590000Y13195000D03*
D15*
X26670000Y26670000D03*
D14*
X24130000Y26670000D03*
X21590000Y26670000D03*
X19050000Y26670000D03*
X16510000Y26670000D03*
X13970000Y26670000D03*
D12*
G36*
X35935779Y22698856D02*
G01*
X35958834Y22695437D01*
X35981443Y22689773D01*
X36003387Y22681921D01*
X36024457Y22671956D01*
X36044448Y22659974D01*
X36063168Y22646090D01*
X36080438Y22630438D01*
X36096090Y22613168D01*
X36109974Y22594448D01*
X36121956Y22574457D01*
X36131921Y22553387D01*
X36139773Y22531443D01*
X36145437Y22508834D01*
X36148856Y22485779D01*
X36150000Y22462500D01*
X36150000Y21987500D01*
X36148856Y21964221D01*
X36145437Y21941166D01*
X36139773Y21918557D01*
X36131921Y21896613D01*
X36121956Y21875543D01*
X36109974Y21855552D01*
X36096090Y21836832D01*
X36080438Y21819562D01*
X36063168Y21803910D01*
X36044448Y21790026D01*
X36024457Y21778044D01*
X36003387Y21768079D01*
X35981443Y21760227D01*
X35958834Y21754563D01*
X35935779Y21751144D01*
X35912500Y21750000D01*
X35337500Y21750000D01*
X35314221Y21751144D01*
X35291166Y21754563D01*
X35268557Y21760227D01*
X35246613Y21768079D01*
X35225543Y21778044D01*
X35205552Y21790026D01*
X35186832Y21803910D01*
X35169562Y21819562D01*
X35153910Y21836832D01*
X35140026Y21855552D01*
X35128044Y21875543D01*
X35118079Y21896613D01*
X35110227Y21918557D01*
X35104563Y21941166D01*
X35101144Y21964221D01*
X35100000Y21987500D01*
X35100000Y22462500D01*
X35101144Y22485779D01*
X35104563Y22508834D01*
X35110227Y22531443D01*
X35118079Y22553387D01*
X35128044Y22574457D01*
X35140026Y22594448D01*
X35153910Y22613168D01*
X35169562Y22630438D01*
X35186832Y22646090D01*
X35205552Y22659974D01*
X35225543Y22671956D01*
X35246613Y22681921D01*
X35268557Y22689773D01*
X35291166Y22695437D01*
X35314221Y22698856D01*
X35337500Y22700000D01*
X35912500Y22700000D01*
X35935779Y22698856D01*
X35935779Y22698856D01*
G37*
D13*
X35625000Y22225000D03*
D12*
G36*
X37685779Y22698856D02*
G01*
X37708834Y22695437D01*
X37731443Y22689773D01*
X37753387Y22681921D01*
X37774457Y22671956D01*
X37794448Y22659974D01*
X37813168Y22646090D01*
X37830438Y22630438D01*
X37846090Y22613168D01*
X37859974Y22594448D01*
X37871956Y22574457D01*
X37881921Y22553387D01*
X37889773Y22531443D01*
X37895437Y22508834D01*
X37898856Y22485779D01*
X37900000Y22462500D01*
X37900000Y21987500D01*
X37898856Y21964221D01*
X37895437Y21941166D01*
X37889773Y21918557D01*
X37881921Y21896613D01*
X37871956Y21875543D01*
X37859974Y21855552D01*
X37846090Y21836832D01*
X37830438Y21819562D01*
X37813168Y21803910D01*
X37794448Y21790026D01*
X37774457Y21778044D01*
X37753387Y21768079D01*
X37731443Y21760227D01*
X37708834Y21754563D01*
X37685779Y21751144D01*
X37662500Y21750000D01*
X37087500Y21750000D01*
X37064221Y21751144D01*
X37041166Y21754563D01*
X37018557Y21760227D01*
X36996613Y21768079D01*
X36975543Y21778044D01*
X36955552Y21790026D01*
X36936832Y21803910D01*
X36919562Y21819562D01*
X36903910Y21836832D01*
X36890026Y21855552D01*
X36878044Y21875543D01*
X36868079Y21896613D01*
X36860227Y21918557D01*
X36854563Y21941166D01*
X36851144Y21964221D01*
X36850000Y21987500D01*
X36850000Y22462500D01*
X36851144Y22485779D01*
X36854563Y22508834D01*
X36860227Y22531443D01*
X36868079Y22553387D01*
X36878044Y22574457D01*
X36890026Y22594448D01*
X36903910Y22613168D01*
X36919562Y22630438D01*
X36936832Y22646090D01*
X36955552Y22659974D01*
X36975543Y22671956D01*
X36996613Y22681921D01*
X37018557Y22689773D01*
X37041166Y22695437D01*
X37064221Y22698856D01*
X37087500Y22700000D01*
X37662500Y22700000D01*
X37685779Y22698856D01*
X37685779Y22698856D01*
G37*
D13*
X37375000Y22225000D03*
D12*
G36*
X26060779Y22698856D02*
G01*
X26083834Y22695437D01*
X26106443Y22689773D01*
X26128387Y22681921D01*
X26149457Y22671956D01*
X26169448Y22659974D01*
X26188168Y22646090D01*
X26205438Y22630438D01*
X26221090Y22613168D01*
X26234974Y22594448D01*
X26246956Y22574457D01*
X26256921Y22553387D01*
X26264773Y22531443D01*
X26270437Y22508834D01*
X26273856Y22485779D01*
X26275000Y22462500D01*
X26275000Y21987500D01*
X26273856Y21964221D01*
X26270437Y21941166D01*
X26264773Y21918557D01*
X26256921Y21896613D01*
X26246956Y21875543D01*
X26234974Y21855552D01*
X26221090Y21836832D01*
X26205438Y21819562D01*
X26188168Y21803910D01*
X26169448Y21790026D01*
X26149457Y21778044D01*
X26128387Y21768079D01*
X26106443Y21760227D01*
X26083834Y21754563D01*
X26060779Y21751144D01*
X26037500Y21750000D01*
X25462500Y21750000D01*
X25439221Y21751144D01*
X25416166Y21754563D01*
X25393557Y21760227D01*
X25371613Y21768079D01*
X25350543Y21778044D01*
X25330552Y21790026D01*
X25311832Y21803910D01*
X25294562Y21819562D01*
X25278910Y21836832D01*
X25265026Y21855552D01*
X25253044Y21875543D01*
X25243079Y21896613D01*
X25235227Y21918557D01*
X25229563Y21941166D01*
X25226144Y21964221D01*
X25225000Y21987500D01*
X25225000Y22462500D01*
X25226144Y22485779D01*
X25229563Y22508834D01*
X25235227Y22531443D01*
X25243079Y22553387D01*
X25253044Y22574457D01*
X25265026Y22594448D01*
X25278910Y22613168D01*
X25294562Y22630438D01*
X25311832Y22646090D01*
X25330552Y22659974D01*
X25350543Y22671956D01*
X25371613Y22681921D01*
X25393557Y22689773D01*
X25416166Y22695437D01*
X25439221Y22698856D01*
X25462500Y22700000D01*
X26037500Y22700000D01*
X26060779Y22698856D01*
X26060779Y22698856D01*
G37*
D13*
X25750000Y22225000D03*
D12*
G36*
X27810779Y22698856D02*
G01*
X27833834Y22695437D01*
X27856443Y22689773D01*
X27878387Y22681921D01*
X27899457Y22671956D01*
X27919448Y22659974D01*
X27938168Y22646090D01*
X27955438Y22630438D01*
X27971090Y22613168D01*
X27984974Y22594448D01*
X27996956Y22574457D01*
X28006921Y22553387D01*
X28014773Y22531443D01*
X28020437Y22508834D01*
X28023856Y22485779D01*
X28025000Y22462500D01*
X28025000Y21987500D01*
X28023856Y21964221D01*
X28020437Y21941166D01*
X28014773Y21918557D01*
X28006921Y21896613D01*
X27996956Y21875543D01*
X27984974Y21855552D01*
X27971090Y21836832D01*
X27955438Y21819562D01*
X27938168Y21803910D01*
X27919448Y21790026D01*
X27899457Y21778044D01*
X27878387Y21768079D01*
X27856443Y21760227D01*
X27833834Y21754563D01*
X27810779Y21751144D01*
X27787500Y21750000D01*
X27212500Y21750000D01*
X27189221Y21751144D01*
X27166166Y21754563D01*
X27143557Y21760227D01*
X27121613Y21768079D01*
X27100543Y21778044D01*
X27080552Y21790026D01*
X27061832Y21803910D01*
X27044562Y21819562D01*
X27028910Y21836832D01*
X27015026Y21855552D01*
X27003044Y21875543D01*
X26993079Y21896613D01*
X26985227Y21918557D01*
X26979563Y21941166D01*
X26976144Y21964221D01*
X26975000Y21987500D01*
X26975000Y22462500D01*
X26976144Y22485779D01*
X26979563Y22508834D01*
X26985227Y22531443D01*
X26993079Y22553387D01*
X27003044Y22574457D01*
X27015026Y22594448D01*
X27028910Y22613168D01*
X27044562Y22630438D01*
X27061832Y22646090D01*
X27080552Y22659974D01*
X27100543Y22671956D01*
X27121613Y22681921D01*
X27143557Y22689773D01*
X27166166Y22695437D01*
X27189221Y22698856D01*
X27212500Y22700000D01*
X27787500Y22700000D01*
X27810779Y22698856D01*
X27810779Y22698856D01*
G37*
D13*
X27500000Y22225000D03*
D12*
G36*
X32685779Y22698856D02*
G01*
X32708834Y22695437D01*
X32731443Y22689773D01*
X32753387Y22681921D01*
X32774457Y22671956D01*
X32794448Y22659974D01*
X32813168Y22646090D01*
X32830438Y22630438D01*
X32846090Y22613168D01*
X32859974Y22594448D01*
X32871956Y22574457D01*
X32881921Y22553387D01*
X32889773Y22531443D01*
X32895437Y22508834D01*
X32898856Y22485779D01*
X32900000Y22462500D01*
X32900000Y21987500D01*
X32898856Y21964221D01*
X32895437Y21941166D01*
X32889773Y21918557D01*
X32881921Y21896613D01*
X32871956Y21875543D01*
X32859974Y21855552D01*
X32846090Y21836832D01*
X32830438Y21819562D01*
X32813168Y21803910D01*
X32794448Y21790026D01*
X32774457Y21778044D01*
X32753387Y21768079D01*
X32731443Y21760227D01*
X32708834Y21754563D01*
X32685779Y21751144D01*
X32662500Y21750000D01*
X32087500Y21750000D01*
X32064221Y21751144D01*
X32041166Y21754563D01*
X32018557Y21760227D01*
X31996613Y21768079D01*
X31975543Y21778044D01*
X31955552Y21790026D01*
X31936832Y21803910D01*
X31919562Y21819562D01*
X31903910Y21836832D01*
X31890026Y21855552D01*
X31878044Y21875543D01*
X31868079Y21896613D01*
X31860227Y21918557D01*
X31854563Y21941166D01*
X31851144Y21964221D01*
X31850000Y21987500D01*
X31850000Y22462500D01*
X31851144Y22485779D01*
X31854563Y22508834D01*
X31860227Y22531443D01*
X31868079Y22553387D01*
X31878044Y22574457D01*
X31890026Y22594448D01*
X31903910Y22613168D01*
X31919562Y22630438D01*
X31936832Y22646090D01*
X31955552Y22659974D01*
X31975543Y22671956D01*
X31996613Y22681921D01*
X32018557Y22689773D01*
X32041166Y22695437D01*
X32064221Y22698856D01*
X32087500Y22700000D01*
X32662500Y22700000D01*
X32685779Y22698856D01*
X32685779Y22698856D01*
G37*
D13*
X32375000Y22225000D03*
D12*
G36*
X30935779Y22698856D02*
G01*
X30958834Y22695437D01*
X30981443Y22689773D01*
X31003387Y22681921D01*
X31024457Y22671956D01*
X31044448Y22659974D01*
X31063168Y22646090D01*
X31080438Y22630438D01*
X31096090Y22613168D01*
X31109974Y22594448D01*
X31121956Y22574457D01*
X31131921Y22553387D01*
X31139773Y22531443D01*
X31145437Y22508834D01*
X31148856Y22485779D01*
X31150000Y22462500D01*
X31150000Y21987500D01*
X31148856Y21964221D01*
X31145437Y21941166D01*
X31139773Y21918557D01*
X31131921Y21896613D01*
X31121956Y21875543D01*
X31109974Y21855552D01*
X31096090Y21836832D01*
X31080438Y21819562D01*
X31063168Y21803910D01*
X31044448Y21790026D01*
X31024457Y21778044D01*
X31003387Y21768079D01*
X30981443Y21760227D01*
X30958834Y21754563D01*
X30935779Y21751144D01*
X30912500Y21750000D01*
X30337500Y21750000D01*
X30314221Y21751144D01*
X30291166Y21754563D01*
X30268557Y21760227D01*
X30246613Y21768079D01*
X30225543Y21778044D01*
X30205552Y21790026D01*
X30186832Y21803910D01*
X30169562Y21819562D01*
X30153910Y21836832D01*
X30140026Y21855552D01*
X30128044Y21875543D01*
X30118079Y21896613D01*
X30110227Y21918557D01*
X30104563Y21941166D01*
X30101144Y21964221D01*
X30100000Y21987500D01*
X30100000Y22462500D01*
X30101144Y22485779D01*
X30104563Y22508834D01*
X30110227Y22531443D01*
X30118079Y22553387D01*
X30128044Y22574457D01*
X30140026Y22594448D01*
X30153910Y22613168D01*
X30169562Y22630438D01*
X30186832Y22646090D01*
X30205552Y22659974D01*
X30225543Y22671956D01*
X30246613Y22681921D01*
X30268557Y22689773D01*
X30291166Y22695437D01*
X30314221Y22698856D01*
X30337500Y22700000D01*
X30912500Y22700000D01*
X30935779Y22698856D01*
X30935779Y22698856D01*
G37*
D13*
X30625000Y22225000D03*
D12*
G36*
X42560779Y22698856D02*
G01*
X42583834Y22695437D01*
X42606443Y22689773D01*
X42628387Y22681921D01*
X42649457Y22671956D01*
X42669448Y22659974D01*
X42688168Y22646090D01*
X42705438Y22630438D01*
X42721090Y22613168D01*
X42734974Y22594448D01*
X42746956Y22574457D01*
X42756921Y22553387D01*
X42764773Y22531443D01*
X42770437Y22508834D01*
X42773856Y22485779D01*
X42775000Y22462500D01*
X42775000Y21987500D01*
X42773856Y21964221D01*
X42770437Y21941166D01*
X42764773Y21918557D01*
X42756921Y21896613D01*
X42746956Y21875543D01*
X42734974Y21855552D01*
X42721090Y21836832D01*
X42705438Y21819562D01*
X42688168Y21803910D01*
X42669448Y21790026D01*
X42649457Y21778044D01*
X42628387Y21768079D01*
X42606443Y21760227D01*
X42583834Y21754563D01*
X42560779Y21751144D01*
X42537500Y21750000D01*
X41962500Y21750000D01*
X41939221Y21751144D01*
X41916166Y21754563D01*
X41893557Y21760227D01*
X41871613Y21768079D01*
X41850543Y21778044D01*
X41830552Y21790026D01*
X41811832Y21803910D01*
X41794562Y21819562D01*
X41778910Y21836832D01*
X41765026Y21855552D01*
X41753044Y21875543D01*
X41743079Y21896613D01*
X41735227Y21918557D01*
X41729563Y21941166D01*
X41726144Y21964221D01*
X41725000Y21987500D01*
X41725000Y22462500D01*
X41726144Y22485779D01*
X41729563Y22508834D01*
X41735227Y22531443D01*
X41743079Y22553387D01*
X41753044Y22574457D01*
X41765026Y22594448D01*
X41778910Y22613168D01*
X41794562Y22630438D01*
X41811832Y22646090D01*
X41830552Y22659974D01*
X41850543Y22671956D01*
X41871613Y22681921D01*
X41893557Y22689773D01*
X41916166Y22695437D01*
X41939221Y22698856D01*
X41962500Y22700000D01*
X42537500Y22700000D01*
X42560779Y22698856D01*
X42560779Y22698856D01*
G37*
D13*
X42250000Y22225000D03*
D12*
G36*
X40810779Y22698856D02*
G01*
X40833834Y22695437D01*
X40856443Y22689773D01*
X40878387Y22681921D01*
X40899457Y22671956D01*
X40919448Y22659974D01*
X40938168Y22646090D01*
X40955438Y22630438D01*
X40971090Y22613168D01*
X40984974Y22594448D01*
X40996956Y22574457D01*
X41006921Y22553387D01*
X41014773Y22531443D01*
X41020437Y22508834D01*
X41023856Y22485779D01*
X41025000Y22462500D01*
X41025000Y21987500D01*
X41023856Y21964221D01*
X41020437Y21941166D01*
X41014773Y21918557D01*
X41006921Y21896613D01*
X40996956Y21875543D01*
X40984974Y21855552D01*
X40971090Y21836832D01*
X40955438Y21819562D01*
X40938168Y21803910D01*
X40919448Y21790026D01*
X40899457Y21778044D01*
X40878387Y21768079D01*
X40856443Y21760227D01*
X40833834Y21754563D01*
X40810779Y21751144D01*
X40787500Y21750000D01*
X40212500Y21750000D01*
X40189221Y21751144D01*
X40166166Y21754563D01*
X40143557Y21760227D01*
X40121613Y21768079D01*
X40100543Y21778044D01*
X40080552Y21790026D01*
X40061832Y21803910D01*
X40044562Y21819562D01*
X40028910Y21836832D01*
X40015026Y21855552D01*
X40003044Y21875543D01*
X39993079Y21896613D01*
X39985227Y21918557D01*
X39979563Y21941166D01*
X39976144Y21964221D01*
X39975000Y21987500D01*
X39975000Y22462500D01*
X39976144Y22485779D01*
X39979563Y22508834D01*
X39985227Y22531443D01*
X39993079Y22553387D01*
X40003044Y22574457D01*
X40015026Y22594448D01*
X40028910Y22613168D01*
X40044562Y22630438D01*
X40061832Y22646090D01*
X40080552Y22659974D01*
X40100543Y22671956D01*
X40121613Y22681921D01*
X40143557Y22689773D01*
X40166166Y22695437D01*
X40189221Y22698856D01*
X40212500Y22700000D01*
X40787500Y22700000D01*
X40810779Y22698856D01*
X40810779Y22698856D01*
G37*
D13*
X40500000Y22225000D03*
D11*
X50800000Y26670000D03*
X46355000Y26670000D03*
X41910000Y26670000D03*
X38100000Y26670000D03*
D17*
X40005000Y20320000D03*
X38735000Y21590000D03*
X40005000Y50320000D03*
X38735000Y51590000D03*
X45085000Y24130000D03*
X43815000Y25400000D03*
X45085000Y54130000D03*
X43815000Y55400000D03*
D18*
X44767800Y23016400D02*
X46283600Y23016400D01*
X46283600Y23016400D02*
X47075000Y22225000D01*
X44767800Y23016400D02*
X42071400Y20320000D01*
X42071400Y20320000D02*
X40005000Y20320000D01*
X38010000Y21590000D02*
X37375000Y22225000D01*
X38735000Y21590000D02*
X38010000Y21590000D01*
X44767800Y53016400D02*
X46283600Y53016400D01*
X46283600Y53016400D02*
X47075000Y52225000D01*
X44767800Y53016400D02*
X42071400Y50320000D01*
X42071400Y50320000D02*
X40005000Y50320000D01*
X38010000Y51590000D02*
X37375000Y52225000D01*
X38735000Y51590000D02*
X38010000Y51590000D01*
X5555000Y10080000D02*
X9489800Y10080000D01*
X9489800Y10080000D02*
X13667100Y14257300D01*
X13667100Y14257300D02*
X37532300Y14257300D01*
X37532300Y14257300D02*
X45500000Y22225000D01*
X5555000Y40080000D02*
X9489800Y40080000D01*
X9489800Y40080000D02*
X13667100Y44257300D01*
X13667100Y44257300D02*
X37532300Y44257300D01*
X37532300Y44257300D02*
X45500000Y52225000D01*
D19*
X50590000Y13195000D02*
X50590000Y26460000D01*
X50590000Y26460000D02*
X50800000Y26670000D01*
X50590000Y43195000D02*
X50590000Y56460000D01*
X50590000Y56460000D02*
X50800000Y56670000D01*
D18*
X43410100Y22225000D02*
X42250000Y22225000D01*
X25280300Y26670000D02*
X25280300Y25856500D01*
X25280300Y25856500D02*
X25617200Y25519600D01*
X25617200Y25519600D02*
X40759600Y25519600D01*
X40759600Y25519600D02*
X41910000Y26670000D01*
X24130000Y26670000D02*
X25280300Y26670000D01*
X43410100Y22225000D02*
X43410100Y22455100D01*
X43410100Y22455100D02*
X45085000Y24130000D01*
X42545000Y26670000D02*
X41910000Y26670000D01*
X43815000Y25400000D02*
X42545000Y26670000D01*
X43410100Y52225000D02*
X42250000Y52225000D01*
X25280300Y56670000D02*
X25280300Y55856500D01*
X25280300Y55856500D02*
X25617200Y55519600D01*
X25617200Y55519600D02*
X40759600Y55519600D01*
X40759600Y55519600D02*
X41910000Y56670000D01*
X24130000Y56670000D02*
X25280300Y56670000D01*
X43410100Y52225000D02*
X43410100Y52455100D01*
X43410100Y52455100D02*
X45085000Y54130000D01*
X42545000Y56670000D02*
X41910000Y56670000D01*
X43815000Y55400000D02*
X42545000Y56670000D01*
X32375000Y23380800D02*
X25791100Y23380800D01*
X25791100Y23380800D02*
X22740300Y26431600D01*
X22740300Y26431600D02*
X22740300Y26670000D01*
X46355000Y26670000D02*
X43645500Y23960500D01*
X43645500Y23960500D02*
X32954700Y23960500D01*
X32954700Y23960500D02*
X32375000Y23380800D01*
X32375000Y23380800D02*
X32375000Y22225000D01*
X21590000Y26670000D02*
X22740300Y26670000D01*
X32375000Y53380800D02*
X25791100Y53380800D01*
X25791100Y53380800D02*
X22740300Y56431600D01*
X22740300Y56431600D02*
X22740300Y56670000D01*
X46355000Y56670000D02*
X43645500Y53960500D01*
X43645500Y53960500D02*
X32954700Y53960500D01*
X32954700Y53960500D02*
X32375000Y53380800D01*
X32375000Y53380800D02*
X32375000Y52225000D01*
X21590000Y56670000D02*
X22740300Y56670000D01*
D19*
X3015000Y2460000D02*
X3015000Y2040000D01*
X3015000Y2040000D02*
X4145000Y910000D01*
X4145000Y910000D02*
X6965000Y910000D01*
X6965000Y910000D02*
X10500000Y4445000D01*
X10500000Y4445000D02*
X10500000Y8105000D01*
X10500000Y8105000D02*
X15590000Y13195000D01*
X3015000Y5000000D02*
X3015000Y2460000D01*
X3015000Y32460000D02*
X3015000Y32040000D01*
X3015000Y32040000D02*
X4145000Y30910000D01*
X4145000Y30910000D02*
X6965000Y30910000D01*
X6965000Y30910000D02*
X10500000Y34445000D01*
X10500000Y34445000D02*
X10500000Y38105000D01*
X10500000Y38105000D02*
X15590000Y43195000D01*
X3015000Y35000000D02*
X3015000Y32460000D01*
D18*
X3015000Y10080000D02*
X4165300Y10080000D01*
X40500000Y22225000D02*
X32964600Y14689600D01*
X32964600Y14689600D02*
X11085700Y14689600D01*
X11085700Y14689600D02*
X7746100Y11350000D01*
X7746100Y11350000D02*
X5196900Y11350000D01*
X5196900Y11350000D02*
X4165300Y10318400D01*
X4165300Y10318400D02*
X4165300Y10080000D01*
X3015000Y40080000D02*
X4165300Y40080000D01*
X40500000Y52225000D02*
X32964600Y44689600D01*
X32964600Y44689600D02*
X11085700Y44689600D01*
X11085700Y44689600D02*
X7746100Y41350000D01*
X7746100Y41350000D02*
X5196900Y41350000D01*
X5196900Y41350000D02*
X4165300Y40318400D01*
X4165300Y40318400D02*
X4165300Y40080000D01*
X27500000Y22225000D02*
X26141600Y20866600D01*
X26141600Y20866600D02*
X16696400Y20866600D01*
X16696400Y20866600D02*
X10201500Y14371700D01*
X10201500Y14371700D02*
X5678600Y14371700D01*
X5678600Y14371700D02*
X4165300Y12858400D01*
X4165300Y12858400D02*
X4165300Y12620000D01*
X3015000Y12620000D02*
X4165300Y12620000D01*
X30625000Y22225000D02*
X27500000Y22225000D01*
X27500000Y52225000D02*
X26141600Y50866600D01*
X26141600Y50866600D02*
X16696400Y50866600D01*
X16696400Y50866600D02*
X10201500Y44371700D01*
X10201500Y44371700D02*
X5678600Y44371700D01*
X5678600Y44371700D02*
X4165300Y42858400D01*
X4165300Y42858400D02*
X4165300Y42620000D01*
X3015000Y42620000D02*
X4165300Y42620000D01*
X30625000Y52225000D02*
X27500000Y52225000D01*
D20*
G36*
X4001097Y13510198D02*
G01*
X3957870Y13562870D01*
X3755808Y13728698D01*
X3525278Y13851919D01*
X3275137Y13927799D01*
X3080184Y13947000D01*
X2949816Y13947000D01*
X2754863Y13927799D01*
X2504722Y13851919D01*
X2274192Y13728698D01*
X2072130Y13562870D01*
X1906302Y13360808D01*
X1783081Y13130278D01*
X1707201Y12880137D01*
X1681580Y12620000D01*
X1707201Y12359863D01*
X1783081Y12109722D01*
X1906302Y11879192D01*
X2072130Y11677130D01*
X2274192Y11511302D01*
X2504722Y11388081D01*
X2630257Y11350000D01*
X2504722Y11311919D01*
X2274192Y11188698D01*
X2072130Y11022870D01*
X1906302Y10820808D01*
X1783081Y10590278D01*
X1707201Y10340137D01*
X1681580Y10080000D01*
X1707201Y9819863D01*
X1783081Y9569722D01*
X1906302Y9339192D01*
X2072130Y9137130D01*
X2274192Y8971302D01*
X2415895Y8895560D01*
X2383748Y8884157D01*
X2133645Y8735178D01*
X1917412Y8540269D01*
X1743359Y8306920D01*
X1618175Y8044099D01*
X1573524Y7896890D01*
X1694845Y7667000D01*
X2888000Y7667000D01*
X2888000Y7687000D01*
X3142000Y7687000D01*
X3142000Y7667000D01*
X3162000Y7667000D01*
X3162000Y7413000D01*
X3142000Y7413000D01*
X3142000Y7393000D01*
X2888000Y7393000D01*
X2888000Y7413000D01*
X1694845Y7413000D01*
X1573524Y7183110D01*
X1618175Y7035901D01*
X1743359Y6773080D01*
X1917412Y6539731D01*
X2133645Y6344822D01*
X2383748Y6195843D01*
X2415895Y6184440D01*
X2274192Y6108698D01*
X2072130Y5942870D01*
X1906302Y5740808D01*
X1783081Y5510278D01*
X1707201Y5260137D01*
X1681580Y5000000D01*
X1707201Y4739863D01*
X1783081Y4489722D01*
X1906302Y4259192D01*
X2038000Y4098717D01*
X2038001Y3361283D01*
X1906302Y3200808D01*
X1783081Y2970278D01*
X1707201Y2720137D01*
X1681580Y2460000D01*
X1707201Y2199863D01*
X1783081Y1949722D01*
X1906302Y1719192D01*
X2072130Y1517130D01*
X2274192Y1351302D01*
X2376923Y1296391D01*
X3046313Y627000D01*
X627000Y627000D01*
X627000Y14373000D01*
X4863899Y14373000D01*
X4001097Y13510198D01*
X4001097Y13510198D01*
G37*
X4001097Y13510198D02*
X3957870Y13562870D01*
X3755808Y13728698D01*
X3525278Y13851919D01*
X3275137Y13927799D01*
X3080184Y13947000D01*
X2949816Y13947000D01*
X2754863Y13927799D01*
X2504722Y13851919D01*
X2274192Y13728698D01*
X2072130Y13562870D01*
X1906302Y13360808D01*
X1783081Y13130278D01*
X1707201Y12880137D01*
X1681580Y12620000D01*
X1707201Y12359863D01*
X1783081Y12109722D01*
X1906302Y11879192D01*
X2072130Y11677130D01*
X2274192Y11511302D01*
X2504722Y11388081D01*
X2630257Y11350000D01*
X2504722Y11311919D01*
X2274192Y11188698D01*
X2072130Y11022870D01*
X1906302Y10820808D01*
X1783081Y10590278D01*
X1707201Y10340137D01*
X1681580Y10080000D01*
X1707201Y9819863D01*
X1783081Y9569722D01*
X1906302Y9339192D01*
X2072130Y9137130D01*
X2274192Y8971302D01*
X2415895Y8895560D01*
X2383748Y8884157D01*
X2133645Y8735178D01*
X1917412Y8540269D01*
X1743359Y8306920D01*
X1618175Y8044099D01*
X1573524Y7896890D01*
X1694845Y7667000D01*
X2888000Y7667000D01*
X2888000Y7687000D01*
X3142000Y7687000D01*
X3142000Y7667000D01*
X3162000Y7667000D01*
X3162000Y7413000D01*
X3142000Y7413000D01*
X3142000Y7393000D01*
X2888000Y7393000D01*
X2888000Y7413000D01*
X1694845Y7413000D01*
X1573524Y7183110D01*
X1618175Y7035901D01*
X1743359Y6773080D01*
X1917412Y6539731D01*
X2133645Y6344822D01*
X2383748Y6195843D01*
X2415895Y6184440D01*
X2274192Y6108698D01*
X2072130Y5942870D01*
X1906302Y5740808D01*
X1783081Y5510278D01*
X1707201Y5260137D01*
X1681580Y5000000D01*
X1707201Y4739863D01*
X1783081Y4489722D01*
X1906302Y4259192D01*
X2038000Y4098717D01*
X2038001Y3361283D01*
X1906302Y3200808D01*
X1783081Y2970278D01*
X1707201Y2720137D01*
X1681580Y2460000D01*
X1707201Y2199863D01*
X1783081Y1949722D01*
X1906302Y1719192D01*
X2072130Y1517130D01*
X2274192Y1351302D01*
X2376923Y1296391D01*
X3046313Y627000D01*
X627000Y627000D01*
X627000Y14373000D01*
X4863899Y14373000D01*
X4001097Y13510198D01*
G36*
X54373000Y627000D02*
G01*
X8063686Y627000D01*
X11156907Y3720220D01*
X11194186Y3750814D01*
X11316276Y3899582D01*
X11406997Y4069309D01*
X11462863Y4253475D01*
X11477000Y4397007D01*
X11477000Y4397008D01*
X11481727Y4445000D01*
X11477000Y4492993D01*
X11477000Y7229435D01*
X14804040Y7229435D01*
X14871020Y6989344D01*
X15120048Y6872244D01*
X15387135Y6805977D01*
X15662017Y6793090D01*
X15934133Y6834078D01*
X16193023Y6927364D01*
X16308980Y6989344D01*
X16375960Y7229435D01*
X49804040Y7229435D01*
X49871020Y6989344D01*
X50120048Y6872244D01*
X50387135Y6805977D01*
X50662017Y6793090D01*
X50934133Y6834078D01*
X51193023Y6927364D01*
X51308980Y6989344D01*
X51375960Y7229435D01*
X50590000Y8015395D01*
X49804040Y7229435D01*
X16375960Y7229435D01*
X15590000Y8015395D01*
X14804040Y7229435D01*
X11477000Y7229435D01*
X11477000Y7700314D01*
X11899669Y8122983D01*
X14188090Y8122983D01*
X14229078Y7850867D01*
X14322364Y7591977D01*
X14384344Y7476020D01*
X14624435Y7409040D01*
X15410395Y8195000D01*
X15769605Y8195000D01*
X16555565Y7409040D01*
X16795656Y7476020D01*
X16912756Y7725048D01*
X16979023Y7992135D01*
X16985157Y8122983D01*
X49188090Y8122983D01*
X49229078Y7850867D01*
X49322364Y7591977D01*
X49384344Y7476020D01*
X49624435Y7409040D01*
X50410395Y8195000D01*
X50769605Y8195000D01*
X51555565Y7409040D01*
X51795656Y7476020D01*
X51912756Y7725048D01*
X51979023Y7992135D01*
X51991910Y8267017D01*
X51950922Y8539133D01*
X51857636Y8798023D01*
X51795656Y8913980D01*
X51555565Y8980960D01*
X50769605Y8195000D01*
X50410395Y8195000D01*
X49624435Y8980960D01*
X49384344Y8913980D01*
X49267244Y8664952D01*
X49200977Y8397865D01*
X49188090Y8122983D01*
X16985157Y8122983D01*
X16991910Y8267017D01*
X16950922Y8539133D01*
X16857636Y8798023D01*
X16795656Y8913980D01*
X16555565Y8980960D01*
X15769605Y8195000D01*
X15410395Y8195000D01*
X14624435Y8980960D01*
X14384344Y8913980D01*
X14267244Y8664952D01*
X14200977Y8397865D01*
X14188090Y8122983D01*
X11899669Y8122983D01*
X12937251Y9160565D01*
X14804040Y9160565D01*
X15590000Y8374605D01*
X16375960Y9160565D01*
X49804040Y9160565D01*
X50590000Y8374605D01*
X51375960Y9160565D01*
X51308980Y9400656D01*
X51059952Y9517756D01*
X50792865Y9584023D01*
X50517983Y9596910D01*
X50245867Y9555922D01*
X49986977Y9462636D01*
X49871020Y9400656D01*
X49804040Y9160565D01*
X16375960Y9160565D01*
X16308980Y9400656D01*
X16059952Y9517756D01*
X15792865Y9584023D01*
X15517983Y9596910D01*
X15245867Y9555922D01*
X14986977Y9462636D01*
X14871020Y9400656D01*
X14804040Y9160565D01*
X12937251Y9160565D01*
X15737816Y11961129D01*
X15951403Y12003614D01*
X16176887Y12097012D01*
X16379816Y12232606D01*
X16552394Y12405184D01*
X16687988Y12608113D01*
X16781386Y12833597D01*
X16829000Y13072969D01*
X16829000Y13317031D01*
X49351000Y13317031D01*
X49351000Y13072969D01*
X49398614Y12833597D01*
X49492012Y12608113D01*
X49627606Y12405184D01*
X49800184Y12232606D01*
X50003113Y12097012D01*
X50228597Y12003614D01*
X50467969Y11956000D01*
X50712031Y11956000D01*
X50951403Y12003614D01*
X51176887Y12097012D01*
X51379816Y12232606D01*
X51552394Y12405184D01*
X51687988Y12608113D01*
X51781386Y12833597D01*
X51829000Y13072969D01*
X51829000Y13317031D01*
X51781386Y13556403D01*
X51687988Y13781887D01*
X51567000Y13962957D01*
X51567000Y25706793D01*
X51582167Y25716927D01*
X51753073Y25887833D01*
X51887353Y26088798D01*
X51979847Y26312097D01*
X52027000Y26549151D01*
X52027000Y26790849D01*
X51979847Y27027903D01*
X51887353Y27251202D01*
X51753073Y27452167D01*
X51582167Y27623073D01*
X51381202Y27757353D01*
X51157903Y27849847D01*
X50920849Y27897000D01*
X50679151Y27897000D01*
X50442097Y27849847D01*
X50218798Y27757353D01*
X50017833Y27623073D01*
X49846927Y27452167D01*
X49712647Y27251202D01*
X49620153Y27027903D01*
X49573000Y26790849D01*
X49573000Y26549151D01*
X49613001Y26348053D01*
X49613000Y13962957D01*
X49492012Y13781887D01*
X49398614Y13556403D01*
X49351000Y13317031D01*
X16829000Y13317031D01*
X16781386Y13556403D01*
X16730066Y13680300D01*
X37503969Y13680300D01*
X37532300Y13677510D01*
X37560631Y13680300D01*
X37560636Y13680300D01*
X37590345Y13683226D01*
X37645411Y13688649D01*
X37690070Y13702197D01*
X37754176Y13721643D01*
X37854415Y13775221D01*
X37942274Y13847326D01*
X37960339Y13869338D01*
X45361694Y21270693D01*
X45718750Y21270693D01*
X45854934Y21284106D01*
X45985885Y21323829D01*
X46106570Y21388337D01*
X46212351Y21475149D01*
X46287500Y21566719D01*
X46362649Y21475149D01*
X46468430Y21388337D01*
X46589115Y21323829D01*
X46720066Y21284106D01*
X46856250Y21270693D01*
X47293750Y21270693D01*
X47429934Y21284106D01*
X47560885Y21323829D01*
X47681570Y21388337D01*
X47787351Y21475149D01*
X47874163Y21580930D01*
X47938671Y21701615D01*
X47978394Y21832566D01*
X47991807Y21968750D01*
X47991807Y22481250D01*
X47978394Y22617434D01*
X47938671Y22748385D01*
X47874163Y22869070D01*
X47787351Y22974851D01*
X47681570Y23061663D01*
X47560885Y23126171D01*
X47429934Y23165894D01*
X47293750Y23179307D01*
X46936694Y23179307D01*
X46711639Y23404362D01*
X46693574Y23426374D01*
X46605715Y23498479D01*
X46505476Y23552057D01*
X46441370Y23571503D01*
X46396711Y23585051D01*
X46341645Y23590474D01*
X46311936Y23593400D01*
X46311931Y23593400D01*
X46283600Y23596190D01*
X46255269Y23593400D01*
X45647245Y23593400D01*
X45688536Y23634691D01*
X45773569Y23761952D01*
X45832141Y23903357D01*
X45862000Y24053472D01*
X45862000Y24206528D01*
X45832141Y24356643D01*
X45773569Y24498048D01*
X45688536Y24625309D01*
X45580309Y24733536D01*
X45453048Y24818569D01*
X45358665Y24857664D01*
X45992895Y25491894D01*
X45997097Y25490153D01*
X46234151Y25443000D01*
X46475849Y25443000D01*
X46712903Y25490153D01*
X46936202Y25582647D01*
X47137167Y25716927D01*
X47308073Y25887833D01*
X47442353Y26088798D01*
X47534847Y26312097D01*
X47582000Y26549151D01*
X47582000Y26790849D01*
X47534847Y27027903D01*
X47442353Y27251202D01*
X47308073Y27452167D01*
X47137167Y27623073D01*
X46936202Y27757353D01*
X46712903Y27849847D01*
X46475849Y27897000D01*
X46234151Y27897000D01*
X45997097Y27849847D01*
X45773798Y27757353D01*
X45572833Y27623073D01*
X45401927Y27452167D01*
X45267647Y27251202D01*
X45175153Y27027903D01*
X45128000Y26790849D01*
X45128000Y26549151D01*
X45175153Y26312097D01*
X45176894Y26307895D01*
X44542664Y25673665D01*
X44503569Y25768048D01*
X44418536Y25895309D01*
X44310309Y26003536D01*
X44183048Y26088569D01*
X44041643Y26147141D01*
X43891528Y26177000D01*
X43854002Y26177000D01*
X43111387Y26919614D01*
X43089847Y27027903D01*
X42997353Y27251202D01*
X42863073Y27452167D01*
X42692167Y27623073D01*
X42491202Y27757353D01*
X42267903Y27849847D01*
X42030849Y27897000D01*
X41789151Y27897000D01*
X41552097Y27849847D01*
X41328798Y27757353D01*
X41127833Y27623073D01*
X40956927Y27452167D01*
X40822647Y27251202D01*
X40730153Y27027903D01*
X40683000Y26790849D01*
X40683000Y26549151D01*
X40730153Y26312097D01*
X40731894Y26307895D01*
X40520599Y26096600D01*
X39360837Y26096600D01*
X39411760Y26205116D01*
X39477250Y26469960D01*
X39489812Y26742492D01*
X39448965Y27012238D01*
X39356277Y27268832D01*
X39295860Y27381863D01*
X39056993Y27447388D01*
X38279605Y26670000D01*
X38293748Y26655857D01*
X38114143Y26476252D01*
X38100000Y26490395D01*
X38085858Y26476252D01*
X37906253Y26655857D01*
X37920395Y26670000D01*
X37143007Y27447388D01*
X36904140Y27381863D01*
X36788240Y27134884D01*
X36722750Y26870040D01*
X36710188Y26597508D01*
X36751035Y26327762D01*
X36834536Y26096600D01*
X27999307Y26096600D01*
X27999307Y27520000D01*
X27990097Y27613508D01*
X27986007Y27626993D01*
X37322612Y27626993D01*
X38100000Y26849605D01*
X38877388Y27626993D01*
X38811863Y27865860D01*
X38564884Y27981760D01*
X38300040Y28047250D01*
X38027508Y28059812D01*
X37757762Y28018965D01*
X37501168Y27926277D01*
X37388137Y27865860D01*
X37322612Y27626993D01*
X27986007Y27626993D01*
X27962822Y27703423D01*
X27918529Y27786289D01*
X27858921Y27858921D01*
X27786289Y27918529D01*
X27703423Y27962822D01*
X27613508Y27990097D01*
X27520000Y27999307D01*
X25820000Y27999307D01*
X25726492Y27990097D01*
X25636577Y27962822D01*
X25553711Y27918529D01*
X25481079Y27858921D01*
X25421471Y27786289D01*
X25377178Y27703423D01*
X25349903Y27613508D01*
X25340693Y27520000D01*
X25340693Y27243843D01*
X25327234Y27245168D01*
X25238698Y27410808D01*
X25072870Y27612870D01*
X24870808Y27778698D01*
X24640278Y27901919D01*
X24390137Y27977799D01*
X24195184Y27997000D01*
X24064816Y27997000D01*
X23869863Y27977799D01*
X23619722Y27901919D01*
X23389192Y27778698D01*
X23187130Y27612870D01*
X23021302Y27410808D01*
X22918696Y27218846D01*
X22853412Y27238650D01*
X22787234Y27245168D01*
X22698698Y27410808D01*
X22532870Y27612870D01*
X22330808Y27778698D01*
X22100278Y27901919D01*
X21850137Y27977799D01*
X21655184Y27997000D01*
X21524816Y27997000D01*
X21329863Y27977799D01*
X21079722Y27901919D01*
X20849192Y27778698D01*
X20647130Y27612870D01*
X20481302Y27410808D01*
X20358081Y27180278D01*
X20320000Y27054743D01*
X20281919Y27180278D01*
X20158698Y27410808D01*
X19992870Y27612870D01*
X19790808Y27778698D01*
X19560278Y27901919D01*
X19310137Y27977799D01*
X19115184Y27997000D01*
X18984816Y27997000D01*
X18789863Y27977799D01*
X18539722Y27901919D01*
X18309192Y27778698D01*
X18107130Y27612870D01*
X17941302Y27410808D01*
X17818081Y27180278D01*
X17780000Y27054743D01*
X17741919Y27180278D01*
X17618698Y27410808D01*
X17452870Y27612870D01*
X17250808Y27778698D01*
X17020278Y27901919D01*
X16770137Y27977799D01*
X16575184Y27997000D01*
X16444816Y27997000D01*
X16249863Y27977799D01*
X15999722Y27901919D01*
X15769192Y27778698D01*
X15567130Y27612870D01*
X15401302Y27410808D01*
X15325560Y27269105D01*
X15314157Y27301252D01*
X15165178Y27551355D01*
X14970269Y27767588D01*
X14736920Y27941641D01*
X14474099Y28066825D01*
X14326890Y28111476D01*
X14097000Y27990155D01*
X14097000Y26797000D01*
X14117000Y26797000D01*
X14117000Y26543000D01*
X14097000Y26543000D01*
X14097000Y25349845D01*
X14326890Y25228524D01*
X14474099Y25273175D01*
X14736920Y25398359D01*
X14970269Y25572412D01*
X15165178Y25788645D01*
X15314157Y26038748D01*
X15325560Y26070895D01*
X15401302Y25929192D01*
X15567130Y25727130D01*
X15769192Y25561302D01*
X15999722Y25438081D01*
X16249863Y25362201D01*
X16444816Y25343000D01*
X16575184Y25343000D01*
X16770137Y25362201D01*
X17020278Y25438081D01*
X17250808Y25561302D01*
X17452870Y25727130D01*
X17618698Y25929192D01*
X17741919Y26159722D01*
X17780000Y26285257D01*
X17818081Y26159722D01*
X17941302Y25929192D01*
X18107130Y25727130D01*
X18309192Y25561302D01*
X18539722Y25438081D01*
X18789863Y25362201D01*
X18984816Y25343000D01*
X19115184Y25343000D01*
X19310137Y25362201D01*
X19560278Y25438081D01*
X19790808Y25561302D01*
X19992870Y25727130D01*
X20158698Y25929192D01*
X20281919Y26159722D01*
X20320000Y26285257D01*
X20358081Y26159722D01*
X20481302Y25929192D01*
X20647130Y25727130D01*
X20849192Y25561302D01*
X21079722Y25438081D01*
X21329863Y25362201D01*
X21524816Y25343000D01*
X21655184Y25343000D01*
X21850137Y25362201D01*
X22100278Y25438081D01*
X22330808Y25561302D01*
X22532870Y25727130D01*
X22576097Y25779802D01*
X25046479Y23309420D01*
X24980820Y23289502D01*
X24870506Y23230537D01*
X24773815Y23151185D01*
X24694463Y23054494D01*
X24635498Y22944180D01*
X24599188Y22824482D01*
X24586928Y22700000D01*
X24590000Y22510750D01*
X24748750Y22352000D01*
X25623000Y22352000D01*
X25623000Y22372000D01*
X25877000Y22372000D01*
X25877000Y22352000D01*
X25897000Y22352000D01*
X25897000Y22098000D01*
X25877000Y22098000D01*
X25877000Y22078000D01*
X25623000Y22078000D01*
X25623000Y22098000D01*
X24748750Y22098000D01*
X24590000Y21939250D01*
X24586928Y21750000D01*
X24599188Y21625518D01*
X24635498Y21505820D01*
X24668756Y21443600D01*
X16724739Y21443600D01*
X16696400Y21446391D01*
X16583288Y21435251D01*
X16519182Y21415804D01*
X16474524Y21402257D01*
X16374285Y21348679D01*
X16286426Y21276574D01*
X16268363Y21254564D01*
X10627000Y15613201D01*
X10627000Y26313109D01*
X12528519Y26313109D01*
X12625843Y26038748D01*
X12774822Y25788645D01*
X12969731Y25572412D01*
X13203080Y25398359D01*
X13465901Y25273175D01*
X13613110Y25228524D01*
X13843000Y25349845D01*
X13843000Y26543000D01*
X12649186Y26543000D01*
X12528519Y26313109D01*
X10627000Y26313109D01*
X10627000Y27026891D01*
X12528519Y27026891D01*
X12649186Y26797000D01*
X13843000Y26797000D01*
X13843000Y27990155D01*
X13613110Y28111476D01*
X13465901Y28066825D01*
X13203080Y27941641D01*
X12969731Y27767588D01*
X12774822Y27551355D01*
X12625843Y27301252D01*
X12528519Y27026891D01*
X10627000Y27026891D01*
X10627000Y29373000D01*
X54373000Y29373000D01*
X54373000Y627000D01*
X54373000Y627000D01*
G37*
X54373000Y627000D02*
X8063686Y627000D01*
X11156907Y3720220D01*
X11194186Y3750814D01*
X11316276Y3899582D01*
X11406997Y4069309D01*
X11462863Y4253475D01*
X11477000Y4397007D01*
X11477000Y4397008D01*
X11481727Y4445000D01*
X11477000Y4492993D01*
X11477000Y7229435D01*
X14804040Y7229435D01*
X14871020Y6989344D01*
X15120048Y6872244D01*
X15387135Y6805977D01*
X15662017Y6793090D01*
X15934133Y6834078D01*
X16193023Y6927364D01*
X16308980Y6989344D01*
X16375960Y7229435D01*
X49804040Y7229435D01*
X49871020Y6989344D01*
X50120048Y6872244D01*
X50387135Y6805977D01*
X50662017Y6793090D01*
X50934133Y6834078D01*
X51193023Y6927364D01*
X51308980Y6989344D01*
X51375960Y7229435D01*
X50590000Y8015395D01*
X49804040Y7229435D01*
X16375960Y7229435D01*
X15590000Y8015395D01*
X14804040Y7229435D01*
X11477000Y7229435D01*
X11477000Y7700314D01*
X11899669Y8122983D01*
X14188090Y8122983D01*
X14229078Y7850867D01*
X14322364Y7591977D01*
X14384344Y7476020D01*
X14624435Y7409040D01*
X15410395Y8195000D01*
X15769605Y8195000D01*
X16555565Y7409040D01*
X16795656Y7476020D01*
X16912756Y7725048D01*
X16979023Y7992135D01*
X16985157Y8122983D01*
X49188090Y8122983D01*
X49229078Y7850867D01*
X49322364Y7591977D01*
X49384344Y7476020D01*
X49624435Y7409040D01*
X50410395Y8195000D01*
X50769605Y8195000D01*
X51555565Y7409040D01*
X51795656Y7476020D01*
X51912756Y7725048D01*
X51979023Y7992135D01*
X51991910Y8267017D01*
X51950922Y8539133D01*
X51857636Y8798023D01*
X51795656Y8913980D01*
X51555565Y8980960D01*
X50769605Y8195000D01*
X50410395Y8195000D01*
X49624435Y8980960D01*
X49384344Y8913980D01*
X49267244Y8664952D01*
X49200977Y8397865D01*
X49188090Y8122983D01*
X16985157Y8122983D01*
X16991910Y8267017D01*
X16950922Y8539133D01*
X16857636Y8798023D01*
X16795656Y8913980D01*
X16555565Y8980960D01*
X15769605Y8195000D01*
X15410395Y8195000D01*
X14624435Y8980960D01*
X14384344Y8913980D01*
X14267244Y8664952D01*
X14200977Y8397865D01*
X14188090Y8122983D01*
X11899669Y8122983D01*
X12937251Y9160565D01*
X14804040Y9160565D01*
X15590000Y8374605D01*
X16375960Y9160565D01*
X49804040Y9160565D01*
X50590000Y8374605D01*
X51375960Y9160565D01*
X51308980Y9400656D01*
X51059952Y9517756D01*
X50792865Y9584023D01*
X50517983Y9596910D01*
X50245867Y9555922D01*
X49986977Y9462636D01*
X49871020Y9400656D01*
X49804040Y9160565D01*
X16375960Y9160565D01*
X16308980Y9400656D01*
X16059952Y9517756D01*
X15792865Y9584023D01*
X15517983Y9596910D01*
X15245867Y9555922D01*
X14986977Y9462636D01*
X14871020Y9400656D01*
X14804040Y9160565D01*
X12937251Y9160565D01*
X15737816Y11961129D01*
X15951403Y12003614D01*
X16176887Y12097012D01*
X16379816Y12232606D01*
X16552394Y12405184D01*
X16687988Y12608113D01*
X16781386Y12833597D01*
X16829000Y13072969D01*
X16829000Y13317031D01*
X49351000Y13317031D01*
X49351000Y13072969D01*
X49398614Y12833597D01*
X49492012Y12608113D01*
X49627606Y12405184D01*
X49800184Y12232606D01*
X50003113Y12097012D01*
X50228597Y12003614D01*
X50467969Y11956000D01*
X50712031Y11956000D01*
X50951403Y12003614D01*
X51176887Y12097012D01*
X51379816Y12232606D01*
X51552394Y12405184D01*
X51687988Y12608113D01*
X51781386Y12833597D01*
X51829000Y13072969D01*
X51829000Y13317031D01*
X51781386Y13556403D01*
X51687988Y13781887D01*
X51567000Y13962957D01*
X51567000Y25706793D01*
X51582167Y25716927D01*
X51753073Y25887833D01*
X51887353Y26088798D01*
X51979847Y26312097D01*
X52027000Y26549151D01*
X52027000Y26790849D01*
X51979847Y27027903D01*
X51887353Y27251202D01*
X51753073Y27452167D01*
X51582167Y27623073D01*
X51381202Y27757353D01*
X51157903Y27849847D01*
X50920849Y27897000D01*
X50679151Y27897000D01*
X50442097Y27849847D01*
X50218798Y27757353D01*
X50017833Y27623073D01*
X49846927Y27452167D01*
X49712647Y27251202D01*
X49620153Y27027903D01*
X49573000Y26790849D01*
X49573000Y26549151D01*
X49613001Y26348053D01*
X49613000Y13962957D01*
X49492012Y13781887D01*
X49398614Y13556403D01*
X49351000Y13317031D01*
X16829000Y13317031D01*
X16781386Y13556403D01*
X16730066Y13680300D01*
X37503969Y13680300D01*
X37532300Y13677510D01*
X37560631Y13680300D01*
X37560636Y13680300D01*
X37590345Y13683226D01*
X37645411Y13688649D01*
X37690070Y13702197D01*
X37754176Y13721643D01*
X37854415Y13775221D01*
X37942274Y13847326D01*
X37960339Y13869338D01*
X45361694Y21270693D01*
X45718750Y21270693D01*
X45854934Y21284106D01*
X45985885Y21323829D01*
X46106570Y21388337D01*
X46212351Y21475149D01*
X46287500Y21566719D01*
X46362649Y21475149D01*
X46468430Y21388337D01*
X46589115Y21323829D01*
X46720066Y21284106D01*
X46856250Y21270693D01*
X47293750Y21270693D01*
X47429934Y21284106D01*
X47560885Y21323829D01*
X47681570Y21388337D01*
X47787351Y21475149D01*
X47874163Y21580930D01*
X47938671Y21701615D01*
X47978394Y21832566D01*
X47991807Y21968750D01*
X47991807Y22481250D01*
X47978394Y22617434D01*
X47938671Y22748385D01*
X47874163Y22869070D01*
X47787351Y22974851D01*
X47681570Y23061663D01*
X47560885Y23126171D01*
X47429934Y23165894D01*
X47293750Y23179307D01*
X46936694Y23179307D01*
X46711639Y23404362D01*
X46693574Y23426374D01*
X46605715Y23498479D01*
X46505476Y23552057D01*
X46441370Y23571503D01*
X46396711Y23585051D01*
X46341645Y23590474D01*
X46311936Y23593400D01*
X46311931Y23593400D01*
X46283600Y23596190D01*
X46255269Y23593400D01*
X45647245Y23593400D01*
X45688536Y23634691D01*
X45773569Y23761952D01*
X45832141Y23903357D01*
X45862000Y24053472D01*
X45862000Y24206528D01*
X45832141Y24356643D01*
X45773569Y24498048D01*
X45688536Y24625309D01*
X45580309Y24733536D01*
X45453048Y24818569D01*
X45358665Y24857664D01*
X45992895Y25491894D01*
X45997097Y25490153D01*
X46234151Y25443000D01*
X46475849Y25443000D01*
X46712903Y25490153D01*
X46936202Y25582647D01*
X47137167Y25716927D01*
X47308073Y25887833D01*
X47442353Y26088798D01*
X47534847Y26312097D01*
X47582000Y26549151D01*
X47582000Y26790849D01*
X47534847Y27027903D01*
X47442353Y27251202D01*
X47308073Y27452167D01*
X47137167Y27623073D01*
X46936202Y27757353D01*
X46712903Y27849847D01*
X46475849Y27897000D01*
X46234151Y27897000D01*
X45997097Y27849847D01*
X45773798Y27757353D01*
X45572833Y27623073D01*
X45401927Y27452167D01*
X45267647Y27251202D01*
X45175153Y27027903D01*
X45128000Y26790849D01*
X45128000Y26549151D01*
X45175153Y26312097D01*
X45176894Y26307895D01*
X44542664Y25673665D01*
X44503569Y25768048D01*
X44418536Y25895309D01*
X44310309Y26003536D01*
X44183048Y26088569D01*
X44041643Y26147141D01*
X43891528Y26177000D01*
X43854002Y26177000D01*
X43111387Y26919614D01*
X43089847Y27027903D01*
X42997353Y27251202D01*
X42863073Y27452167D01*
X42692167Y27623073D01*
X42491202Y27757353D01*
X42267903Y27849847D01*
X42030849Y27897000D01*
X41789151Y27897000D01*
X41552097Y27849847D01*
X41328798Y27757353D01*
X41127833Y27623073D01*
X40956927Y27452167D01*
X40822647Y27251202D01*
X40730153Y27027903D01*
X40683000Y26790849D01*
X40683000Y26549151D01*
X40730153Y26312097D01*
X40731894Y26307895D01*
X40520599Y26096600D01*
X39360837Y26096600D01*
X39411760Y26205116D01*
X39477250Y26469960D01*
X39489812Y26742492D01*
X39448965Y27012238D01*
X39356277Y27268832D01*
X39295860Y27381863D01*
X39056993Y27447388D01*
X38279605Y26670000D01*
X38293748Y26655857D01*
X38114143Y26476252D01*
X38100000Y26490395D01*
X38085858Y26476252D01*
X37906253Y26655857D01*
X37920395Y26670000D01*
X37143007Y27447388D01*
X36904140Y27381863D01*
X36788240Y27134884D01*
X36722750Y26870040D01*
X36710188Y26597508D01*
X36751035Y26327762D01*
X36834536Y26096600D01*
X27999307Y26096600D01*
X27999307Y27520000D01*
X27990097Y27613508D01*
X27986007Y27626993D01*
X37322612Y27626993D01*
X38100000Y26849605D01*
X38877388Y27626993D01*
X38811863Y27865860D01*
X38564884Y27981760D01*
X38300040Y28047250D01*
X38027508Y28059812D01*
X37757762Y28018965D01*
X37501168Y27926277D01*
X37388137Y27865860D01*
X37322612Y27626993D01*
X27986007Y27626993D01*
X27962822Y27703423D01*
X27918529Y27786289D01*
X27858921Y27858921D01*
X27786289Y27918529D01*
X27703423Y27962822D01*
X27613508Y27990097D01*
X27520000Y27999307D01*
X25820000Y27999307D01*
X25726492Y27990097D01*
X25636577Y27962822D01*
X25553711Y27918529D01*
X25481079Y27858921D01*
X25421471Y27786289D01*
X25377178Y27703423D01*
X25349903Y27613508D01*
X25340693Y27520000D01*
X25340693Y27243843D01*
X25327234Y27245168D01*
X25238698Y27410808D01*
X25072870Y27612870D01*
X24870808Y27778698D01*
X24640278Y27901919D01*
X24390137Y27977799D01*
X24195184Y27997000D01*
X24064816Y27997000D01*
X23869863Y27977799D01*
X23619722Y27901919D01*
X23389192Y27778698D01*
X23187130Y27612870D01*
X23021302Y27410808D01*
X22918696Y27218846D01*
X22853412Y27238650D01*
X22787234Y27245168D01*
X22698698Y27410808D01*
X22532870Y27612870D01*
X22330808Y27778698D01*
X22100278Y27901919D01*
X21850137Y27977799D01*
X21655184Y27997000D01*
X21524816Y27997000D01*
X21329863Y27977799D01*
X21079722Y27901919D01*
X20849192Y27778698D01*
X20647130Y27612870D01*
X20481302Y27410808D01*
X20358081Y27180278D01*
X20320000Y27054743D01*
X20281919Y27180278D01*
X20158698Y27410808D01*
X19992870Y27612870D01*
X19790808Y27778698D01*
X19560278Y27901919D01*
X19310137Y27977799D01*
X19115184Y27997000D01*
X18984816Y27997000D01*
X18789863Y27977799D01*
X18539722Y27901919D01*
X18309192Y27778698D01*
X18107130Y27612870D01*
X17941302Y27410808D01*
X17818081Y27180278D01*
X17780000Y27054743D01*
X17741919Y27180278D01*
X17618698Y27410808D01*
X17452870Y27612870D01*
X17250808Y27778698D01*
X17020278Y27901919D01*
X16770137Y27977799D01*
X16575184Y27997000D01*
X16444816Y27997000D01*
X16249863Y27977799D01*
X15999722Y27901919D01*
X15769192Y27778698D01*
X15567130Y27612870D01*
X15401302Y27410808D01*
X15325560Y27269105D01*
X15314157Y27301252D01*
X15165178Y27551355D01*
X14970269Y27767588D01*
X14736920Y27941641D01*
X14474099Y28066825D01*
X14326890Y28111476D01*
X14097000Y27990155D01*
X14097000Y26797000D01*
X14117000Y26797000D01*
X14117000Y26543000D01*
X14097000Y26543000D01*
X14097000Y25349845D01*
X14326890Y25228524D01*
X14474099Y25273175D01*
X14736920Y25398359D01*
X14970269Y25572412D01*
X15165178Y25788645D01*
X15314157Y26038748D01*
X15325560Y26070895D01*
X15401302Y25929192D01*
X15567130Y25727130D01*
X15769192Y25561302D01*
X15999722Y25438081D01*
X16249863Y25362201D01*
X16444816Y25343000D01*
X16575184Y25343000D01*
X16770137Y25362201D01*
X17020278Y25438081D01*
X17250808Y25561302D01*
X17452870Y25727130D01*
X17618698Y25929192D01*
X17741919Y26159722D01*
X17780000Y26285257D01*
X17818081Y26159722D01*
X17941302Y25929192D01*
X18107130Y25727130D01*
X18309192Y25561302D01*
X18539722Y25438081D01*
X18789863Y25362201D01*
X18984816Y25343000D01*
X19115184Y25343000D01*
X19310137Y25362201D01*
X19560278Y25438081D01*
X19790808Y25561302D01*
X19992870Y25727130D01*
X20158698Y25929192D01*
X20281919Y26159722D01*
X20320000Y26285257D01*
X20358081Y26159722D01*
X20481302Y25929192D01*
X20647130Y25727130D01*
X20849192Y25561302D01*
X21079722Y25438081D01*
X21329863Y25362201D01*
X21524816Y25343000D01*
X21655184Y25343000D01*
X21850137Y25362201D01*
X22100278Y25438081D01*
X22330808Y25561302D01*
X22532870Y25727130D01*
X22576097Y25779802D01*
X25046479Y23309420D01*
X24980820Y23289502D01*
X24870506Y23230537D01*
X24773815Y23151185D01*
X24694463Y23054494D01*
X24635498Y22944180D01*
X24599188Y22824482D01*
X24586928Y22700000D01*
X24590000Y22510750D01*
X24748750Y22352000D01*
X25623000Y22352000D01*
X25623000Y22372000D01*
X25877000Y22372000D01*
X25877000Y22352000D01*
X25897000Y22352000D01*
X25897000Y22098000D01*
X25877000Y22098000D01*
X25877000Y22078000D01*
X25623000Y22078000D01*
X25623000Y22098000D01*
X24748750Y22098000D01*
X24590000Y21939250D01*
X24586928Y21750000D01*
X24599188Y21625518D01*
X24635498Y21505820D01*
X24668756Y21443600D01*
X16724739Y21443600D01*
X16696400Y21446391D01*
X16583288Y21435251D01*
X16519182Y21415804D01*
X16474524Y21402257D01*
X16374285Y21348679D01*
X16286426Y21276574D01*
X16268363Y21254564D01*
X10627000Y15613201D01*
X10627000Y26313109D01*
X12528519Y26313109D01*
X12625843Y26038748D01*
X12774822Y25788645D01*
X12969731Y25572412D01*
X13203080Y25398359D01*
X13465901Y25273175D01*
X13613110Y25228524D01*
X13843000Y25349845D01*
X13843000Y26543000D01*
X12649186Y26543000D01*
X12528519Y26313109D01*
X10627000Y26313109D01*
X10627000Y27026891D01*
X12528519Y27026891D01*
X12649186Y26797000D01*
X13843000Y26797000D01*
X13843000Y27990155D01*
X13613110Y28111476D01*
X13465901Y28066825D01*
X13203080Y27941641D01*
X12969731Y27767588D01*
X12774822Y27551355D01*
X12625843Y27301252D01*
X12528519Y27026891D01*
X10627000Y27026891D01*
X10627000Y29373000D01*
X54373000Y29373000D01*
X54373000Y627000D01*
G36*
X7507099Y11927000D02*
G01*
X6861850Y11927000D01*
X6951825Y12115901D01*
X6996476Y12263110D01*
X6875155Y12493000D01*
X5682000Y12493000D01*
X5682000Y12473000D01*
X5428000Y12473000D01*
X5428000Y12493000D01*
X5408000Y12493000D01*
X5408000Y12747000D01*
X5428000Y12747000D01*
X5428000Y12767000D01*
X5682000Y12767000D01*
X5682000Y12747000D01*
X6875155Y12747000D01*
X6996476Y12976890D01*
X6951825Y13124099D01*
X6826641Y13386920D01*
X6652588Y13620269D01*
X6459073Y13794700D01*
X9374799Y13794700D01*
X7507099Y11927000D01*
X7507099Y11927000D01*
G37*
X7507099Y11927000D02*
X6861850Y11927000D01*
X6951825Y12115901D01*
X6996476Y12263110D01*
X6875155Y12493000D01*
X5682000Y12493000D01*
X5682000Y12473000D01*
X5428000Y12473000D01*
X5428000Y12493000D01*
X5408000Y12493000D01*
X5408000Y12747000D01*
X5428000Y12747000D01*
X5428000Y12767000D01*
X5682000Y12767000D01*
X5682000Y12747000D01*
X6875155Y12747000D01*
X6996476Y12976890D01*
X6951825Y13124099D01*
X6826641Y13386920D01*
X6652588Y13620269D01*
X6459073Y13794700D01*
X9374799Y13794700D01*
X7507099Y11927000D01*
G36*
X43073207Y22934208D02*
G01*
X43044359Y22969359D01*
X42935737Y23058503D01*
X42811810Y23124743D01*
X42677342Y23165534D01*
X42537500Y23179307D01*
X41962500Y23179307D01*
X41822658Y23165534D01*
X41688190Y23124743D01*
X41564263Y23058503D01*
X41455641Y22969359D01*
X41375000Y22871098D01*
X41294359Y22969359D01*
X41185737Y23058503D01*
X41061810Y23124743D01*
X40927342Y23165534D01*
X40787500Y23179307D01*
X40212500Y23179307D01*
X40072658Y23165534D01*
X39938190Y23124743D01*
X39814263Y23058503D01*
X39705641Y22969359D01*
X39616497Y22860737D01*
X39550257Y22736810D01*
X39509466Y22602342D01*
X39495693Y22462500D01*
X39495693Y22036694D01*
X39420957Y21961958D01*
X39338536Y22085309D01*
X39230309Y22193536D01*
X39103048Y22278569D01*
X38961643Y22337141D01*
X38811528Y22367000D01*
X38658472Y22367000D01*
X38508357Y22337141D01*
X38379307Y22283687D01*
X38379307Y22462500D01*
X38365534Y22602342D01*
X38324743Y22736810D01*
X38258503Y22860737D01*
X38169359Y22969359D01*
X38060737Y23058503D01*
X37936810Y23124743D01*
X37802342Y23165534D01*
X37662500Y23179307D01*
X37087500Y23179307D01*
X36947658Y23165534D01*
X36813190Y23124743D01*
X36689263Y23058503D01*
X36681708Y23052303D01*
X36680537Y23054494D01*
X36601185Y23151185D01*
X36504494Y23230537D01*
X36394180Y23289502D01*
X36274482Y23325812D01*
X36150000Y23338072D01*
X35910750Y23335000D01*
X35752000Y23176250D01*
X35752000Y22352000D01*
X35772000Y22352000D01*
X35772000Y22098000D01*
X35752000Y22098000D01*
X35752000Y21273750D01*
X35910750Y21115000D01*
X36150000Y21111928D01*
X36274482Y21124188D01*
X36394180Y21160498D01*
X36504494Y21219463D01*
X36601185Y21298815D01*
X36680537Y21395506D01*
X36681708Y21397697D01*
X36689263Y21391497D01*
X36813190Y21325257D01*
X36947658Y21284466D01*
X37087500Y21270693D01*
X37513306Y21270693D01*
X37581961Y21202038D01*
X37600026Y21180026D01*
X37687885Y21107921D01*
X37788124Y21054343D01*
X37832782Y21040796D01*
X37896888Y21021349D01*
X38010000Y21010209D01*
X38038339Y21013000D01*
X38213155Y21013000D01*
X38239691Y20986464D01*
X38363042Y20904043D01*
X32725599Y15266600D01*
X11912401Y15266600D01*
X16935401Y20289600D01*
X26113269Y20289600D01*
X26141600Y20286810D01*
X26169931Y20289600D01*
X26169936Y20289600D01*
X26199645Y20292526D01*
X26254711Y20297949D01*
X26299370Y20311497D01*
X26363476Y20330943D01*
X26463715Y20384521D01*
X26551574Y20456626D01*
X26569639Y20478638D01*
X27361694Y21270693D01*
X27787500Y21270693D01*
X27927342Y21284466D01*
X28061810Y21325257D01*
X28185737Y21391497D01*
X28294359Y21480641D01*
X28383503Y21589263D01*
X28414898Y21648000D01*
X29710102Y21648000D01*
X29741497Y21589263D01*
X29830641Y21480641D01*
X29939263Y21391497D01*
X30063190Y21325257D01*
X30197658Y21284466D01*
X30337500Y21270693D01*
X30912500Y21270693D01*
X31052342Y21284466D01*
X31186810Y21325257D01*
X31310737Y21391497D01*
X31419359Y21480641D01*
X31500000Y21578902D01*
X31580641Y21480641D01*
X31689263Y21391497D01*
X31813190Y21325257D01*
X31947658Y21284466D01*
X32087500Y21270693D01*
X32662500Y21270693D01*
X32802342Y21284466D01*
X32936810Y21325257D01*
X33060737Y21391497D01*
X33169359Y21480641D01*
X33258503Y21589263D01*
X33324743Y21713190D01*
X33335909Y21750000D01*
X34461928Y21750000D01*
X34474188Y21625518D01*
X34510498Y21505820D01*
X34569463Y21395506D01*
X34648815Y21298815D01*
X34745506Y21219463D01*
X34855820Y21160498D01*
X34975518Y21124188D01*
X35100000Y21111928D01*
X35339250Y21115000D01*
X35498000Y21273750D01*
X35498000Y22098000D01*
X34623750Y22098000D01*
X34465000Y21939250D01*
X34461928Y21750000D01*
X33335909Y21750000D01*
X33365534Y21847658D01*
X33379307Y21987500D01*
X33379307Y22462500D01*
X33365534Y22602342D01*
X33335910Y22700000D01*
X34461928Y22700000D01*
X34465000Y22510750D01*
X34623750Y22352000D01*
X35498000Y22352000D01*
X35498000Y23176250D01*
X35339250Y23335000D01*
X35100000Y23338072D01*
X34975518Y23325812D01*
X34855820Y23289502D01*
X34745506Y23230537D01*
X34648815Y23151185D01*
X34569463Y23054494D01*
X34510498Y22944180D01*
X34474188Y22824482D01*
X34461928Y22700000D01*
X33335910Y22700000D01*
X33324743Y22736810D01*
X33258503Y22860737D01*
X33169359Y22969359D01*
X33060737Y23058503D01*
X32952000Y23116624D01*
X32952000Y23141799D01*
X33193701Y23383500D01*
X43522499Y23383500D01*
X43073207Y22934208D01*
X43073207Y22934208D01*
G37*
X43073207Y22934208D02*
X43044359Y22969359D01*
X42935737Y23058503D01*
X42811810Y23124743D01*
X42677342Y23165534D01*
X42537500Y23179307D01*
X41962500Y23179307D01*
X41822658Y23165534D01*
X41688190Y23124743D01*
X41564263Y23058503D01*
X41455641Y22969359D01*
X41375000Y22871098D01*
X41294359Y22969359D01*
X41185737Y23058503D01*
X41061810Y23124743D01*
X40927342Y23165534D01*
X40787500Y23179307D01*
X40212500Y23179307D01*
X40072658Y23165534D01*
X39938190Y23124743D01*
X39814263Y23058503D01*
X39705641Y22969359D01*
X39616497Y22860737D01*
X39550257Y22736810D01*
X39509466Y22602342D01*
X39495693Y22462500D01*
X39495693Y22036694D01*
X39420957Y21961958D01*
X39338536Y22085309D01*
X39230309Y22193536D01*
X39103048Y22278569D01*
X38961643Y22337141D01*
X38811528Y22367000D01*
X38658472Y22367000D01*
X38508357Y22337141D01*
X38379307Y22283687D01*
X38379307Y22462500D01*
X38365534Y22602342D01*
X38324743Y22736810D01*
X38258503Y22860737D01*
X38169359Y22969359D01*
X38060737Y23058503D01*
X37936810Y23124743D01*
X37802342Y23165534D01*
X37662500Y23179307D01*
X37087500Y23179307D01*
X36947658Y23165534D01*
X36813190Y23124743D01*
X36689263Y23058503D01*
X36681708Y23052303D01*
X36680537Y23054494D01*
X36601185Y23151185D01*
X36504494Y23230537D01*
X36394180Y23289502D01*
X36274482Y23325812D01*
X36150000Y23338072D01*
X35910750Y23335000D01*
X35752000Y23176250D01*
X35752000Y22352000D01*
X35772000Y22352000D01*
X35772000Y22098000D01*
X35752000Y22098000D01*
X35752000Y21273750D01*
X35910750Y21115000D01*
X36150000Y21111928D01*
X36274482Y21124188D01*
X36394180Y21160498D01*
X36504494Y21219463D01*
X36601185Y21298815D01*
X36680537Y21395506D01*
X36681708Y21397697D01*
X36689263Y21391497D01*
X36813190Y21325257D01*
X36947658Y21284466D01*
X37087500Y21270693D01*
X37513306Y21270693D01*
X37581961Y21202038D01*
X37600026Y21180026D01*
X37687885Y21107921D01*
X37788124Y21054343D01*
X37832782Y21040796D01*
X37896888Y21021349D01*
X38010000Y21010209D01*
X38038339Y21013000D01*
X38213155Y21013000D01*
X38239691Y20986464D01*
X38363042Y20904043D01*
X32725599Y15266600D01*
X11912401Y15266600D01*
X16935401Y20289600D01*
X26113269Y20289600D01*
X26141600Y20286810D01*
X26169931Y20289600D01*
X26169936Y20289600D01*
X26199645Y20292526D01*
X26254711Y20297949D01*
X26299370Y20311497D01*
X26363476Y20330943D01*
X26463715Y20384521D01*
X26551574Y20456626D01*
X26569639Y20478638D01*
X27361694Y21270693D01*
X27787500Y21270693D01*
X27927342Y21284466D01*
X28061810Y21325257D01*
X28185737Y21391497D01*
X28294359Y21480641D01*
X28383503Y21589263D01*
X28414898Y21648000D01*
X29710102Y21648000D01*
X29741497Y21589263D01*
X29830641Y21480641D01*
X29939263Y21391497D01*
X30063190Y21325257D01*
X30197658Y21284466D01*
X30337500Y21270693D01*
X30912500Y21270693D01*
X31052342Y21284466D01*
X31186810Y21325257D01*
X31310737Y21391497D01*
X31419359Y21480641D01*
X31500000Y21578902D01*
X31580641Y21480641D01*
X31689263Y21391497D01*
X31813190Y21325257D01*
X31947658Y21284466D01*
X32087500Y21270693D01*
X32662500Y21270693D01*
X32802342Y21284466D01*
X32936810Y21325257D01*
X33060737Y21391497D01*
X33169359Y21480641D01*
X33258503Y21589263D01*
X33324743Y21713190D01*
X33335909Y21750000D01*
X34461928Y21750000D01*
X34474188Y21625518D01*
X34510498Y21505820D01*
X34569463Y21395506D01*
X34648815Y21298815D01*
X34745506Y21219463D01*
X34855820Y21160498D01*
X34975518Y21124188D01*
X35100000Y21111928D01*
X35339250Y21115000D01*
X35498000Y21273750D01*
X35498000Y22098000D01*
X34623750Y22098000D01*
X34465000Y21939250D01*
X34461928Y21750000D01*
X33335909Y21750000D01*
X33365534Y21847658D01*
X33379307Y21987500D01*
X33379307Y22462500D01*
X33365534Y22602342D01*
X33335910Y22700000D01*
X34461928Y22700000D01*
X34465000Y22510750D01*
X34623750Y22352000D01*
X35498000Y22352000D01*
X35498000Y23176250D01*
X35339250Y23335000D01*
X35100000Y23338072D01*
X34975518Y23325812D01*
X34855820Y23289502D01*
X34745506Y23230537D01*
X34648815Y23151185D01*
X34569463Y23054494D01*
X34510498Y22944180D01*
X34474188Y22824482D01*
X34461928Y22700000D01*
X33335910Y22700000D01*
X33324743Y22736810D01*
X33258503Y22860737D01*
X33169359Y22969359D01*
X33060737Y23058503D01*
X32952000Y23116624D01*
X32952000Y23141799D01*
X33193701Y23383500D01*
X43522499Y23383500D01*
X43073207Y22934208D01*
G36*
X4001097Y43510198D02*
G01*
X3957870Y43562870D01*
X3755808Y43728698D01*
X3525278Y43851919D01*
X3275137Y43927799D01*
X3080184Y43947000D01*
X2949816Y43947000D01*
X2754863Y43927799D01*
X2504722Y43851919D01*
X2274192Y43728698D01*
X2072130Y43562870D01*
X1906302Y43360808D01*
X1783081Y43130278D01*
X1707201Y42880137D01*
X1681580Y42620000D01*
X1707201Y42359863D01*
X1783081Y42109722D01*
X1906302Y41879192D01*
X2072130Y41677130D01*
X2274192Y41511302D01*
X2504722Y41388081D01*
X2630257Y41350000D01*
X2504722Y41311919D01*
X2274192Y41188698D01*
X2072130Y41022870D01*
X1906302Y40820808D01*
X1783081Y40590278D01*
X1707201Y40340137D01*
X1681580Y40080000D01*
X1707201Y39819863D01*
X1783081Y39569722D01*
X1906302Y39339192D01*
X2072130Y39137130D01*
X2274192Y38971302D01*
X2415895Y38895560D01*
X2383748Y38884157D01*
X2133645Y38735178D01*
X1917412Y38540269D01*
X1743359Y38306920D01*
X1618175Y38044099D01*
X1573524Y37896890D01*
X1694845Y37667000D01*
X2888000Y37667000D01*
X2888000Y37687000D01*
X3142000Y37687000D01*
X3142000Y37667000D01*
X3162000Y37667000D01*
X3162000Y37413000D01*
X3142000Y37413000D01*
X3142000Y37393000D01*
X2888000Y37393000D01*
X2888000Y37413000D01*
X1694845Y37413000D01*
X1573524Y37183110D01*
X1618175Y37035901D01*
X1743359Y36773080D01*
X1917412Y36539731D01*
X2133645Y36344822D01*
X2383748Y36195843D01*
X2415895Y36184440D01*
X2274192Y36108698D01*
X2072130Y35942870D01*
X1906302Y35740808D01*
X1783081Y35510278D01*
X1707201Y35260137D01*
X1681580Y35000000D01*
X1707201Y34739863D01*
X1783081Y34489722D01*
X1906302Y34259192D01*
X2038000Y34098717D01*
X2038001Y33361283D01*
X1906302Y33200808D01*
X1783081Y32970278D01*
X1707201Y32720137D01*
X1681580Y32460000D01*
X1707201Y32199863D01*
X1783081Y31949722D01*
X1906302Y31719192D01*
X2072130Y31517130D01*
X2274192Y31351302D01*
X2376923Y31296391D01*
X3046313Y30627000D01*
X627000Y30627000D01*
X627000Y44373000D01*
X4863899Y44373000D01*
X4001097Y43510198D01*
X4001097Y43510198D01*
G37*
X4001097Y43510198D02*
X3957870Y43562870D01*
X3755808Y43728698D01*
X3525278Y43851919D01*
X3275137Y43927799D01*
X3080184Y43947000D01*
X2949816Y43947000D01*
X2754863Y43927799D01*
X2504722Y43851919D01*
X2274192Y43728698D01*
X2072130Y43562870D01*
X1906302Y43360808D01*
X1783081Y43130278D01*
X1707201Y42880137D01*
X1681580Y42620000D01*
X1707201Y42359863D01*
X1783081Y42109722D01*
X1906302Y41879192D01*
X2072130Y41677130D01*
X2274192Y41511302D01*
X2504722Y41388081D01*
X2630257Y41350000D01*
X2504722Y41311919D01*
X2274192Y41188698D01*
X2072130Y41022870D01*
X1906302Y40820808D01*
X1783081Y40590278D01*
X1707201Y40340137D01*
X1681580Y40080000D01*
X1707201Y39819863D01*
X1783081Y39569722D01*
X1906302Y39339192D01*
X2072130Y39137130D01*
X2274192Y38971302D01*
X2415895Y38895560D01*
X2383748Y38884157D01*
X2133645Y38735178D01*
X1917412Y38540269D01*
X1743359Y38306920D01*
X1618175Y38044099D01*
X1573524Y37896890D01*
X1694845Y37667000D01*
X2888000Y37667000D01*
X2888000Y37687000D01*
X3142000Y37687000D01*
X3142000Y37667000D01*
X3162000Y37667000D01*
X3162000Y37413000D01*
X3142000Y37413000D01*
X3142000Y37393000D01*
X2888000Y37393000D01*
X2888000Y37413000D01*
X1694845Y37413000D01*
X1573524Y37183110D01*
X1618175Y37035901D01*
X1743359Y36773080D01*
X1917412Y36539731D01*
X2133645Y36344822D01*
X2383748Y36195843D01*
X2415895Y36184440D01*
X2274192Y36108698D01*
X2072130Y35942870D01*
X1906302Y35740808D01*
X1783081Y35510278D01*
X1707201Y35260137D01*
X1681580Y35000000D01*
X1707201Y34739863D01*
X1783081Y34489722D01*
X1906302Y34259192D01*
X2038000Y34098717D01*
X2038001Y33361283D01*
X1906302Y33200808D01*
X1783081Y32970278D01*
X1707201Y32720137D01*
X1681580Y32460000D01*
X1707201Y32199863D01*
X1783081Y31949722D01*
X1906302Y31719192D01*
X2072130Y31517130D01*
X2274192Y31351302D01*
X2376923Y31296391D01*
X3046313Y30627000D01*
X627000Y30627000D01*
X627000Y44373000D01*
X4863899Y44373000D01*
X4001097Y43510198D01*
G36*
X54373000Y30627000D02*
G01*
X8063686Y30627000D01*
X11156907Y33720220D01*
X11194186Y33750814D01*
X11316276Y33899582D01*
X11406997Y34069309D01*
X11462863Y34253475D01*
X11477000Y34397007D01*
X11477000Y34397008D01*
X11481727Y34445000D01*
X11477000Y34492993D01*
X11477000Y37229435D01*
X14804040Y37229435D01*
X14871020Y36989344D01*
X15120048Y36872244D01*
X15387135Y36805977D01*
X15662017Y36793090D01*
X15934133Y36834078D01*
X16193023Y36927364D01*
X16308980Y36989344D01*
X16375960Y37229435D01*
X49804040Y37229435D01*
X49871020Y36989344D01*
X50120048Y36872244D01*
X50387135Y36805977D01*
X50662017Y36793090D01*
X50934133Y36834078D01*
X51193023Y36927364D01*
X51308980Y36989344D01*
X51375960Y37229435D01*
X50590000Y38015395D01*
X49804040Y37229435D01*
X16375960Y37229435D01*
X15590000Y38015395D01*
X14804040Y37229435D01*
X11477000Y37229435D01*
X11477000Y37700314D01*
X11899669Y38122983D01*
X14188090Y38122983D01*
X14229078Y37850867D01*
X14322364Y37591977D01*
X14384344Y37476020D01*
X14624435Y37409040D01*
X15410395Y38195000D01*
X15769605Y38195000D01*
X16555565Y37409040D01*
X16795656Y37476020D01*
X16912756Y37725048D01*
X16979023Y37992135D01*
X16985157Y38122983D01*
X49188090Y38122983D01*
X49229078Y37850867D01*
X49322364Y37591977D01*
X49384344Y37476020D01*
X49624435Y37409040D01*
X50410395Y38195000D01*
X50769605Y38195000D01*
X51555565Y37409040D01*
X51795656Y37476020D01*
X51912756Y37725048D01*
X51979023Y37992135D01*
X51991910Y38267017D01*
X51950922Y38539133D01*
X51857636Y38798023D01*
X51795656Y38913980D01*
X51555565Y38980960D01*
X50769605Y38195000D01*
X50410395Y38195000D01*
X49624435Y38980960D01*
X49384344Y38913980D01*
X49267244Y38664952D01*
X49200977Y38397865D01*
X49188090Y38122983D01*
X16985157Y38122983D01*
X16991910Y38267017D01*
X16950922Y38539133D01*
X16857636Y38798023D01*
X16795656Y38913980D01*
X16555565Y38980960D01*
X15769605Y38195000D01*
X15410395Y38195000D01*
X14624435Y38980960D01*
X14384344Y38913980D01*
X14267244Y38664952D01*
X14200977Y38397865D01*
X14188090Y38122983D01*
X11899669Y38122983D01*
X12937251Y39160565D01*
X14804040Y39160565D01*
X15590000Y38374605D01*
X16375960Y39160565D01*
X49804040Y39160565D01*
X50590000Y38374605D01*
X51375960Y39160565D01*
X51308980Y39400656D01*
X51059952Y39517756D01*
X50792865Y39584023D01*
X50517983Y39596910D01*
X50245867Y39555922D01*
X49986977Y39462636D01*
X49871020Y39400656D01*
X49804040Y39160565D01*
X16375960Y39160565D01*
X16308980Y39400656D01*
X16059952Y39517756D01*
X15792865Y39584023D01*
X15517983Y39596910D01*
X15245867Y39555922D01*
X14986977Y39462636D01*
X14871020Y39400656D01*
X14804040Y39160565D01*
X12937251Y39160565D01*
X15737816Y41961129D01*
X15951403Y42003614D01*
X16176887Y42097012D01*
X16379816Y42232606D01*
X16552394Y42405184D01*
X16687988Y42608113D01*
X16781386Y42833597D01*
X16829000Y43072969D01*
X16829000Y43317031D01*
X49351000Y43317031D01*
X49351000Y43072969D01*
X49398614Y42833597D01*
X49492012Y42608113D01*
X49627606Y42405184D01*
X49800184Y42232606D01*
X50003113Y42097012D01*
X50228597Y42003614D01*
X50467969Y41956000D01*
X50712031Y41956000D01*
X50951403Y42003614D01*
X51176887Y42097012D01*
X51379816Y42232606D01*
X51552394Y42405184D01*
X51687988Y42608113D01*
X51781386Y42833597D01*
X51829000Y43072969D01*
X51829000Y43317031D01*
X51781386Y43556403D01*
X51687988Y43781887D01*
X51567000Y43962957D01*
X51567000Y55706793D01*
X51582167Y55716927D01*
X51753073Y55887833D01*
X51887353Y56088798D01*
X51979847Y56312097D01*
X52027000Y56549151D01*
X52027000Y56790849D01*
X51979847Y57027903D01*
X51887353Y57251202D01*
X51753073Y57452167D01*
X51582167Y57623073D01*
X51381202Y57757353D01*
X51157903Y57849847D01*
X50920849Y57897000D01*
X50679151Y57897000D01*
X50442097Y57849847D01*
X50218798Y57757353D01*
X50017833Y57623073D01*
X49846927Y57452167D01*
X49712647Y57251202D01*
X49620153Y57027903D01*
X49573000Y56790849D01*
X49573000Y56549151D01*
X49613001Y56348053D01*
X49613000Y43962957D01*
X49492012Y43781887D01*
X49398614Y43556403D01*
X49351000Y43317031D01*
X16829000Y43317031D01*
X16781386Y43556403D01*
X16730066Y43680300D01*
X37503969Y43680300D01*
X37532300Y43677510D01*
X37560631Y43680300D01*
X37560636Y43680300D01*
X37590345Y43683226D01*
X37645411Y43688649D01*
X37690070Y43702197D01*
X37754176Y43721643D01*
X37854415Y43775221D01*
X37942274Y43847326D01*
X37960339Y43869338D01*
X45361694Y51270693D01*
X45718750Y51270693D01*
X45854934Y51284106D01*
X45985885Y51323829D01*
X46106570Y51388337D01*
X46212351Y51475149D01*
X46287500Y51566719D01*
X46362649Y51475149D01*
X46468430Y51388337D01*
X46589115Y51323829D01*
X46720066Y51284106D01*
X46856250Y51270693D01*
X47293750Y51270693D01*
X47429934Y51284106D01*
X47560885Y51323829D01*
X47681570Y51388337D01*
X47787351Y51475149D01*
X47874163Y51580930D01*
X47938671Y51701615D01*
X47978394Y51832566D01*
X47991807Y51968750D01*
X47991807Y52481250D01*
X47978394Y52617434D01*
X47938671Y52748385D01*
X47874163Y52869070D01*
X47787351Y52974851D01*
X47681570Y53061663D01*
X47560885Y53126171D01*
X47429934Y53165894D01*
X47293750Y53179307D01*
X46936694Y53179307D01*
X46711639Y53404362D01*
X46693574Y53426374D01*
X46605715Y53498479D01*
X46505476Y53552057D01*
X46441370Y53571503D01*
X46396711Y53585051D01*
X46341645Y53590474D01*
X46311936Y53593400D01*
X46311931Y53593400D01*
X46283600Y53596190D01*
X46255269Y53593400D01*
X45647245Y53593400D01*
X45688536Y53634691D01*
X45773569Y53761952D01*
X45832141Y53903357D01*
X45862000Y54053472D01*
X45862000Y54206528D01*
X45832141Y54356643D01*
X45773569Y54498048D01*
X45688536Y54625309D01*
X45580309Y54733536D01*
X45453048Y54818569D01*
X45358665Y54857664D01*
X45992895Y55491894D01*
X45997097Y55490153D01*
X46234151Y55443000D01*
X46475849Y55443000D01*
X46712903Y55490153D01*
X46936202Y55582647D01*
X47137167Y55716927D01*
X47308073Y55887833D01*
X47442353Y56088798D01*
X47534847Y56312097D01*
X47582000Y56549151D01*
X47582000Y56790849D01*
X47534847Y57027903D01*
X47442353Y57251202D01*
X47308073Y57452167D01*
X47137167Y57623073D01*
X46936202Y57757353D01*
X46712903Y57849847D01*
X46475849Y57897000D01*
X46234151Y57897000D01*
X45997097Y57849847D01*
X45773798Y57757353D01*
X45572833Y57623073D01*
X45401927Y57452167D01*
X45267647Y57251202D01*
X45175153Y57027903D01*
X45128000Y56790849D01*
X45128000Y56549151D01*
X45175153Y56312097D01*
X45176894Y56307895D01*
X44542664Y55673665D01*
X44503569Y55768048D01*
X44418536Y55895309D01*
X44310309Y56003536D01*
X44183048Y56088569D01*
X44041643Y56147141D01*
X43891528Y56177000D01*
X43854002Y56177000D01*
X43111387Y56919614D01*
X43089847Y57027903D01*
X42997353Y57251202D01*
X42863073Y57452167D01*
X42692167Y57623073D01*
X42491202Y57757353D01*
X42267903Y57849847D01*
X42030849Y57897000D01*
X41789151Y57897000D01*
X41552097Y57849847D01*
X41328798Y57757353D01*
X41127833Y57623073D01*
X40956927Y57452167D01*
X40822647Y57251202D01*
X40730153Y57027903D01*
X40683000Y56790849D01*
X40683000Y56549151D01*
X40730153Y56312097D01*
X40731894Y56307895D01*
X40520599Y56096600D01*
X39360837Y56096600D01*
X39411760Y56205116D01*
X39477250Y56469960D01*
X39489812Y56742492D01*
X39448965Y57012238D01*
X39356277Y57268832D01*
X39295860Y57381863D01*
X39056993Y57447388D01*
X38279605Y56670000D01*
X38293748Y56655857D01*
X38114143Y56476252D01*
X38100000Y56490395D01*
X38085858Y56476252D01*
X37906253Y56655857D01*
X37920395Y56670000D01*
X37143007Y57447388D01*
X36904140Y57381863D01*
X36788240Y57134884D01*
X36722750Y56870040D01*
X36710188Y56597508D01*
X36751035Y56327762D01*
X36834536Y56096600D01*
X27999307Y56096600D01*
X27999307Y57520000D01*
X27990097Y57613508D01*
X27986007Y57626993D01*
X37322612Y57626993D01*
X38100000Y56849605D01*
X38877388Y57626993D01*
X38811863Y57865860D01*
X38564884Y57981760D01*
X38300040Y58047250D01*
X38027508Y58059812D01*
X37757762Y58018965D01*
X37501168Y57926277D01*
X37388137Y57865860D01*
X37322612Y57626993D01*
X27986007Y57626993D01*
X27962822Y57703423D01*
X27918529Y57786289D01*
X27858921Y57858921D01*
X27786289Y57918529D01*
X27703423Y57962822D01*
X27613508Y57990097D01*
X27520000Y57999307D01*
X25820000Y57999307D01*
X25726492Y57990097D01*
X25636577Y57962822D01*
X25553711Y57918529D01*
X25481079Y57858921D01*
X25421471Y57786289D01*
X25377178Y57703423D01*
X25349903Y57613508D01*
X25340693Y57520000D01*
X25340693Y57243843D01*
X25327234Y57245168D01*
X25238698Y57410808D01*
X25072870Y57612870D01*
X24870808Y57778698D01*
X24640278Y57901919D01*
X24390137Y57977799D01*
X24195184Y57997000D01*
X24064816Y57997000D01*
X23869863Y57977799D01*
X23619722Y57901919D01*
X23389192Y57778698D01*
X23187130Y57612870D01*
X23021302Y57410808D01*
X22918696Y57218846D01*
X22853412Y57238650D01*
X22787234Y57245168D01*
X22698698Y57410808D01*
X22532870Y57612870D01*
X22330808Y57778698D01*
X22100278Y57901919D01*
X21850137Y57977799D01*
X21655184Y57997000D01*
X21524816Y57997000D01*
X21329863Y57977799D01*
X21079722Y57901919D01*
X20849192Y57778698D01*
X20647130Y57612870D01*
X20481302Y57410808D01*
X20358081Y57180278D01*
X20320000Y57054743D01*
X20281919Y57180278D01*
X20158698Y57410808D01*
X19992870Y57612870D01*
X19790808Y57778698D01*
X19560278Y57901919D01*
X19310137Y57977799D01*
X19115184Y57997000D01*
X18984816Y57997000D01*
X18789863Y57977799D01*
X18539722Y57901919D01*
X18309192Y57778698D01*
X18107130Y57612870D01*
X17941302Y57410808D01*
X17818081Y57180278D01*
X17780000Y57054743D01*
X17741919Y57180278D01*
X17618698Y57410808D01*
X17452870Y57612870D01*
X17250808Y57778698D01*
X17020278Y57901919D01*
X16770137Y57977799D01*
X16575184Y57997000D01*
X16444816Y57997000D01*
X16249863Y57977799D01*
X15999722Y57901919D01*
X15769192Y57778698D01*
X15567130Y57612870D01*
X15401302Y57410808D01*
X15325560Y57269105D01*
X15314157Y57301252D01*
X15165178Y57551355D01*
X14970269Y57767588D01*
X14736920Y57941641D01*
X14474099Y58066825D01*
X14326890Y58111476D01*
X14097000Y57990155D01*
X14097000Y56797000D01*
X14117000Y56797000D01*
X14117000Y56543000D01*
X14097000Y56543000D01*
X14097000Y55349845D01*
X14326890Y55228524D01*
X14474099Y55273175D01*
X14736920Y55398359D01*
X14970269Y55572412D01*
X15165178Y55788645D01*
X15314157Y56038748D01*
X15325560Y56070895D01*
X15401302Y55929192D01*
X15567130Y55727130D01*
X15769192Y55561302D01*
X15999722Y55438081D01*
X16249863Y55362201D01*
X16444816Y55343000D01*
X16575184Y55343000D01*
X16770137Y55362201D01*
X17020278Y55438081D01*
X17250808Y55561302D01*
X17452870Y55727130D01*
X17618698Y55929192D01*
X17741919Y56159722D01*
X17780000Y56285257D01*
X17818081Y56159722D01*
X17941302Y55929192D01*
X18107130Y55727130D01*
X18309192Y55561302D01*
X18539722Y55438081D01*
X18789863Y55362201D01*
X18984816Y55343000D01*
X19115184Y55343000D01*
X19310137Y55362201D01*
X19560278Y55438081D01*
X19790808Y55561302D01*
X19992870Y55727130D01*
X20158698Y55929192D01*
X20281919Y56159722D01*
X20320000Y56285257D01*
X20358081Y56159722D01*
X20481302Y55929192D01*
X20647130Y55727130D01*
X20849192Y55561302D01*
X21079722Y55438081D01*
X21329863Y55362201D01*
X21524816Y55343000D01*
X21655184Y55343000D01*
X21850137Y55362201D01*
X22100278Y55438081D01*
X22330808Y55561302D01*
X22532870Y55727130D01*
X22576097Y55779802D01*
X25046479Y53309420D01*
X24980820Y53289502D01*
X24870506Y53230537D01*
X24773815Y53151185D01*
X24694463Y53054494D01*
X24635498Y52944180D01*
X24599188Y52824482D01*
X24586928Y52700000D01*
X24590000Y52510750D01*
X24748750Y52352000D01*
X25623000Y52352000D01*
X25623000Y52372000D01*
X25877000Y52372000D01*
X25877000Y52352000D01*
X25897000Y52352000D01*
X25897000Y52098000D01*
X25877000Y52098000D01*
X25877000Y52078000D01*
X25623000Y52078000D01*
X25623000Y52098000D01*
X24748750Y52098000D01*
X24590000Y51939250D01*
X24586928Y51750000D01*
X24599188Y51625518D01*
X24635498Y51505820D01*
X24668756Y51443600D01*
X16724739Y51443600D01*
X16696400Y51446391D01*
X16583288Y51435251D01*
X16519182Y51415804D01*
X16474524Y51402257D01*
X16374285Y51348679D01*
X16286426Y51276574D01*
X16268363Y51254564D01*
X10627000Y45613201D01*
X10627000Y56313109D01*
X12528519Y56313109D01*
X12625843Y56038748D01*
X12774822Y55788645D01*
X12969731Y55572412D01*
X13203080Y55398359D01*
X13465901Y55273175D01*
X13613110Y55228524D01*
X13843000Y55349845D01*
X13843000Y56543000D01*
X12649186Y56543000D01*
X12528519Y56313109D01*
X10627000Y56313109D01*
X10627000Y57026891D01*
X12528519Y57026891D01*
X12649186Y56797000D01*
X13843000Y56797000D01*
X13843000Y57990155D01*
X13613110Y58111476D01*
X13465901Y58066825D01*
X13203080Y57941641D01*
X12969731Y57767588D01*
X12774822Y57551355D01*
X12625843Y57301252D01*
X12528519Y57026891D01*
X10627000Y57026891D01*
X10627000Y59373000D01*
X54373000Y59373000D01*
X54373000Y30627000D01*
X54373000Y30627000D01*
G37*
X54373000Y30627000D02*
X8063686Y30627000D01*
X11156907Y33720220D01*
X11194186Y33750814D01*
X11316276Y33899582D01*
X11406997Y34069309D01*
X11462863Y34253475D01*
X11477000Y34397007D01*
X11477000Y34397008D01*
X11481727Y34445000D01*
X11477000Y34492993D01*
X11477000Y37229435D01*
X14804040Y37229435D01*
X14871020Y36989344D01*
X15120048Y36872244D01*
X15387135Y36805977D01*
X15662017Y36793090D01*
X15934133Y36834078D01*
X16193023Y36927364D01*
X16308980Y36989344D01*
X16375960Y37229435D01*
X49804040Y37229435D01*
X49871020Y36989344D01*
X50120048Y36872244D01*
X50387135Y36805977D01*
X50662017Y36793090D01*
X50934133Y36834078D01*
X51193023Y36927364D01*
X51308980Y36989344D01*
X51375960Y37229435D01*
X50590000Y38015395D01*
X49804040Y37229435D01*
X16375960Y37229435D01*
X15590000Y38015395D01*
X14804040Y37229435D01*
X11477000Y37229435D01*
X11477000Y37700314D01*
X11899669Y38122983D01*
X14188090Y38122983D01*
X14229078Y37850867D01*
X14322364Y37591977D01*
X14384344Y37476020D01*
X14624435Y37409040D01*
X15410395Y38195000D01*
X15769605Y38195000D01*
X16555565Y37409040D01*
X16795656Y37476020D01*
X16912756Y37725048D01*
X16979023Y37992135D01*
X16985157Y38122983D01*
X49188090Y38122983D01*
X49229078Y37850867D01*
X49322364Y37591977D01*
X49384344Y37476020D01*
X49624435Y37409040D01*
X50410395Y38195000D01*
X50769605Y38195000D01*
X51555565Y37409040D01*
X51795656Y37476020D01*
X51912756Y37725048D01*
X51979023Y37992135D01*
X51991910Y38267017D01*
X51950922Y38539133D01*
X51857636Y38798023D01*
X51795656Y38913980D01*
X51555565Y38980960D01*
X50769605Y38195000D01*
X50410395Y38195000D01*
X49624435Y38980960D01*
X49384344Y38913980D01*
X49267244Y38664952D01*
X49200977Y38397865D01*
X49188090Y38122983D01*
X16985157Y38122983D01*
X16991910Y38267017D01*
X16950922Y38539133D01*
X16857636Y38798023D01*
X16795656Y38913980D01*
X16555565Y38980960D01*
X15769605Y38195000D01*
X15410395Y38195000D01*
X14624435Y38980960D01*
X14384344Y38913980D01*
X14267244Y38664952D01*
X14200977Y38397865D01*
X14188090Y38122983D01*
X11899669Y38122983D01*
X12937251Y39160565D01*
X14804040Y39160565D01*
X15590000Y38374605D01*
X16375960Y39160565D01*
X49804040Y39160565D01*
X50590000Y38374605D01*
X51375960Y39160565D01*
X51308980Y39400656D01*
X51059952Y39517756D01*
X50792865Y39584023D01*
X50517983Y39596910D01*
X50245867Y39555922D01*
X49986977Y39462636D01*
X49871020Y39400656D01*
X49804040Y39160565D01*
X16375960Y39160565D01*
X16308980Y39400656D01*
X16059952Y39517756D01*
X15792865Y39584023D01*
X15517983Y39596910D01*
X15245867Y39555922D01*
X14986977Y39462636D01*
X14871020Y39400656D01*
X14804040Y39160565D01*
X12937251Y39160565D01*
X15737816Y41961129D01*
X15951403Y42003614D01*
X16176887Y42097012D01*
X16379816Y42232606D01*
X16552394Y42405184D01*
X16687988Y42608113D01*
X16781386Y42833597D01*
X16829000Y43072969D01*
X16829000Y43317031D01*
X49351000Y43317031D01*
X49351000Y43072969D01*
X49398614Y42833597D01*
X49492012Y42608113D01*
X49627606Y42405184D01*
X49800184Y42232606D01*
X50003113Y42097012D01*
X50228597Y42003614D01*
X50467969Y41956000D01*
X50712031Y41956000D01*
X50951403Y42003614D01*
X51176887Y42097012D01*
X51379816Y42232606D01*
X51552394Y42405184D01*
X51687988Y42608113D01*
X51781386Y42833597D01*
X51829000Y43072969D01*
X51829000Y43317031D01*
X51781386Y43556403D01*
X51687988Y43781887D01*
X51567000Y43962957D01*
X51567000Y55706793D01*
X51582167Y55716927D01*
X51753073Y55887833D01*
X51887353Y56088798D01*
X51979847Y56312097D01*
X52027000Y56549151D01*
X52027000Y56790849D01*
X51979847Y57027903D01*
X51887353Y57251202D01*
X51753073Y57452167D01*
X51582167Y57623073D01*
X51381202Y57757353D01*
X51157903Y57849847D01*
X50920849Y57897000D01*
X50679151Y57897000D01*
X50442097Y57849847D01*
X50218798Y57757353D01*
X50017833Y57623073D01*
X49846927Y57452167D01*
X49712647Y57251202D01*
X49620153Y57027903D01*
X49573000Y56790849D01*
X49573000Y56549151D01*
X49613001Y56348053D01*
X49613000Y43962957D01*
X49492012Y43781887D01*
X49398614Y43556403D01*
X49351000Y43317031D01*
X16829000Y43317031D01*
X16781386Y43556403D01*
X16730066Y43680300D01*
X37503969Y43680300D01*
X37532300Y43677510D01*
X37560631Y43680300D01*
X37560636Y43680300D01*
X37590345Y43683226D01*
X37645411Y43688649D01*
X37690070Y43702197D01*
X37754176Y43721643D01*
X37854415Y43775221D01*
X37942274Y43847326D01*
X37960339Y43869338D01*
X45361694Y51270693D01*
X45718750Y51270693D01*
X45854934Y51284106D01*
X45985885Y51323829D01*
X46106570Y51388337D01*
X46212351Y51475149D01*
X46287500Y51566719D01*
X46362649Y51475149D01*
X46468430Y51388337D01*
X46589115Y51323829D01*
X46720066Y51284106D01*
X46856250Y51270693D01*
X47293750Y51270693D01*
X47429934Y51284106D01*
X47560885Y51323829D01*
X47681570Y51388337D01*
X47787351Y51475149D01*
X47874163Y51580930D01*
X47938671Y51701615D01*
X47978394Y51832566D01*
X47991807Y51968750D01*
X47991807Y52481250D01*
X47978394Y52617434D01*
X47938671Y52748385D01*
X47874163Y52869070D01*
X47787351Y52974851D01*
X47681570Y53061663D01*
X47560885Y53126171D01*
X47429934Y53165894D01*
X47293750Y53179307D01*
X46936694Y53179307D01*
X46711639Y53404362D01*
X46693574Y53426374D01*
X46605715Y53498479D01*
X46505476Y53552057D01*
X46441370Y53571503D01*
X46396711Y53585051D01*
X46341645Y53590474D01*
X46311936Y53593400D01*
X46311931Y53593400D01*
X46283600Y53596190D01*
X46255269Y53593400D01*
X45647245Y53593400D01*
X45688536Y53634691D01*
X45773569Y53761952D01*
X45832141Y53903357D01*
X45862000Y54053472D01*
X45862000Y54206528D01*
X45832141Y54356643D01*
X45773569Y54498048D01*
X45688536Y54625309D01*
X45580309Y54733536D01*
X45453048Y54818569D01*
X45358665Y54857664D01*
X45992895Y55491894D01*
X45997097Y55490153D01*
X46234151Y55443000D01*
X46475849Y55443000D01*
X46712903Y55490153D01*
X46936202Y55582647D01*
X47137167Y55716927D01*
X47308073Y55887833D01*
X47442353Y56088798D01*
X47534847Y56312097D01*
X47582000Y56549151D01*
X47582000Y56790849D01*
X47534847Y57027903D01*
X47442353Y57251202D01*
X47308073Y57452167D01*
X47137167Y57623073D01*
X46936202Y57757353D01*
X46712903Y57849847D01*
X46475849Y57897000D01*
X46234151Y57897000D01*
X45997097Y57849847D01*
X45773798Y57757353D01*
X45572833Y57623073D01*
X45401927Y57452167D01*
X45267647Y57251202D01*
X45175153Y57027903D01*
X45128000Y56790849D01*
X45128000Y56549151D01*
X45175153Y56312097D01*
X45176894Y56307895D01*
X44542664Y55673665D01*
X44503569Y55768048D01*
X44418536Y55895309D01*
X44310309Y56003536D01*
X44183048Y56088569D01*
X44041643Y56147141D01*
X43891528Y56177000D01*
X43854002Y56177000D01*
X43111387Y56919614D01*
X43089847Y57027903D01*
X42997353Y57251202D01*
X42863073Y57452167D01*
X42692167Y57623073D01*
X42491202Y57757353D01*
X42267903Y57849847D01*
X42030849Y57897000D01*
X41789151Y57897000D01*
X41552097Y57849847D01*
X41328798Y57757353D01*
X41127833Y57623073D01*
X40956927Y57452167D01*
X40822647Y57251202D01*
X40730153Y57027903D01*
X40683000Y56790849D01*
X40683000Y56549151D01*
X40730153Y56312097D01*
X40731894Y56307895D01*
X40520599Y56096600D01*
X39360837Y56096600D01*
X39411760Y56205116D01*
X39477250Y56469960D01*
X39489812Y56742492D01*
X39448965Y57012238D01*
X39356277Y57268832D01*
X39295860Y57381863D01*
X39056993Y57447388D01*
X38279605Y56670000D01*
X38293748Y56655857D01*
X38114143Y56476252D01*
X38100000Y56490395D01*
X38085858Y56476252D01*
X37906253Y56655857D01*
X37920395Y56670000D01*
X37143007Y57447388D01*
X36904140Y57381863D01*
X36788240Y57134884D01*
X36722750Y56870040D01*
X36710188Y56597508D01*
X36751035Y56327762D01*
X36834536Y56096600D01*
X27999307Y56096600D01*
X27999307Y57520000D01*
X27990097Y57613508D01*
X27986007Y57626993D01*
X37322612Y57626993D01*
X38100000Y56849605D01*
X38877388Y57626993D01*
X38811863Y57865860D01*
X38564884Y57981760D01*
X38300040Y58047250D01*
X38027508Y58059812D01*
X37757762Y58018965D01*
X37501168Y57926277D01*
X37388137Y57865860D01*
X37322612Y57626993D01*
X27986007Y57626993D01*
X27962822Y57703423D01*
X27918529Y57786289D01*
X27858921Y57858921D01*
X27786289Y57918529D01*
X27703423Y57962822D01*
X27613508Y57990097D01*
X27520000Y57999307D01*
X25820000Y57999307D01*
X25726492Y57990097D01*
X25636577Y57962822D01*
X25553711Y57918529D01*
X25481079Y57858921D01*
X25421471Y57786289D01*
X25377178Y57703423D01*
X25349903Y57613508D01*
X25340693Y57520000D01*
X25340693Y57243843D01*
X25327234Y57245168D01*
X25238698Y57410808D01*
X25072870Y57612870D01*
X24870808Y57778698D01*
X24640278Y57901919D01*
X24390137Y57977799D01*
X24195184Y57997000D01*
X24064816Y57997000D01*
X23869863Y57977799D01*
X23619722Y57901919D01*
X23389192Y57778698D01*
X23187130Y57612870D01*
X23021302Y57410808D01*
X22918696Y57218846D01*
X22853412Y57238650D01*
X22787234Y57245168D01*
X22698698Y57410808D01*
X22532870Y57612870D01*
X22330808Y57778698D01*
X22100278Y57901919D01*
X21850137Y57977799D01*
X21655184Y57997000D01*
X21524816Y57997000D01*
X21329863Y57977799D01*
X21079722Y57901919D01*
X20849192Y57778698D01*
X20647130Y57612870D01*
X20481302Y57410808D01*
X20358081Y57180278D01*
X20320000Y57054743D01*
X20281919Y57180278D01*
X20158698Y57410808D01*
X19992870Y57612870D01*
X19790808Y57778698D01*
X19560278Y57901919D01*
X19310137Y57977799D01*
X19115184Y57997000D01*
X18984816Y57997000D01*
X18789863Y57977799D01*
X18539722Y57901919D01*
X18309192Y57778698D01*
X18107130Y57612870D01*
X17941302Y57410808D01*
X17818081Y57180278D01*
X17780000Y57054743D01*
X17741919Y57180278D01*
X17618698Y57410808D01*
X17452870Y57612870D01*
X17250808Y57778698D01*
X17020278Y57901919D01*
X16770137Y57977799D01*
X16575184Y57997000D01*
X16444816Y57997000D01*
X16249863Y57977799D01*
X15999722Y57901919D01*
X15769192Y57778698D01*
X15567130Y57612870D01*
X15401302Y57410808D01*
X15325560Y57269105D01*
X15314157Y57301252D01*
X15165178Y57551355D01*
X14970269Y57767588D01*
X14736920Y57941641D01*
X14474099Y58066825D01*
X14326890Y58111476D01*
X14097000Y57990155D01*
X14097000Y56797000D01*
X14117000Y56797000D01*
X14117000Y56543000D01*
X14097000Y56543000D01*
X14097000Y55349845D01*
X14326890Y55228524D01*
X14474099Y55273175D01*
X14736920Y55398359D01*
X14970269Y55572412D01*
X15165178Y55788645D01*
X15314157Y56038748D01*
X15325560Y56070895D01*
X15401302Y55929192D01*
X15567130Y55727130D01*
X15769192Y55561302D01*
X15999722Y55438081D01*
X16249863Y55362201D01*
X16444816Y55343000D01*
X16575184Y55343000D01*
X16770137Y55362201D01*
X17020278Y55438081D01*
X17250808Y55561302D01*
X17452870Y55727130D01*
X17618698Y55929192D01*
X17741919Y56159722D01*
X17780000Y56285257D01*
X17818081Y56159722D01*
X17941302Y55929192D01*
X18107130Y55727130D01*
X18309192Y55561302D01*
X18539722Y55438081D01*
X18789863Y55362201D01*
X18984816Y55343000D01*
X19115184Y55343000D01*
X19310137Y55362201D01*
X19560278Y55438081D01*
X19790808Y55561302D01*
X19992870Y55727130D01*
X20158698Y55929192D01*
X20281919Y56159722D01*
X20320000Y56285257D01*
X20358081Y56159722D01*
X20481302Y55929192D01*
X20647130Y55727130D01*
X20849192Y55561302D01*
X21079722Y55438081D01*
X21329863Y55362201D01*
X21524816Y55343000D01*
X21655184Y55343000D01*
X21850137Y55362201D01*
X22100278Y55438081D01*
X22330808Y55561302D01*
X22532870Y55727130D01*
X22576097Y55779802D01*
X25046479Y53309420D01*
X24980820Y53289502D01*
X24870506Y53230537D01*
X24773815Y53151185D01*
X24694463Y53054494D01*
X24635498Y52944180D01*
X24599188Y52824482D01*
X24586928Y52700000D01*
X24590000Y52510750D01*
X24748750Y52352000D01*
X25623000Y52352000D01*
X25623000Y52372000D01*
X25877000Y52372000D01*
X25877000Y52352000D01*
X25897000Y52352000D01*
X25897000Y52098000D01*
X25877000Y52098000D01*
X25877000Y52078000D01*
X25623000Y52078000D01*
X25623000Y52098000D01*
X24748750Y52098000D01*
X24590000Y51939250D01*
X24586928Y51750000D01*
X24599188Y51625518D01*
X24635498Y51505820D01*
X24668756Y51443600D01*
X16724739Y51443600D01*
X16696400Y51446391D01*
X16583288Y51435251D01*
X16519182Y51415804D01*
X16474524Y51402257D01*
X16374285Y51348679D01*
X16286426Y51276574D01*
X16268363Y51254564D01*
X10627000Y45613201D01*
X10627000Y56313109D01*
X12528519Y56313109D01*
X12625843Y56038748D01*
X12774822Y55788645D01*
X12969731Y55572412D01*
X13203080Y55398359D01*
X13465901Y55273175D01*
X13613110Y55228524D01*
X13843000Y55349845D01*
X13843000Y56543000D01*
X12649186Y56543000D01*
X12528519Y56313109D01*
X10627000Y56313109D01*
X10627000Y57026891D01*
X12528519Y57026891D01*
X12649186Y56797000D01*
X13843000Y56797000D01*
X13843000Y57990155D01*
X13613110Y58111476D01*
X13465901Y58066825D01*
X13203080Y57941641D01*
X12969731Y57767588D01*
X12774822Y57551355D01*
X12625843Y57301252D01*
X12528519Y57026891D01*
X10627000Y57026891D01*
X10627000Y59373000D01*
X54373000Y59373000D01*
X54373000Y30627000D01*
G36*
X7507099Y41927000D02*
G01*
X6861850Y41927000D01*
X6951825Y42115901D01*
X6996476Y42263110D01*
X6875155Y42493000D01*
X5682000Y42493000D01*
X5682000Y42473000D01*
X5428000Y42473000D01*
X5428000Y42493000D01*
X5408000Y42493000D01*
X5408000Y42747000D01*
X5428000Y42747000D01*
X5428000Y42767000D01*
X5682000Y42767000D01*
X5682000Y42747000D01*
X6875155Y42747000D01*
X6996476Y42976890D01*
X6951825Y43124099D01*
X6826641Y43386920D01*
X6652588Y43620269D01*
X6459073Y43794700D01*
X9374799Y43794700D01*
X7507099Y41927000D01*
X7507099Y41927000D01*
G37*
X7507099Y41927000D02*
X6861850Y41927000D01*
X6951825Y42115901D01*
X6996476Y42263110D01*
X6875155Y42493000D01*
X5682000Y42493000D01*
X5682000Y42473000D01*
X5428000Y42473000D01*
X5428000Y42493000D01*
X5408000Y42493000D01*
X5408000Y42747000D01*
X5428000Y42747000D01*
X5428000Y42767000D01*
X5682000Y42767000D01*
X5682000Y42747000D01*
X6875155Y42747000D01*
X6996476Y42976890D01*
X6951825Y43124099D01*
X6826641Y43386920D01*
X6652588Y43620269D01*
X6459073Y43794700D01*
X9374799Y43794700D01*
X7507099Y41927000D01*
G36*
X43073207Y52934208D02*
G01*
X43044359Y52969359D01*
X42935737Y53058503D01*
X42811810Y53124743D01*
X42677342Y53165534D01*
X42537500Y53179307D01*
X41962500Y53179307D01*
X41822658Y53165534D01*
X41688190Y53124743D01*
X41564263Y53058503D01*
X41455641Y52969359D01*
X41375000Y52871098D01*
X41294359Y52969359D01*
X41185737Y53058503D01*
X41061810Y53124743D01*
X40927342Y53165534D01*
X40787500Y53179307D01*
X40212500Y53179307D01*
X40072658Y53165534D01*
X39938190Y53124743D01*
X39814263Y53058503D01*
X39705641Y52969359D01*
X39616497Y52860737D01*
X39550257Y52736810D01*
X39509466Y52602342D01*
X39495693Y52462500D01*
X39495693Y52036694D01*
X39420957Y51961958D01*
X39338536Y52085309D01*
X39230309Y52193536D01*
X39103048Y52278569D01*
X38961643Y52337141D01*
X38811528Y52367000D01*
X38658472Y52367000D01*
X38508357Y52337141D01*
X38379307Y52283687D01*
X38379307Y52462500D01*
X38365534Y52602342D01*
X38324743Y52736810D01*
X38258503Y52860737D01*
X38169359Y52969359D01*
X38060737Y53058503D01*
X37936810Y53124743D01*
X37802342Y53165534D01*
X37662500Y53179307D01*
X37087500Y53179307D01*
X36947658Y53165534D01*
X36813190Y53124743D01*
X36689263Y53058503D01*
X36681708Y53052303D01*
X36680537Y53054494D01*
X36601185Y53151185D01*
X36504494Y53230537D01*
X36394180Y53289502D01*
X36274482Y53325812D01*
X36150000Y53338072D01*
X35910750Y53335000D01*
X35752000Y53176250D01*
X35752000Y52352000D01*
X35772000Y52352000D01*
X35772000Y52098000D01*
X35752000Y52098000D01*
X35752000Y51273750D01*
X35910750Y51115000D01*
X36150000Y51111928D01*
X36274482Y51124188D01*
X36394180Y51160498D01*
X36504494Y51219463D01*
X36601185Y51298815D01*
X36680537Y51395506D01*
X36681708Y51397697D01*
X36689263Y51391497D01*
X36813190Y51325257D01*
X36947658Y51284466D01*
X37087500Y51270693D01*
X37513306Y51270693D01*
X37581961Y51202038D01*
X37600026Y51180026D01*
X37687885Y51107921D01*
X37788124Y51054343D01*
X37832782Y51040796D01*
X37896888Y51021349D01*
X38010000Y51010209D01*
X38038339Y51013000D01*
X38213155Y51013000D01*
X38239691Y50986464D01*
X38363042Y50904043D01*
X32725599Y45266600D01*
X11912401Y45266600D01*
X16935401Y50289600D01*
X26113269Y50289600D01*
X26141600Y50286810D01*
X26169931Y50289600D01*
X26169936Y50289600D01*
X26199645Y50292526D01*
X26254711Y50297949D01*
X26299370Y50311497D01*
X26363476Y50330943D01*
X26463715Y50384521D01*
X26551574Y50456626D01*
X26569639Y50478638D01*
X27361694Y51270693D01*
X27787500Y51270693D01*
X27927342Y51284466D01*
X28061810Y51325257D01*
X28185737Y51391497D01*
X28294359Y51480641D01*
X28383503Y51589263D01*
X28414898Y51648000D01*
X29710102Y51648000D01*
X29741497Y51589263D01*
X29830641Y51480641D01*
X29939263Y51391497D01*
X30063190Y51325257D01*
X30197658Y51284466D01*
X30337500Y51270693D01*
X30912500Y51270693D01*
X31052342Y51284466D01*
X31186810Y51325257D01*
X31310737Y51391497D01*
X31419359Y51480641D01*
X31500000Y51578902D01*
X31580641Y51480641D01*
X31689263Y51391497D01*
X31813190Y51325257D01*
X31947658Y51284466D01*
X32087500Y51270693D01*
X32662500Y51270693D01*
X32802342Y51284466D01*
X32936810Y51325257D01*
X33060737Y51391497D01*
X33169359Y51480641D01*
X33258503Y51589263D01*
X33324743Y51713190D01*
X33335909Y51750000D01*
X34461928Y51750000D01*
X34474188Y51625518D01*
X34510498Y51505820D01*
X34569463Y51395506D01*
X34648815Y51298815D01*
X34745506Y51219463D01*
X34855820Y51160498D01*
X34975518Y51124188D01*
X35100000Y51111928D01*
X35339250Y51115000D01*
X35498000Y51273750D01*
X35498000Y52098000D01*
X34623750Y52098000D01*
X34465000Y51939250D01*
X34461928Y51750000D01*
X33335909Y51750000D01*
X33365534Y51847658D01*
X33379307Y51987500D01*
X33379307Y52462500D01*
X33365534Y52602342D01*
X33335910Y52700000D01*
X34461928Y52700000D01*
X34465000Y52510750D01*
X34623750Y52352000D01*
X35498000Y52352000D01*
X35498000Y53176250D01*
X35339250Y53335000D01*
X35100000Y53338072D01*
X34975518Y53325812D01*
X34855820Y53289502D01*
X34745506Y53230537D01*
X34648815Y53151185D01*
X34569463Y53054494D01*
X34510498Y52944180D01*
X34474188Y52824482D01*
X34461928Y52700000D01*
X33335910Y52700000D01*
X33324743Y52736810D01*
X33258503Y52860737D01*
X33169359Y52969359D01*
X33060737Y53058503D01*
X32952000Y53116624D01*
X32952000Y53141799D01*
X33193701Y53383500D01*
X43522499Y53383500D01*
X43073207Y52934208D01*
X43073207Y52934208D01*
G37*
X43073207Y52934208D02*
X43044359Y52969359D01*
X42935737Y53058503D01*
X42811810Y53124743D01*
X42677342Y53165534D01*
X42537500Y53179307D01*
X41962500Y53179307D01*
X41822658Y53165534D01*
X41688190Y53124743D01*
X41564263Y53058503D01*
X41455641Y52969359D01*
X41375000Y52871098D01*
X41294359Y52969359D01*
X41185737Y53058503D01*
X41061810Y53124743D01*
X40927342Y53165534D01*
X40787500Y53179307D01*
X40212500Y53179307D01*
X40072658Y53165534D01*
X39938190Y53124743D01*
X39814263Y53058503D01*
X39705641Y52969359D01*
X39616497Y52860737D01*
X39550257Y52736810D01*
X39509466Y52602342D01*
X39495693Y52462500D01*
X39495693Y52036694D01*
X39420957Y51961958D01*
X39338536Y52085309D01*
X39230309Y52193536D01*
X39103048Y52278569D01*
X38961643Y52337141D01*
X38811528Y52367000D01*
X38658472Y52367000D01*
X38508357Y52337141D01*
X38379307Y52283687D01*
X38379307Y52462500D01*
X38365534Y52602342D01*
X38324743Y52736810D01*
X38258503Y52860737D01*
X38169359Y52969359D01*
X38060737Y53058503D01*
X37936810Y53124743D01*
X37802342Y53165534D01*
X37662500Y53179307D01*
X37087500Y53179307D01*
X36947658Y53165534D01*
X36813190Y53124743D01*
X36689263Y53058503D01*
X36681708Y53052303D01*
X36680537Y53054494D01*
X36601185Y53151185D01*
X36504494Y53230537D01*
X36394180Y53289502D01*
X36274482Y53325812D01*
X36150000Y53338072D01*
X35910750Y53335000D01*
X35752000Y53176250D01*
X35752000Y52352000D01*
X35772000Y52352000D01*
X35772000Y52098000D01*
X35752000Y52098000D01*
X35752000Y51273750D01*
X35910750Y51115000D01*
X36150000Y51111928D01*
X36274482Y51124188D01*
X36394180Y51160498D01*
X36504494Y51219463D01*
X36601185Y51298815D01*
X36680537Y51395506D01*
X36681708Y51397697D01*
X36689263Y51391497D01*
X36813190Y51325257D01*
X36947658Y51284466D01*
X37087500Y51270693D01*
X37513306Y51270693D01*
X37581961Y51202038D01*
X37600026Y51180026D01*
X37687885Y51107921D01*
X37788124Y51054343D01*
X37832782Y51040796D01*
X37896888Y51021349D01*
X38010000Y51010209D01*
X38038339Y51013000D01*
X38213155Y51013000D01*
X38239691Y50986464D01*
X38363042Y50904043D01*
X32725599Y45266600D01*
X11912401Y45266600D01*
X16935401Y50289600D01*
X26113269Y50289600D01*
X26141600Y50286810D01*
X26169931Y50289600D01*
X26169936Y50289600D01*
X26199645Y50292526D01*
X26254711Y50297949D01*
X26299370Y50311497D01*
X26363476Y50330943D01*
X26463715Y50384521D01*
X26551574Y50456626D01*
X26569639Y50478638D01*
X27361694Y51270693D01*
X27787500Y51270693D01*
X27927342Y51284466D01*
X28061810Y51325257D01*
X28185737Y51391497D01*
X28294359Y51480641D01*
X28383503Y51589263D01*
X28414898Y51648000D01*
X29710102Y51648000D01*
X29741497Y51589263D01*
X29830641Y51480641D01*
X29939263Y51391497D01*
X30063190Y51325257D01*
X30197658Y51284466D01*
X30337500Y51270693D01*
X30912500Y51270693D01*
X31052342Y51284466D01*
X31186810Y51325257D01*
X31310737Y51391497D01*
X31419359Y51480641D01*
X31500000Y51578902D01*
X31580641Y51480641D01*
X31689263Y51391497D01*
X31813190Y51325257D01*
X31947658Y51284466D01*
X32087500Y51270693D01*
X32662500Y51270693D01*
X32802342Y51284466D01*
X32936810Y51325257D01*
X33060737Y51391497D01*
X33169359Y51480641D01*
X33258503Y51589263D01*
X33324743Y51713190D01*
X33335909Y51750000D01*
X34461928Y51750000D01*
X34474188Y51625518D01*
X34510498Y51505820D01*
X34569463Y51395506D01*
X34648815Y51298815D01*
X34745506Y51219463D01*
X34855820Y51160498D01*
X34975518Y51124188D01*
X35100000Y51111928D01*
X35339250Y51115000D01*
X35498000Y51273750D01*
X35498000Y52098000D01*
X34623750Y52098000D01*
X34465000Y51939250D01*
X34461928Y51750000D01*
X33335909Y51750000D01*
X33365534Y51847658D01*
X33379307Y51987500D01*
X33379307Y52462500D01*
X33365534Y52602342D01*
X33335910Y52700000D01*
X34461928Y52700000D01*
X34465000Y52510750D01*
X34623750Y52352000D01*
X35498000Y52352000D01*
X35498000Y53176250D01*
X35339250Y53335000D01*
X35100000Y53338072D01*
X34975518Y53325812D01*
X34855820Y53289502D01*
X34745506Y53230537D01*
X34648815Y53151185D01*
X34569463Y53054494D01*
X34510498Y52944180D01*
X34474188Y52824482D01*
X34461928Y52700000D01*
X33335910Y52700000D01*
X33324743Y52736810D01*
X33258503Y52860737D01*
X33169359Y52969359D01*
X33060737Y53058503D01*
X32952000Y53116624D01*
X32952000Y53141799D01*
X33193701Y53383500D01*
X43522499Y53383500D01*
X43073207Y52934208D01*
M02*
