G04 #@! TF.GenerationSoftware,KiCad,Pcbnew,(5.1.4-0)*
G04 #@! TF.CreationDate,2019-09-26T23:54:48+09:00*
G04 #@! TF.ProjectId,PiRoombaBoard_ALL,5069526f-6f6d-4626-9142-6f6172645f41,1*
G04 #@! TF.SameCoordinates,PX490d2c0PY808e280*
G04 #@! TF.FileFunction,Copper,L2,Bot*
G04 #@! TF.FilePolarity,Positive*
%FSLAX46Y46*%
G04 Gerber Fmt 4.6, Leading zero omitted, Abs format (unit mm)*
G04 Created by KiCad (PCBNEW (5.1.4-0)) date 2019-09-26 23:54:48*
%MOMM*%
%LPD*%
G04 APERTURE LIST*
%ADD10C,1.524000*%
%ADD11O,1.700000X1.700000*%
%ADD12R,1.700000X1.700000*%
%ADD13C,0.600000*%
%ADD14C,0.200000*%
%ADD15C,0.254000*%
G04 APERTURE END LIST*
D10*
X15590000Y43195000D03*
X15590000Y38195000D03*
X50590000Y43195000D03*
X50590000Y38195000D03*
D11*
X3015000Y42620000D03*
X5555000Y42620000D03*
X3015000Y40080000D03*
X5555000Y40080000D03*
X3015000Y37540000D03*
X5555000Y37540000D03*
X3015000Y35000000D03*
X5555000Y35000000D03*
X3015000Y32460000D03*
D12*
X5555000Y32460000D03*
D11*
X13970000Y56670000D03*
X16510000Y56670000D03*
X19050000Y56670000D03*
X21590000Y56670000D03*
X24130000Y56670000D03*
D12*
X26670000Y56670000D03*
X5555000Y2460000D03*
D11*
X3015000Y2460000D03*
X5555000Y5000000D03*
X3015000Y5000000D03*
X5555000Y7540000D03*
X3015000Y7540000D03*
X5555000Y10080000D03*
X3015000Y10080000D03*
X5555000Y12620000D03*
X3015000Y12620000D03*
D10*
X50590000Y8195000D03*
X50590000Y13195000D03*
X15590000Y8195000D03*
X15590000Y13195000D03*
D12*
X26670000Y26670000D03*
D11*
X24130000Y26670000D03*
X21590000Y26670000D03*
X19050000Y26670000D03*
X16510000Y26670000D03*
X13970000Y26670000D03*
D13*
X40005000Y20320000D03*
X38735000Y21590000D03*
X40005000Y50320000D03*
X38735000Y51590000D03*
X45085000Y24130000D03*
X43815000Y25400000D03*
X45085000Y54130000D03*
X43815000Y55400000D03*
D14*
X40005000Y20320000D02*
X38735000Y21590000D01*
X40005000Y50320000D02*
X38735000Y51590000D01*
X45085000Y24130000D02*
X43815000Y25400000D01*
X45085000Y54130000D02*
X43815000Y55400000D01*
D15*
G36*
X54373000Y627000D02*
G01*
X627000Y627000D01*
X627000Y7896890D01*
X1573524Y7896890D01*
X1694845Y7667000D01*
X2888000Y7667000D01*
X2888000Y7687000D01*
X3142000Y7687000D01*
X3142000Y7667000D01*
X3162000Y7667000D01*
X3162000Y7413000D01*
X3142000Y7413000D01*
X3142000Y7393000D01*
X2888000Y7393000D01*
X2888000Y7413000D01*
X1694845Y7413000D01*
X1573524Y7183110D01*
X1618175Y7035901D01*
X1743359Y6773080D01*
X1917412Y6539731D01*
X2133645Y6344822D01*
X2383748Y6195843D01*
X2415895Y6184440D01*
X2274192Y6108698D01*
X2072130Y5942870D01*
X1906302Y5740808D01*
X1783081Y5510278D01*
X1707201Y5260137D01*
X1681580Y5000000D01*
X1707201Y4739863D01*
X1783081Y4489722D01*
X1906302Y4259192D01*
X2072130Y4057130D01*
X2274192Y3891302D01*
X2504722Y3768081D01*
X2630257Y3730000D01*
X2504722Y3691919D01*
X2274192Y3568698D01*
X2072130Y3402870D01*
X1906302Y3200808D01*
X1783081Y2970278D01*
X1707201Y2720137D01*
X1681580Y2460000D01*
X1707201Y2199863D01*
X1783081Y1949722D01*
X1906302Y1719192D01*
X2072130Y1517130D01*
X2274192Y1351302D01*
X2504722Y1228081D01*
X2754863Y1152201D01*
X2949816Y1133000D01*
X3080184Y1133000D01*
X3275137Y1152201D01*
X3525278Y1228081D01*
X3755808Y1351302D01*
X3957870Y1517130D01*
X4123698Y1719192D01*
X4225693Y1910011D01*
X4225693Y1610000D01*
X4234903Y1516492D01*
X4262178Y1426577D01*
X4306471Y1343711D01*
X4366079Y1271079D01*
X4438711Y1211471D01*
X4521577Y1167178D01*
X4611492Y1139903D01*
X4705000Y1130693D01*
X6405000Y1130693D01*
X6498508Y1139903D01*
X6588423Y1167178D01*
X6671289Y1211471D01*
X6743921Y1271079D01*
X6803529Y1343711D01*
X6847822Y1426577D01*
X6875097Y1516492D01*
X6884307Y1610000D01*
X6884307Y3310000D01*
X6875097Y3403508D01*
X6847822Y3493423D01*
X6803529Y3576289D01*
X6743921Y3648921D01*
X6671289Y3708529D01*
X6588423Y3752822D01*
X6498508Y3780097D01*
X6405000Y3789307D01*
X6104989Y3789307D01*
X6295808Y3891302D01*
X6497870Y4057130D01*
X6663698Y4259192D01*
X6786919Y4489722D01*
X6862799Y4739863D01*
X6888420Y5000000D01*
X6862799Y5260137D01*
X6786919Y5510278D01*
X6663698Y5740808D01*
X6497870Y5942870D01*
X6295808Y6108698D01*
X6065278Y6231919D01*
X5939743Y6270000D01*
X6065278Y6308081D01*
X6295808Y6431302D01*
X6497870Y6597130D01*
X6663698Y6799192D01*
X6786919Y7029722D01*
X6847501Y7229435D01*
X14804040Y7229435D01*
X14871020Y6989344D01*
X15120048Y6872244D01*
X15387135Y6805977D01*
X15662017Y6793090D01*
X15934133Y6834078D01*
X16193023Y6927364D01*
X16308980Y6989344D01*
X16375960Y7229435D01*
X49804040Y7229435D01*
X49871020Y6989344D01*
X50120048Y6872244D01*
X50387135Y6805977D01*
X50662017Y6793090D01*
X50934133Y6834078D01*
X51193023Y6927364D01*
X51308980Y6989344D01*
X51375960Y7229435D01*
X50590000Y8015395D01*
X49804040Y7229435D01*
X16375960Y7229435D01*
X15590000Y8015395D01*
X14804040Y7229435D01*
X6847501Y7229435D01*
X6862799Y7279863D01*
X6888420Y7540000D01*
X6862799Y7800137D01*
X6786919Y8050278D01*
X6748058Y8122983D01*
X14188090Y8122983D01*
X14229078Y7850867D01*
X14322364Y7591977D01*
X14384344Y7476020D01*
X14624435Y7409040D01*
X15410395Y8195000D01*
X15769605Y8195000D01*
X16555565Y7409040D01*
X16795656Y7476020D01*
X16912756Y7725048D01*
X16979023Y7992135D01*
X16985157Y8122983D01*
X49188090Y8122983D01*
X49229078Y7850867D01*
X49322364Y7591977D01*
X49384344Y7476020D01*
X49624435Y7409040D01*
X50410395Y8195000D01*
X50769605Y8195000D01*
X51555565Y7409040D01*
X51795656Y7476020D01*
X51912756Y7725048D01*
X51979023Y7992135D01*
X51991910Y8267017D01*
X51950922Y8539133D01*
X51857636Y8798023D01*
X51795656Y8913980D01*
X51555565Y8980960D01*
X50769605Y8195000D01*
X50410395Y8195000D01*
X49624435Y8980960D01*
X49384344Y8913980D01*
X49267244Y8664952D01*
X49200977Y8397865D01*
X49188090Y8122983D01*
X16985157Y8122983D01*
X16991910Y8267017D01*
X16950922Y8539133D01*
X16857636Y8798023D01*
X16795656Y8913980D01*
X16555565Y8980960D01*
X15769605Y8195000D01*
X15410395Y8195000D01*
X14624435Y8980960D01*
X14384344Y8913980D01*
X14267244Y8664952D01*
X14200977Y8397865D01*
X14188090Y8122983D01*
X6748058Y8122983D01*
X6663698Y8280808D01*
X6497870Y8482870D01*
X6295808Y8648698D01*
X6065278Y8771919D01*
X5939743Y8810000D01*
X6065278Y8848081D01*
X6295808Y8971302D01*
X6497870Y9137130D01*
X6517102Y9160565D01*
X14804040Y9160565D01*
X15590000Y8374605D01*
X16375960Y9160565D01*
X49804040Y9160565D01*
X50590000Y8374605D01*
X51375960Y9160565D01*
X51308980Y9400656D01*
X51059952Y9517756D01*
X50792865Y9584023D01*
X50517983Y9596910D01*
X50245867Y9555922D01*
X49986977Y9462636D01*
X49871020Y9400656D01*
X49804040Y9160565D01*
X16375960Y9160565D01*
X16308980Y9400656D01*
X16059952Y9517756D01*
X15792865Y9584023D01*
X15517983Y9596910D01*
X15245867Y9555922D01*
X14986977Y9462636D01*
X14871020Y9400656D01*
X14804040Y9160565D01*
X6517102Y9160565D01*
X6663698Y9339192D01*
X6786919Y9569722D01*
X6862799Y9819863D01*
X6888420Y10080000D01*
X6862799Y10340137D01*
X6786919Y10590278D01*
X6663698Y10820808D01*
X6497870Y11022870D01*
X6295808Y11188698D01*
X6154105Y11264440D01*
X6186252Y11275843D01*
X6436355Y11424822D01*
X6652588Y11619731D01*
X6826641Y11853080D01*
X6951825Y12115901D01*
X6996476Y12263110D01*
X6875155Y12493000D01*
X5682000Y12493000D01*
X5682000Y12473000D01*
X5428000Y12473000D01*
X5428000Y12493000D01*
X5408000Y12493000D01*
X5408000Y12747000D01*
X5428000Y12747000D01*
X5428000Y13940814D01*
X5682000Y13940814D01*
X5682000Y12747000D01*
X6875155Y12747000D01*
X6996476Y12976890D01*
X6951825Y13124099D01*
X6859930Y13317031D01*
X14351000Y13317031D01*
X14351000Y13072969D01*
X14398614Y12833597D01*
X14492012Y12608113D01*
X14627606Y12405184D01*
X14800184Y12232606D01*
X15003113Y12097012D01*
X15228597Y12003614D01*
X15467969Y11956000D01*
X15712031Y11956000D01*
X15951403Y12003614D01*
X16176887Y12097012D01*
X16379816Y12232606D01*
X16552394Y12405184D01*
X16687988Y12608113D01*
X16781386Y12833597D01*
X16829000Y13072969D01*
X16829000Y13317031D01*
X49351000Y13317031D01*
X49351000Y13072969D01*
X49398614Y12833597D01*
X49492012Y12608113D01*
X49627606Y12405184D01*
X49800184Y12232606D01*
X50003113Y12097012D01*
X50228597Y12003614D01*
X50467969Y11956000D01*
X50712031Y11956000D01*
X50951403Y12003614D01*
X51176887Y12097012D01*
X51379816Y12232606D01*
X51552394Y12405184D01*
X51687988Y12608113D01*
X51781386Y12833597D01*
X51829000Y13072969D01*
X51829000Y13317031D01*
X51781386Y13556403D01*
X51687988Y13781887D01*
X51552394Y13984816D01*
X51379816Y14157394D01*
X51176887Y14292988D01*
X50951403Y14386386D01*
X50712031Y14434000D01*
X50467969Y14434000D01*
X50228597Y14386386D01*
X50003113Y14292988D01*
X49800184Y14157394D01*
X49627606Y13984816D01*
X49492012Y13781887D01*
X49398614Y13556403D01*
X49351000Y13317031D01*
X16829000Y13317031D01*
X16781386Y13556403D01*
X16687988Y13781887D01*
X16552394Y13984816D01*
X16379816Y14157394D01*
X16176887Y14292988D01*
X15951403Y14386386D01*
X15712031Y14434000D01*
X15467969Y14434000D01*
X15228597Y14386386D01*
X15003113Y14292988D01*
X14800184Y14157394D01*
X14627606Y13984816D01*
X14492012Y13781887D01*
X14398614Y13556403D01*
X14351000Y13317031D01*
X6859930Y13317031D01*
X6826641Y13386920D01*
X6652588Y13620269D01*
X6436355Y13815178D01*
X6186252Y13964157D01*
X5911891Y14061481D01*
X5682000Y13940814D01*
X5428000Y13940814D01*
X5198109Y14061481D01*
X4923748Y13964157D01*
X4673645Y13815178D01*
X4457412Y13620269D01*
X4283359Y13386920D01*
X4201548Y13215160D01*
X4123698Y13360808D01*
X3957870Y13562870D01*
X3755808Y13728698D01*
X3525278Y13851919D01*
X3275137Y13927799D01*
X3080184Y13947000D01*
X2949816Y13947000D01*
X2754863Y13927799D01*
X2504722Y13851919D01*
X2274192Y13728698D01*
X2072130Y13562870D01*
X1906302Y13360808D01*
X1783081Y13130278D01*
X1707201Y12880137D01*
X1681580Y12620000D01*
X1707201Y12359863D01*
X1783081Y12109722D01*
X1906302Y11879192D01*
X2072130Y11677130D01*
X2274192Y11511302D01*
X2504722Y11388081D01*
X2630257Y11350000D01*
X2504722Y11311919D01*
X2274192Y11188698D01*
X2072130Y11022870D01*
X1906302Y10820808D01*
X1783081Y10590278D01*
X1707201Y10340137D01*
X1681580Y10080000D01*
X1707201Y9819863D01*
X1783081Y9569722D01*
X1906302Y9339192D01*
X2072130Y9137130D01*
X2274192Y8971302D01*
X2415895Y8895560D01*
X2383748Y8884157D01*
X2133645Y8735178D01*
X1917412Y8540269D01*
X1743359Y8306920D01*
X1618175Y8044099D01*
X1573524Y7896890D01*
X627000Y7896890D01*
X627000Y14373000D01*
X10500000Y14373000D01*
X10524776Y14375440D01*
X10548601Y14382667D01*
X10570557Y14394403D01*
X10589803Y14410197D01*
X10605597Y14429443D01*
X10617333Y14451399D01*
X10624560Y14475224D01*
X10627000Y14500000D01*
X10627000Y21666528D01*
X37958000Y21666528D01*
X37958000Y21513472D01*
X37987859Y21363357D01*
X38046431Y21221952D01*
X38131464Y21094691D01*
X38239691Y20986464D01*
X38366952Y20901431D01*
X38508357Y20842859D01*
X38658472Y20813000D01*
X38695999Y20813000D01*
X39228000Y20280998D01*
X39228000Y20243472D01*
X39257859Y20093357D01*
X39316431Y19951952D01*
X39401464Y19824691D01*
X39509691Y19716464D01*
X39636952Y19631431D01*
X39778357Y19572859D01*
X39928472Y19543000D01*
X40081528Y19543000D01*
X40231643Y19572859D01*
X40373048Y19631431D01*
X40500309Y19716464D01*
X40608536Y19824691D01*
X40693569Y19951952D01*
X40752141Y20093357D01*
X40782000Y20243472D01*
X40782000Y20396528D01*
X40752141Y20546643D01*
X40693569Y20688048D01*
X40608536Y20815309D01*
X40500309Y20923536D01*
X40373048Y21008569D01*
X40231643Y21067141D01*
X40081528Y21097000D01*
X40044002Y21097000D01*
X39512000Y21629001D01*
X39512000Y21666528D01*
X39482141Y21816643D01*
X39423569Y21958048D01*
X39338536Y22085309D01*
X39230309Y22193536D01*
X39103048Y22278569D01*
X38961643Y22337141D01*
X38811528Y22367000D01*
X38658472Y22367000D01*
X38508357Y22337141D01*
X38366952Y22278569D01*
X38239691Y22193536D01*
X38131464Y22085309D01*
X38046431Y21958048D01*
X37987859Y21816643D01*
X37958000Y21666528D01*
X10627000Y21666528D01*
X10627000Y26313109D01*
X12528519Y26313109D01*
X12625843Y26038748D01*
X12774822Y25788645D01*
X12969731Y25572412D01*
X13203080Y25398359D01*
X13465901Y25273175D01*
X13613110Y25228524D01*
X13843000Y25349845D01*
X13843000Y26543000D01*
X12649186Y26543000D01*
X12528519Y26313109D01*
X10627000Y26313109D01*
X10627000Y27026891D01*
X12528519Y27026891D01*
X12649186Y26797000D01*
X13843000Y26797000D01*
X13843000Y27990155D01*
X14097000Y27990155D01*
X14097000Y26797000D01*
X14117000Y26797000D01*
X14117000Y26543000D01*
X14097000Y26543000D01*
X14097000Y25349845D01*
X14326890Y25228524D01*
X14474099Y25273175D01*
X14736920Y25398359D01*
X14970269Y25572412D01*
X15165178Y25788645D01*
X15314157Y26038748D01*
X15325560Y26070895D01*
X15401302Y25929192D01*
X15567130Y25727130D01*
X15769192Y25561302D01*
X15999722Y25438081D01*
X16249863Y25362201D01*
X16444816Y25343000D01*
X16575184Y25343000D01*
X16770137Y25362201D01*
X17020278Y25438081D01*
X17250808Y25561302D01*
X17452870Y25727130D01*
X17618698Y25929192D01*
X17741919Y26159722D01*
X17780000Y26285257D01*
X17818081Y26159722D01*
X17941302Y25929192D01*
X18107130Y25727130D01*
X18309192Y25561302D01*
X18539722Y25438081D01*
X18789863Y25362201D01*
X18984816Y25343000D01*
X19115184Y25343000D01*
X19310137Y25362201D01*
X19560278Y25438081D01*
X19790808Y25561302D01*
X19992870Y25727130D01*
X20158698Y25929192D01*
X20281919Y26159722D01*
X20320000Y26285257D01*
X20358081Y26159722D01*
X20481302Y25929192D01*
X20647130Y25727130D01*
X20849192Y25561302D01*
X21079722Y25438081D01*
X21329863Y25362201D01*
X21524816Y25343000D01*
X21655184Y25343000D01*
X21850137Y25362201D01*
X22100278Y25438081D01*
X22330808Y25561302D01*
X22532870Y25727130D01*
X22698698Y25929192D01*
X22821919Y26159722D01*
X22860000Y26285257D01*
X22898081Y26159722D01*
X23021302Y25929192D01*
X23187130Y25727130D01*
X23389192Y25561302D01*
X23619722Y25438081D01*
X23869863Y25362201D01*
X24064816Y25343000D01*
X24195184Y25343000D01*
X24390137Y25362201D01*
X24640278Y25438081D01*
X24870808Y25561302D01*
X25072870Y25727130D01*
X25238698Y25929192D01*
X25340693Y26120011D01*
X25340693Y25820000D01*
X25349903Y25726492D01*
X25377178Y25636577D01*
X25421471Y25553711D01*
X25481079Y25481079D01*
X25553711Y25421471D01*
X25636577Y25377178D01*
X25726492Y25349903D01*
X25820000Y25340693D01*
X27520000Y25340693D01*
X27613508Y25349903D01*
X27703423Y25377178D01*
X27786289Y25421471D01*
X27853375Y25476528D01*
X43038000Y25476528D01*
X43038000Y25323472D01*
X43067859Y25173357D01*
X43126431Y25031952D01*
X43211464Y24904691D01*
X43319691Y24796464D01*
X43446952Y24711431D01*
X43588357Y24652859D01*
X43738472Y24623000D01*
X43775999Y24623000D01*
X44308000Y24090998D01*
X44308000Y24053472D01*
X44337859Y23903357D01*
X44396431Y23761952D01*
X44481464Y23634691D01*
X44589691Y23526464D01*
X44716952Y23441431D01*
X44858357Y23382859D01*
X45008472Y23353000D01*
X45161528Y23353000D01*
X45311643Y23382859D01*
X45453048Y23441431D01*
X45580309Y23526464D01*
X45688536Y23634691D01*
X45773569Y23761952D01*
X45832141Y23903357D01*
X45862000Y24053472D01*
X45862000Y24206528D01*
X45832141Y24356643D01*
X45773569Y24498048D01*
X45688536Y24625309D01*
X45580309Y24733536D01*
X45453048Y24818569D01*
X45311643Y24877141D01*
X45161528Y24907000D01*
X45124002Y24907000D01*
X44592000Y25439001D01*
X44592000Y25476528D01*
X44562141Y25626643D01*
X44503569Y25768048D01*
X44418536Y25895309D01*
X44310309Y26003536D01*
X44183048Y26088569D01*
X44041643Y26147141D01*
X43891528Y26177000D01*
X43738472Y26177000D01*
X43588357Y26147141D01*
X43446952Y26088569D01*
X43319691Y26003536D01*
X43211464Y25895309D01*
X43126431Y25768048D01*
X43067859Y25626643D01*
X43038000Y25476528D01*
X27853375Y25476528D01*
X27858921Y25481079D01*
X27918529Y25553711D01*
X27962822Y25636577D01*
X27990097Y25726492D01*
X27999307Y25820000D01*
X27999307Y27520000D01*
X27990097Y27613508D01*
X27962822Y27703423D01*
X27918529Y27786289D01*
X27858921Y27858921D01*
X27786289Y27918529D01*
X27703423Y27962822D01*
X27613508Y27990097D01*
X27520000Y27999307D01*
X25820000Y27999307D01*
X25726492Y27990097D01*
X25636577Y27962822D01*
X25553711Y27918529D01*
X25481079Y27858921D01*
X25421471Y27786289D01*
X25377178Y27703423D01*
X25349903Y27613508D01*
X25340693Y27520000D01*
X25340693Y27219989D01*
X25238698Y27410808D01*
X25072870Y27612870D01*
X24870808Y27778698D01*
X24640278Y27901919D01*
X24390137Y27977799D01*
X24195184Y27997000D01*
X24064816Y27997000D01*
X23869863Y27977799D01*
X23619722Y27901919D01*
X23389192Y27778698D01*
X23187130Y27612870D01*
X23021302Y27410808D01*
X22898081Y27180278D01*
X22860000Y27054743D01*
X22821919Y27180278D01*
X22698698Y27410808D01*
X22532870Y27612870D01*
X22330808Y27778698D01*
X22100278Y27901919D01*
X21850137Y27977799D01*
X21655184Y27997000D01*
X21524816Y27997000D01*
X21329863Y27977799D01*
X21079722Y27901919D01*
X20849192Y27778698D01*
X20647130Y27612870D01*
X20481302Y27410808D01*
X20358081Y27180278D01*
X20320000Y27054743D01*
X20281919Y27180278D01*
X20158698Y27410808D01*
X19992870Y27612870D01*
X19790808Y27778698D01*
X19560278Y27901919D01*
X19310137Y27977799D01*
X19115184Y27997000D01*
X18984816Y27997000D01*
X18789863Y27977799D01*
X18539722Y27901919D01*
X18309192Y27778698D01*
X18107130Y27612870D01*
X17941302Y27410808D01*
X17818081Y27180278D01*
X17780000Y27054743D01*
X17741919Y27180278D01*
X17618698Y27410808D01*
X17452870Y27612870D01*
X17250808Y27778698D01*
X17020278Y27901919D01*
X16770137Y27977799D01*
X16575184Y27997000D01*
X16444816Y27997000D01*
X16249863Y27977799D01*
X15999722Y27901919D01*
X15769192Y27778698D01*
X15567130Y27612870D01*
X15401302Y27410808D01*
X15325560Y27269105D01*
X15314157Y27301252D01*
X15165178Y27551355D01*
X14970269Y27767588D01*
X14736920Y27941641D01*
X14474099Y28066825D01*
X14326890Y28111476D01*
X14097000Y27990155D01*
X13843000Y27990155D01*
X13613110Y28111476D01*
X13465901Y28066825D01*
X13203080Y27941641D01*
X12969731Y27767588D01*
X12774822Y27551355D01*
X12625843Y27301252D01*
X12528519Y27026891D01*
X10627000Y27026891D01*
X10627000Y29373000D01*
X54373000Y29373000D01*
X54373000Y627000D01*
X54373000Y627000D01*
G37*
X54373000Y627000D02*
X627000Y627000D01*
X627000Y7896890D01*
X1573524Y7896890D01*
X1694845Y7667000D01*
X2888000Y7667000D01*
X2888000Y7687000D01*
X3142000Y7687000D01*
X3142000Y7667000D01*
X3162000Y7667000D01*
X3162000Y7413000D01*
X3142000Y7413000D01*
X3142000Y7393000D01*
X2888000Y7393000D01*
X2888000Y7413000D01*
X1694845Y7413000D01*
X1573524Y7183110D01*
X1618175Y7035901D01*
X1743359Y6773080D01*
X1917412Y6539731D01*
X2133645Y6344822D01*
X2383748Y6195843D01*
X2415895Y6184440D01*
X2274192Y6108698D01*
X2072130Y5942870D01*
X1906302Y5740808D01*
X1783081Y5510278D01*
X1707201Y5260137D01*
X1681580Y5000000D01*
X1707201Y4739863D01*
X1783081Y4489722D01*
X1906302Y4259192D01*
X2072130Y4057130D01*
X2274192Y3891302D01*
X2504722Y3768081D01*
X2630257Y3730000D01*
X2504722Y3691919D01*
X2274192Y3568698D01*
X2072130Y3402870D01*
X1906302Y3200808D01*
X1783081Y2970278D01*
X1707201Y2720137D01*
X1681580Y2460000D01*
X1707201Y2199863D01*
X1783081Y1949722D01*
X1906302Y1719192D01*
X2072130Y1517130D01*
X2274192Y1351302D01*
X2504722Y1228081D01*
X2754863Y1152201D01*
X2949816Y1133000D01*
X3080184Y1133000D01*
X3275137Y1152201D01*
X3525278Y1228081D01*
X3755808Y1351302D01*
X3957870Y1517130D01*
X4123698Y1719192D01*
X4225693Y1910011D01*
X4225693Y1610000D01*
X4234903Y1516492D01*
X4262178Y1426577D01*
X4306471Y1343711D01*
X4366079Y1271079D01*
X4438711Y1211471D01*
X4521577Y1167178D01*
X4611492Y1139903D01*
X4705000Y1130693D01*
X6405000Y1130693D01*
X6498508Y1139903D01*
X6588423Y1167178D01*
X6671289Y1211471D01*
X6743921Y1271079D01*
X6803529Y1343711D01*
X6847822Y1426577D01*
X6875097Y1516492D01*
X6884307Y1610000D01*
X6884307Y3310000D01*
X6875097Y3403508D01*
X6847822Y3493423D01*
X6803529Y3576289D01*
X6743921Y3648921D01*
X6671289Y3708529D01*
X6588423Y3752822D01*
X6498508Y3780097D01*
X6405000Y3789307D01*
X6104989Y3789307D01*
X6295808Y3891302D01*
X6497870Y4057130D01*
X6663698Y4259192D01*
X6786919Y4489722D01*
X6862799Y4739863D01*
X6888420Y5000000D01*
X6862799Y5260137D01*
X6786919Y5510278D01*
X6663698Y5740808D01*
X6497870Y5942870D01*
X6295808Y6108698D01*
X6065278Y6231919D01*
X5939743Y6270000D01*
X6065278Y6308081D01*
X6295808Y6431302D01*
X6497870Y6597130D01*
X6663698Y6799192D01*
X6786919Y7029722D01*
X6847501Y7229435D01*
X14804040Y7229435D01*
X14871020Y6989344D01*
X15120048Y6872244D01*
X15387135Y6805977D01*
X15662017Y6793090D01*
X15934133Y6834078D01*
X16193023Y6927364D01*
X16308980Y6989344D01*
X16375960Y7229435D01*
X49804040Y7229435D01*
X49871020Y6989344D01*
X50120048Y6872244D01*
X50387135Y6805977D01*
X50662017Y6793090D01*
X50934133Y6834078D01*
X51193023Y6927364D01*
X51308980Y6989344D01*
X51375960Y7229435D01*
X50590000Y8015395D01*
X49804040Y7229435D01*
X16375960Y7229435D01*
X15590000Y8015395D01*
X14804040Y7229435D01*
X6847501Y7229435D01*
X6862799Y7279863D01*
X6888420Y7540000D01*
X6862799Y7800137D01*
X6786919Y8050278D01*
X6748058Y8122983D01*
X14188090Y8122983D01*
X14229078Y7850867D01*
X14322364Y7591977D01*
X14384344Y7476020D01*
X14624435Y7409040D01*
X15410395Y8195000D01*
X15769605Y8195000D01*
X16555565Y7409040D01*
X16795656Y7476020D01*
X16912756Y7725048D01*
X16979023Y7992135D01*
X16985157Y8122983D01*
X49188090Y8122983D01*
X49229078Y7850867D01*
X49322364Y7591977D01*
X49384344Y7476020D01*
X49624435Y7409040D01*
X50410395Y8195000D01*
X50769605Y8195000D01*
X51555565Y7409040D01*
X51795656Y7476020D01*
X51912756Y7725048D01*
X51979023Y7992135D01*
X51991910Y8267017D01*
X51950922Y8539133D01*
X51857636Y8798023D01*
X51795656Y8913980D01*
X51555565Y8980960D01*
X50769605Y8195000D01*
X50410395Y8195000D01*
X49624435Y8980960D01*
X49384344Y8913980D01*
X49267244Y8664952D01*
X49200977Y8397865D01*
X49188090Y8122983D01*
X16985157Y8122983D01*
X16991910Y8267017D01*
X16950922Y8539133D01*
X16857636Y8798023D01*
X16795656Y8913980D01*
X16555565Y8980960D01*
X15769605Y8195000D01*
X15410395Y8195000D01*
X14624435Y8980960D01*
X14384344Y8913980D01*
X14267244Y8664952D01*
X14200977Y8397865D01*
X14188090Y8122983D01*
X6748058Y8122983D01*
X6663698Y8280808D01*
X6497870Y8482870D01*
X6295808Y8648698D01*
X6065278Y8771919D01*
X5939743Y8810000D01*
X6065278Y8848081D01*
X6295808Y8971302D01*
X6497870Y9137130D01*
X6517102Y9160565D01*
X14804040Y9160565D01*
X15590000Y8374605D01*
X16375960Y9160565D01*
X49804040Y9160565D01*
X50590000Y8374605D01*
X51375960Y9160565D01*
X51308980Y9400656D01*
X51059952Y9517756D01*
X50792865Y9584023D01*
X50517983Y9596910D01*
X50245867Y9555922D01*
X49986977Y9462636D01*
X49871020Y9400656D01*
X49804040Y9160565D01*
X16375960Y9160565D01*
X16308980Y9400656D01*
X16059952Y9517756D01*
X15792865Y9584023D01*
X15517983Y9596910D01*
X15245867Y9555922D01*
X14986977Y9462636D01*
X14871020Y9400656D01*
X14804040Y9160565D01*
X6517102Y9160565D01*
X6663698Y9339192D01*
X6786919Y9569722D01*
X6862799Y9819863D01*
X6888420Y10080000D01*
X6862799Y10340137D01*
X6786919Y10590278D01*
X6663698Y10820808D01*
X6497870Y11022870D01*
X6295808Y11188698D01*
X6154105Y11264440D01*
X6186252Y11275843D01*
X6436355Y11424822D01*
X6652588Y11619731D01*
X6826641Y11853080D01*
X6951825Y12115901D01*
X6996476Y12263110D01*
X6875155Y12493000D01*
X5682000Y12493000D01*
X5682000Y12473000D01*
X5428000Y12473000D01*
X5428000Y12493000D01*
X5408000Y12493000D01*
X5408000Y12747000D01*
X5428000Y12747000D01*
X5428000Y13940814D01*
X5682000Y13940814D01*
X5682000Y12747000D01*
X6875155Y12747000D01*
X6996476Y12976890D01*
X6951825Y13124099D01*
X6859930Y13317031D01*
X14351000Y13317031D01*
X14351000Y13072969D01*
X14398614Y12833597D01*
X14492012Y12608113D01*
X14627606Y12405184D01*
X14800184Y12232606D01*
X15003113Y12097012D01*
X15228597Y12003614D01*
X15467969Y11956000D01*
X15712031Y11956000D01*
X15951403Y12003614D01*
X16176887Y12097012D01*
X16379816Y12232606D01*
X16552394Y12405184D01*
X16687988Y12608113D01*
X16781386Y12833597D01*
X16829000Y13072969D01*
X16829000Y13317031D01*
X49351000Y13317031D01*
X49351000Y13072969D01*
X49398614Y12833597D01*
X49492012Y12608113D01*
X49627606Y12405184D01*
X49800184Y12232606D01*
X50003113Y12097012D01*
X50228597Y12003614D01*
X50467969Y11956000D01*
X50712031Y11956000D01*
X50951403Y12003614D01*
X51176887Y12097012D01*
X51379816Y12232606D01*
X51552394Y12405184D01*
X51687988Y12608113D01*
X51781386Y12833597D01*
X51829000Y13072969D01*
X51829000Y13317031D01*
X51781386Y13556403D01*
X51687988Y13781887D01*
X51552394Y13984816D01*
X51379816Y14157394D01*
X51176887Y14292988D01*
X50951403Y14386386D01*
X50712031Y14434000D01*
X50467969Y14434000D01*
X50228597Y14386386D01*
X50003113Y14292988D01*
X49800184Y14157394D01*
X49627606Y13984816D01*
X49492012Y13781887D01*
X49398614Y13556403D01*
X49351000Y13317031D01*
X16829000Y13317031D01*
X16781386Y13556403D01*
X16687988Y13781887D01*
X16552394Y13984816D01*
X16379816Y14157394D01*
X16176887Y14292988D01*
X15951403Y14386386D01*
X15712031Y14434000D01*
X15467969Y14434000D01*
X15228597Y14386386D01*
X15003113Y14292988D01*
X14800184Y14157394D01*
X14627606Y13984816D01*
X14492012Y13781887D01*
X14398614Y13556403D01*
X14351000Y13317031D01*
X6859930Y13317031D01*
X6826641Y13386920D01*
X6652588Y13620269D01*
X6436355Y13815178D01*
X6186252Y13964157D01*
X5911891Y14061481D01*
X5682000Y13940814D01*
X5428000Y13940814D01*
X5198109Y14061481D01*
X4923748Y13964157D01*
X4673645Y13815178D01*
X4457412Y13620269D01*
X4283359Y13386920D01*
X4201548Y13215160D01*
X4123698Y13360808D01*
X3957870Y13562870D01*
X3755808Y13728698D01*
X3525278Y13851919D01*
X3275137Y13927799D01*
X3080184Y13947000D01*
X2949816Y13947000D01*
X2754863Y13927799D01*
X2504722Y13851919D01*
X2274192Y13728698D01*
X2072130Y13562870D01*
X1906302Y13360808D01*
X1783081Y13130278D01*
X1707201Y12880137D01*
X1681580Y12620000D01*
X1707201Y12359863D01*
X1783081Y12109722D01*
X1906302Y11879192D01*
X2072130Y11677130D01*
X2274192Y11511302D01*
X2504722Y11388081D01*
X2630257Y11350000D01*
X2504722Y11311919D01*
X2274192Y11188698D01*
X2072130Y11022870D01*
X1906302Y10820808D01*
X1783081Y10590278D01*
X1707201Y10340137D01*
X1681580Y10080000D01*
X1707201Y9819863D01*
X1783081Y9569722D01*
X1906302Y9339192D01*
X2072130Y9137130D01*
X2274192Y8971302D01*
X2415895Y8895560D01*
X2383748Y8884157D01*
X2133645Y8735178D01*
X1917412Y8540269D01*
X1743359Y8306920D01*
X1618175Y8044099D01*
X1573524Y7896890D01*
X627000Y7896890D01*
X627000Y14373000D01*
X10500000Y14373000D01*
X10524776Y14375440D01*
X10548601Y14382667D01*
X10570557Y14394403D01*
X10589803Y14410197D01*
X10605597Y14429443D01*
X10617333Y14451399D01*
X10624560Y14475224D01*
X10627000Y14500000D01*
X10627000Y21666528D01*
X37958000Y21666528D01*
X37958000Y21513472D01*
X37987859Y21363357D01*
X38046431Y21221952D01*
X38131464Y21094691D01*
X38239691Y20986464D01*
X38366952Y20901431D01*
X38508357Y20842859D01*
X38658472Y20813000D01*
X38695999Y20813000D01*
X39228000Y20280998D01*
X39228000Y20243472D01*
X39257859Y20093357D01*
X39316431Y19951952D01*
X39401464Y19824691D01*
X39509691Y19716464D01*
X39636952Y19631431D01*
X39778357Y19572859D01*
X39928472Y19543000D01*
X40081528Y19543000D01*
X40231643Y19572859D01*
X40373048Y19631431D01*
X40500309Y19716464D01*
X40608536Y19824691D01*
X40693569Y19951952D01*
X40752141Y20093357D01*
X40782000Y20243472D01*
X40782000Y20396528D01*
X40752141Y20546643D01*
X40693569Y20688048D01*
X40608536Y20815309D01*
X40500309Y20923536D01*
X40373048Y21008569D01*
X40231643Y21067141D01*
X40081528Y21097000D01*
X40044002Y21097000D01*
X39512000Y21629001D01*
X39512000Y21666528D01*
X39482141Y21816643D01*
X39423569Y21958048D01*
X39338536Y22085309D01*
X39230309Y22193536D01*
X39103048Y22278569D01*
X38961643Y22337141D01*
X38811528Y22367000D01*
X38658472Y22367000D01*
X38508357Y22337141D01*
X38366952Y22278569D01*
X38239691Y22193536D01*
X38131464Y22085309D01*
X38046431Y21958048D01*
X37987859Y21816643D01*
X37958000Y21666528D01*
X10627000Y21666528D01*
X10627000Y26313109D01*
X12528519Y26313109D01*
X12625843Y26038748D01*
X12774822Y25788645D01*
X12969731Y25572412D01*
X13203080Y25398359D01*
X13465901Y25273175D01*
X13613110Y25228524D01*
X13843000Y25349845D01*
X13843000Y26543000D01*
X12649186Y26543000D01*
X12528519Y26313109D01*
X10627000Y26313109D01*
X10627000Y27026891D01*
X12528519Y27026891D01*
X12649186Y26797000D01*
X13843000Y26797000D01*
X13843000Y27990155D01*
X14097000Y27990155D01*
X14097000Y26797000D01*
X14117000Y26797000D01*
X14117000Y26543000D01*
X14097000Y26543000D01*
X14097000Y25349845D01*
X14326890Y25228524D01*
X14474099Y25273175D01*
X14736920Y25398359D01*
X14970269Y25572412D01*
X15165178Y25788645D01*
X15314157Y26038748D01*
X15325560Y26070895D01*
X15401302Y25929192D01*
X15567130Y25727130D01*
X15769192Y25561302D01*
X15999722Y25438081D01*
X16249863Y25362201D01*
X16444816Y25343000D01*
X16575184Y25343000D01*
X16770137Y25362201D01*
X17020278Y25438081D01*
X17250808Y25561302D01*
X17452870Y25727130D01*
X17618698Y25929192D01*
X17741919Y26159722D01*
X17780000Y26285257D01*
X17818081Y26159722D01*
X17941302Y25929192D01*
X18107130Y25727130D01*
X18309192Y25561302D01*
X18539722Y25438081D01*
X18789863Y25362201D01*
X18984816Y25343000D01*
X19115184Y25343000D01*
X19310137Y25362201D01*
X19560278Y25438081D01*
X19790808Y25561302D01*
X19992870Y25727130D01*
X20158698Y25929192D01*
X20281919Y26159722D01*
X20320000Y26285257D01*
X20358081Y26159722D01*
X20481302Y25929192D01*
X20647130Y25727130D01*
X20849192Y25561302D01*
X21079722Y25438081D01*
X21329863Y25362201D01*
X21524816Y25343000D01*
X21655184Y25343000D01*
X21850137Y25362201D01*
X22100278Y25438081D01*
X22330808Y25561302D01*
X22532870Y25727130D01*
X22698698Y25929192D01*
X22821919Y26159722D01*
X22860000Y26285257D01*
X22898081Y26159722D01*
X23021302Y25929192D01*
X23187130Y25727130D01*
X23389192Y25561302D01*
X23619722Y25438081D01*
X23869863Y25362201D01*
X24064816Y25343000D01*
X24195184Y25343000D01*
X24390137Y25362201D01*
X24640278Y25438081D01*
X24870808Y25561302D01*
X25072870Y25727130D01*
X25238698Y25929192D01*
X25340693Y26120011D01*
X25340693Y25820000D01*
X25349903Y25726492D01*
X25377178Y25636577D01*
X25421471Y25553711D01*
X25481079Y25481079D01*
X25553711Y25421471D01*
X25636577Y25377178D01*
X25726492Y25349903D01*
X25820000Y25340693D01*
X27520000Y25340693D01*
X27613508Y25349903D01*
X27703423Y25377178D01*
X27786289Y25421471D01*
X27853375Y25476528D01*
X43038000Y25476528D01*
X43038000Y25323472D01*
X43067859Y25173357D01*
X43126431Y25031952D01*
X43211464Y24904691D01*
X43319691Y24796464D01*
X43446952Y24711431D01*
X43588357Y24652859D01*
X43738472Y24623000D01*
X43775999Y24623000D01*
X44308000Y24090998D01*
X44308000Y24053472D01*
X44337859Y23903357D01*
X44396431Y23761952D01*
X44481464Y23634691D01*
X44589691Y23526464D01*
X44716952Y23441431D01*
X44858357Y23382859D01*
X45008472Y23353000D01*
X45161528Y23353000D01*
X45311643Y23382859D01*
X45453048Y23441431D01*
X45580309Y23526464D01*
X45688536Y23634691D01*
X45773569Y23761952D01*
X45832141Y23903357D01*
X45862000Y24053472D01*
X45862000Y24206528D01*
X45832141Y24356643D01*
X45773569Y24498048D01*
X45688536Y24625309D01*
X45580309Y24733536D01*
X45453048Y24818569D01*
X45311643Y24877141D01*
X45161528Y24907000D01*
X45124002Y24907000D01*
X44592000Y25439001D01*
X44592000Y25476528D01*
X44562141Y25626643D01*
X44503569Y25768048D01*
X44418536Y25895309D01*
X44310309Y26003536D01*
X44183048Y26088569D01*
X44041643Y26147141D01*
X43891528Y26177000D01*
X43738472Y26177000D01*
X43588357Y26147141D01*
X43446952Y26088569D01*
X43319691Y26003536D01*
X43211464Y25895309D01*
X43126431Y25768048D01*
X43067859Y25626643D01*
X43038000Y25476528D01*
X27853375Y25476528D01*
X27858921Y25481079D01*
X27918529Y25553711D01*
X27962822Y25636577D01*
X27990097Y25726492D01*
X27999307Y25820000D01*
X27999307Y27520000D01*
X27990097Y27613508D01*
X27962822Y27703423D01*
X27918529Y27786289D01*
X27858921Y27858921D01*
X27786289Y27918529D01*
X27703423Y27962822D01*
X27613508Y27990097D01*
X27520000Y27999307D01*
X25820000Y27999307D01*
X25726492Y27990097D01*
X25636577Y27962822D01*
X25553711Y27918529D01*
X25481079Y27858921D01*
X25421471Y27786289D01*
X25377178Y27703423D01*
X25349903Y27613508D01*
X25340693Y27520000D01*
X25340693Y27219989D01*
X25238698Y27410808D01*
X25072870Y27612870D01*
X24870808Y27778698D01*
X24640278Y27901919D01*
X24390137Y27977799D01*
X24195184Y27997000D01*
X24064816Y27997000D01*
X23869863Y27977799D01*
X23619722Y27901919D01*
X23389192Y27778698D01*
X23187130Y27612870D01*
X23021302Y27410808D01*
X22898081Y27180278D01*
X22860000Y27054743D01*
X22821919Y27180278D01*
X22698698Y27410808D01*
X22532870Y27612870D01*
X22330808Y27778698D01*
X22100278Y27901919D01*
X21850137Y27977799D01*
X21655184Y27997000D01*
X21524816Y27997000D01*
X21329863Y27977799D01*
X21079722Y27901919D01*
X20849192Y27778698D01*
X20647130Y27612870D01*
X20481302Y27410808D01*
X20358081Y27180278D01*
X20320000Y27054743D01*
X20281919Y27180278D01*
X20158698Y27410808D01*
X19992870Y27612870D01*
X19790808Y27778698D01*
X19560278Y27901919D01*
X19310137Y27977799D01*
X19115184Y27997000D01*
X18984816Y27997000D01*
X18789863Y27977799D01*
X18539722Y27901919D01*
X18309192Y27778698D01*
X18107130Y27612870D01*
X17941302Y27410808D01*
X17818081Y27180278D01*
X17780000Y27054743D01*
X17741919Y27180278D01*
X17618698Y27410808D01*
X17452870Y27612870D01*
X17250808Y27778698D01*
X17020278Y27901919D01*
X16770137Y27977799D01*
X16575184Y27997000D01*
X16444816Y27997000D01*
X16249863Y27977799D01*
X15999722Y27901919D01*
X15769192Y27778698D01*
X15567130Y27612870D01*
X15401302Y27410808D01*
X15325560Y27269105D01*
X15314157Y27301252D01*
X15165178Y27551355D01*
X14970269Y27767588D01*
X14736920Y27941641D01*
X14474099Y28066825D01*
X14326890Y28111476D01*
X14097000Y27990155D01*
X13843000Y27990155D01*
X13613110Y28111476D01*
X13465901Y28066825D01*
X13203080Y27941641D01*
X12969731Y27767588D01*
X12774822Y27551355D01*
X12625843Y27301252D01*
X12528519Y27026891D01*
X10627000Y27026891D01*
X10627000Y29373000D01*
X54373000Y29373000D01*
X54373000Y627000D01*
G36*
X54373000Y30627000D02*
G01*
X627000Y30627000D01*
X627000Y37896890D01*
X1573524Y37896890D01*
X1694845Y37667000D01*
X2888000Y37667000D01*
X2888000Y37687000D01*
X3142000Y37687000D01*
X3142000Y37667000D01*
X3162000Y37667000D01*
X3162000Y37413000D01*
X3142000Y37413000D01*
X3142000Y37393000D01*
X2888000Y37393000D01*
X2888000Y37413000D01*
X1694845Y37413000D01*
X1573524Y37183110D01*
X1618175Y37035901D01*
X1743359Y36773080D01*
X1917412Y36539731D01*
X2133645Y36344822D01*
X2383748Y36195843D01*
X2415895Y36184440D01*
X2274192Y36108698D01*
X2072130Y35942870D01*
X1906302Y35740808D01*
X1783081Y35510278D01*
X1707201Y35260137D01*
X1681580Y35000000D01*
X1707201Y34739863D01*
X1783081Y34489722D01*
X1906302Y34259192D01*
X2072130Y34057130D01*
X2274192Y33891302D01*
X2504722Y33768081D01*
X2630257Y33730000D01*
X2504722Y33691919D01*
X2274192Y33568698D01*
X2072130Y33402870D01*
X1906302Y33200808D01*
X1783081Y32970278D01*
X1707201Y32720137D01*
X1681580Y32460000D01*
X1707201Y32199863D01*
X1783081Y31949722D01*
X1906302Y31719192D01*
X2072130Y31517130D01*
X2274192Y31351302D01*
X2504722Y31228081D01*
X2754863Y31152201D01*
X2949816Y31133000D01*
X3080184Y31133000D01*
X3275137Y31152201D01*
X3525278Y31228081D01*
X3755808Y31351302D01*
X3957870Y31517130D01*
X4123698Y31719192D01*
X4225693Y31910011D01*
X4225693Y31610000D01*
X4234903Y31516492D01*
X4262178Y31426577D01*
X4306471Y31343711D01*
X4366079Y31271079D01*
X4438711Y31211471D01*
X4521577Y31167178D01*
X4611492Y31139903D01*
X4705000Y31130693D01*
X6405000Y31130693D01*
X6498508Y31139903D01*
X6588423Y31167178D01*
X6671289Y31211471D01*
X6743921Y31271079D01*
X6803529Y31343711D01*
X6847822Y31426577D01*
X6875097Y31516492D01*
X6884307Y31610000D01*
X6884307Y33310000D01*
X6875097Y33403508D01*
X6847822Y33493423D01*
X6803529Y33576289D01*
X6743921Y33648921D01*
X6671289Y33708529D01*
X6588423Y33752822D01*
X6498508Y33780097D01*
X6405000Y33789307D01*
X6104989Y33789307D01*
X6295808Y33891302D01*
X6497870Y34057130D01*
X6663698Y34259192D01*
X6786919Y34489722D01*
X6862799Y34739863D01*
X6888420Y35000000D01*
X6862799Y35260137D01*
X6786919Y35510278D01*
X6663698Y35740808D01*
X6497870Y35942870D01*
X6295808Y36108698D01*
X6065278Y36231919D01*
X5939743Y36270000D01*
X6065278Y36308081D01*
X6295808Y36431302D01*
X6497870Y36597130D01*
X6663698Y36799192D01*
X6786919Y37029722D01*
X6847501Y37229435D01*
X14804040Y37229435D01*
X14871020Y36989344D01*
X15120048Y36872244D01*
X15387135Y36805977D01*
X15662017Y36793090D01*
X15934133Y36834078D01*
X16193023Y36927364D01*
X16308980Y36989344D01*
X16375960Y37229435D01*
X49804040Y37229435D01*
X49871020Y36989344D01*
X50120048Y36872244D01*
X50387135Y36805977D01*
X50662017Y36793090D01*
X50934133Y36834078D01*
X51193023Y36927364D01*
X51308980Y36989344D01*
X51375960Y37229435D01*
X50590000Y38015395D01*
X49804040Y37229435D01*
X16375960Y37229435D01*
X15590000Y38015395D01*
X14804040Y37229435D01*
X6847501Y37229435D01*
X6862799Y37279863D01*
X6888420Y37540000D01*
X6862799Y37800137D01*
X6786919Y38050278D01*
X6748058Y38122983D01*
X14188090Y38122983D01*
X14229078Y37850867D01*
X14322364Y37591977D01*
X14384344Y37476020D01*
X14624435Y37409040D01*
X15410395Y38195000D01*
X15769605Y38195000D01*
X16555565Y37409040D01*
X16795656Y37476020D01*
X16912756Y37725048D01*
X16979023Y37992135D01*
X16985157Y38122983D01*
X49188090Y38122983D01*
X49229078Y37850867D01*
X49322364Y37591977D01*
X49384344Y37476020D01*
X49624435Y37409040D01*
X50410395Y38195000D01*
X50769605Y38195000D01*
X51555565Y37409040D01*
X51795656Y37476020D01*
X51912756Y37725048D01*
X51979023Y37992135D01*
X51991910Y38267017D01*
X51950922Y38539133D01*
X51857636Y38798023D01*
X51795656Y38913980D01*
X51555565Y38980960D01*
X50769605Y38195000D01*
X50410395Y38195000D01*
X49624435Y38980960D01*
X49384344Y38913980D01*
X49267244Y38664952D01*
X49200977Y38397865D01*
X49188090Y38122983D01*
X16985157Y38122983D01*
X16991910Y38267017D01*
X16950922Y38539133D01*
X16857636Y38798023D01*
X16795656Y38913980D01*
X16555565Y38980960D01*
X15769605Y38195000D01*
X15410395Y38195000D01*
X14624435Y38980960D01*
X14384344Y38913980D01*
X14267244Y38664952D01*
X14200977Y38397865D01*
X14188090Y38122983D01*
X6748058Y38122983D01*
X6663698Y38280808D01*
X6497870Y38482870D01*
X6295808Y38648698D01*
X6065278Y38771919D01*
X5939743Y38810000D01*
X6065278Y38848081D01*
X6295808Y38971302D01*
X6497870Y39137130D01*
X6517102Y39160565D01*
X14804040Y39160565D01*
X15590000Y38374605D01*
X16375960Y39160565D01*
X49804040Y39160565D01*
X50590000Y38374605D01*
X51375960Y39160565D01*
X51308980Y39400656D01*
X51059952Y39517756D01*
X50792865Y39584023D01*
X50517983Y39596910D01*
X50245867Y39555922D01*
X49986977Y39462636D01*
X49871020Y39400656D01*
X49804040Y39160565D01*
X16375960Y39160565D01*
X16308980Y39400656D01*
X16059952Y39517756D01*
X15792865Y39584023D01*
X15517983Y39596910D01*
X15245867Y39555922D01*
X14986977Y39462636D01*
X14871020Y39400656D01*
X14804040Y39160565D01*
X6517102Y39160565D01*
X6663698Y39339192D01*
X6786919Y39569722D01*
X6862799Y39819863D01*
X6888420Y40080000D01*
X6862799Y40340137D01*
X6786919Y40590278D01*
X6663698Y40820808D01*
X6497870Y41022870D01*
X6295808Y41188698D01*
X6154105Y41264440D01*
X6186252Y41275843D01*
X6436355Y41424822D01*
X6652588Y41619731D01*
X6826641Y41853080D01*
X6951825Y42115901D01*
X6996476Y42263110D01*
X6875155Y42493000D01*
X5682000Y42493000D01*
X5682000Y42473000D01*
X5428000Y42473000D01*
X5428000Y42493000D01*
X5408000Y42493000D01*
X5408000Y42747000D01*
X5428000Y42747000D01*
X5428000Y43940814D01*
X5682000Y43940814D01*
X5682000Y42747000D01*
X6875155Y42747000D01*
X6996476Y42976890D01*
X6951825Y43124099D01*
X6859930Y43317031D01*
X14351000Y43317031D01*
X14351000Y43072969D01*
X14398614Y42833597D01*
X14492012Y42608113D01*
X14627606Y42405184D01*
X14800184Y42232606D01*
X15003113Y42097012D01*
X15228597Y42003614D01*
X15467969Y41956000D01*
X15712031Y41956000D01*
X15951403Y42003614D01*
X16176887Y42097012D01*
X16379816Y42232606D01*
X16552394Y42405184D01*
X16687988Y42608113D01*
X16781386Y42833597D01*
X16829000Y43072969D01*
X16829000Y43317031D01*
X49351000Y43317031D01*
X49351000Y43072969D01*
X49398614Y42833597D01*
X49492012Y42608113D01*
X49627606Y42405184D01*
X49800184Y42232606D01*
X50003113Y42097012D01*
X50228597Y42003614D01*
X50467969Y41956000D01*
X50712031Y41956000D01*
X50951403Y42003614D01*
X51176887Y42097012D01*
X51379816Y42232606D01*
X51552394Y42405184D01*
X51687988Y42608113D01*
X51781386Y42833597D01*
X51829000Y43072969D01*
X51829000Y43317031D01*
X51781386Y43556403D01*
X51687988Y43781887D01*
X51552394Y43984816D01*
X51379816Y44157394D01*
X51176887Y44292988D01*
X50951403Y44386386D01*
X50712031Y44434000D01*
X50467969Y44434000D01*
X50228597Y44386386D01*
X50003113Y44292988D01*
X49800184Y44157394D01*
X49627606Y43984816D01*
X49492012Y43781887D01*
X49398614Y43556403D01*
X49351000Y43317031D01*
X16829000Y43317031D01*
X16781386Y43556403D01*
X16687988Y43781887D01*
X16552394Y43984816D01*
X16379816Y44157394D01*
X16176887Y44292988D01*
X15951403Y44386386D01*
X15712031Y44434000D01*
X15467969Y44434000D01*
X15228597Y44386386D01*
X15003113Y44292988D01*
X14800184Y44157394D01*
X14627606Y43984816D01*
X14492012Y43781887D01*
X14398614Y43556403D01*
X14351000Y43317031D01*
X6859930Y43317031D01*
X6826641Y43386920D01*
X6652588Y43620269D01*
X6436355Y43815178D01*
X6186252Y43964157D01*
X5911891Y44061481D01*
X5682000Y43940814D01*
X5428000Y43940814D01*
X5198109Y44061481D01*
X4923748Y43964157D01*
X4673645Y43815178D01*
X4457412Y43620269D01*
X4283359Y43386920D01*
X4201548Y43215160D01*
X4123698Y43360808D01*
X3957870Y43562870D01*
X3755808Y43728698D01*
X3525278Y43851919D01*
X3275137Y43927799D01*
X3080184Y43947000D01*
X2949816Y43947000D01*
X2754863Y43927799D01*
X2504722Y43851919D01*
X2274192Y43728698D01*
X2072130Y43562870D01*
X1906302Y43360808D01*
X1783081Y43130278D01*
X1707201Y42880137D01*
X1681580Y42620000D01*
X1707201Y42359863D01*
X1783081Y42109722D01*
X1906302Y41879192D01*
X2072130Y41677130D01*
X2274192Y41511302D01*
X2504722Y41388081D01*
X2630257Y41350000D01*
X2504722Y41311919D01*
X2274192Y41188698D01*
X2072130Y41022870D01*
X1906302Y40820808D01*
X1783081Y40590278D01*
X1707201Y40340137D01*
X1681580Y40080000D01*
X1707201Y39819863D01*
X1783081Y39569722D01*
X1906302Y39339192D01*
X2072130Y39137130D01*
X2274192Y38971302D01*
X2415895Y38895560D01*
X2383748Y38884157D01*
X2133645Y38735178D01*
X1917412Y38540269D01*
X1743359Y38306920D01*
X1618175Y38044099D01*
X1573524Y37896890D01*
X627000Y37896890D01*
X627000Y44373000D01*
X10500000Y44373000D01*
X10524776Y44375440D01*
X10548601Y44382667D01*
X10570557Y44394403D01*
X10589803Y44410197D01*
X10605597Y44429443D01*
X10617333Y44451399D01*
X10624560Y44475224D01*
X10627000Y44500000D01*
X10627000Y51666528D01*
X37958000Y51666528D01*
X37958000Y51513472D01*
X37987859Y51363357D01*
X38046431Y51221952D01*
X38131464Y51094691D01*
X38239691Y50986464D01*
X38366952Y50901431D01*
X38508357Y50842859D01*
X38658472Y50813000D01*
X38695999Y50813000D01*
X39228000Y50280998D01*
X39228000Y50243472D01*
X39257859Y50093357D01*
X39316431Y49951952D01*
X39401464Y49824691D01*
X39509691Y49716464D01*
X39636952Y49631431D01*
X39778357Y49572859D01*
X39928472Y49543000D01*
X40081528Y49543000D01*
X40231643Y49572859D01*
X40373048Y49631431D01*
X40500309Y49716464D01*
X40608536Y49824691D01*
X40693569Y49951952D01*
X40752141Y50093357D01*
X40782000Y50243472D01*
X40782000Y50396528D01*
X40752141Y50546643D01*
X40693569Y50688048D01*
X40608536Y50815309D01*
X40500309Y50923536D01*
X40373048Y51008569D01*
X40231643Y51067141D01*
X40081528Y51097000D01*
X40044002Y51097000D01*
X39512000Y51629001D01*
X39512000Y51666528D01*
X39482141Y51816643D01*
X39423569Y51958048D01*
X39338536Y52085309D01*
X39230309Y52193536D01*
X39103048Y52278569D01*
X38961643Y52337141D01*
X38811528Y52367000D01*
X38658472Y52367000D01*
X38508357Y52337141D01*
X38366952Y52278569D01*
X38239691Y52193536D01*
X38131464Y52085309D01*
X38046431Y51958048D01*
X37987859Y51816643D01*
X37958000Y51666528D01*
X10627000Y51666528D01*
X10627000Y56313109D01*
X12528519Y56313109D01*
X12625843Y56038748D01*
X12774822Y55788645D01*
X12969731Y55572412D01*
X13203080Y55398359D01*
X13465901Y55273175D01*
X13613110Y55228524D01*
X13843000Y55349845D01*
X13843000Y56543000D01*
X12649186Y56543000D01*
X12528519Y56313109D01*
X10627000Y56313109D01*
X10627000Y57026891D01*
X12528519Y57026891D01*
X12649186Y56797000D01*
X13843000Y56797000D01*
X13843000Y57990155D01*
X14097000Y57990155D01*
X14097000Y56797000D01*
X14117000Y56797000D01*
X14117000Y56543000D01*
X14097000Y56543000D01*
X14097000Y55349845D01*
X14326890Y55228524D01*
X14474099Y55273175D01*
X14736920Y55398359D01*
X14970269Y55572412D01*
X15165178Y55788645D01*
X15314157Y56038748D01*
X15325560Y56070895D01*
X15401302Y55929192D01*
X15567130Y55727130D01*
X15769192Y55561302D01*
X15999722Y55438081D01*
X16249863Y55362201D01*
X16444816Y55343000D01*
X16575184Y55343000D01*
X16770137Y55362201D01*
X17020278Y55438081D01*
X17250808Y55561302D01*
X17452870Y55727130D01*
X17618698Y55929192D01*
X17741919Y56159722D01*
X17780000Y56285257D01*
X17818081Y56159722D01*
X17941302Y55929192D01*
X18107130Y55727130D01*
X18309192Y55561302D01*
X18539722Y55438081D01*
X18789863Y55362201D01*
X18984816Y55343000D01*
X19115184Y55343000D01*
X19310137Y55362201D01*
X19560278Y55438081D01*
X19790808Y55561302D01*
X19992870Y55727130D01*
X20158698Y55929192D01*
X20281919Y56159722D01*
X20320000Y56285257D01*
X20358081Y56159722D01*
X20481302Y55929192D01*
X20647130Y55727130D01*
X20849192Y55561302D01*
X21079722Y55438081D01*
X21329863Y55362201D01*
X21524816Y55343000D01*
X21655184Y55343000D01*
X21850137Y55362201D01*
X22100278Y55438081D01*
X22330808Y55561302D01*
X22532870Y55727130D01*
X22698698Y55929192D01*
X22821919Y56159722D01*
X22860000Y56285257D01*
X22898081Y56159722D01*
X23021302Y55929192D01*
X23187130Y55727130D01*
X23389192Y55561302D01*
X23619722Y55438081D01*
X23869863Y55362201D01*
X24064816Y55343000D01*
X24195184Y55343000D01*
X24390137Y55362201D01*
X24640278Y55438081D01*
X24870808Y55561302D01*
X25072870Y55727130D01*
X25238698Y55929192D01*
X25340693Y56120011D01*
X25340693Y55820000D01*
X25349903Y55726492D01*
X25377178Y55636577D01*
X25421471Y55553711D01*
X25481079Y55481079D01*
X25553711Y55421471D01*
X25636577Y55377178D01*
X25726492Y55349903D01*
X25820000Y55340693D01*
X27520000Y55340693D01*
X27613508Y55349903D01*
X27703423Y55377178D01*
X27786289Y55421471D01*
X27853375Y55476528D01*
X43038000Y55476528D01*
X43038000Y55323472D01*
X43067859Y55173357D01*
X43126431Y55031952D01*
X43211464Y54904691D01*
X43319691Y54796464D01*
X43446952Y54711431D01*
X43588357Y54652859D01*
X43738472Y54623000D01*
X43775999Y54623000D01*
X44308000Y54090998D01*
X44308000Y54053472D01*
X44337859Y53903357D01*
X44396431Y53761952D01*
X44481464Y53634691D01*
X44589691Y53526464D01*
X44716952Y53441431D01*
X44858357Y53382859D01*
X45008472Y53353000D01*
X45161528Y53353000D01*
X45311643Y53382859D01*
X45453048Y53441431D01*
X45580309Y53526464D01*
X45688536Y53634691D01*
X45773569Y53761952D01*
X45832141Y53903357D01*
X45862000Y54053472D01*
X45862000Y54206528D01*
X45832141Y54356643D01*
X45773569Y54498048D01*
X45688536Y54625309D01*
X45580309Y54733536D01*
X45453048Y54818569D01*
X45311643Y54877141D01*
X45161528Y54907000D01*
X45124002Y54907000D01*
X44592000Y55439001D01*
X44592000Y55476528D01*
X44562141Y55626643D01*
X44503569Y55768048D01*
X44418536Y55895309D01*
X44310309Y56003536D01*
X44183048Y56088569D01*
X44041643Y56147141D01*
X43891528Y56177000D01*
X43738472Y56177000D01*
X43588357Y56147141D01*
X43446952Y56088569D01*
X43319691Y56003536D01*
X43211464Y55895309D01*
X43126431Y55768048D01*
X43067859Y55626643D01*
X43038000Y55476528D01*
X27853375Y55476528D01*
X27858921Y55481079D01*
X27918529Y55553711D01*
X27962822Y55636577D01*
X27990097Y55726492D01*
X27999307Y55820000D01*
X27999307Y57520000D01*
X27990097Y57613508D01*
X27962822Y57703423D01*
X27918529Y57786289D01*
X27858921Y57858921D01*
X27786289Y57918529D01*
X27703423Y57962822D01*
X27613508Y57990097D01*
X27520000Y57999307D01*
X25820000Y57999307D01*
X25726492Y57990097D01*
X25636577Y57962822D01*
X25553711Y57918529D01*
X25481079Y57858921D01*
X25421471Y57786289D01*
X25377178Y57703423D01*
X25349903Y57613508D01*
X25340693Y57520000D01*
X25340693Y57219989D01*
X25238698Y57410808D01*
X25072870Y57612870D01*
X24870808Y57778698D01*
X24640278Y57901919D01*
X24390137Y57977799D01*
X24195184Y57997000D01*
X24064816Y57997000D01*
X23869863Y57977799D01*
X23619722Y57901919D01*
X23389192Y57778698D01*
X23187130Y57612870D01*
X23021302Y57410808D01*
X22898081Y57180278D01*
X22860000Y57054743D01*
X22821919Y57180278D01*
X22698698Y57410808D01*
X22532870Y57612870D01*
X22330808Y57778698D01*
X22100278Y57901919D01*
X21850137Y57977799D01*
X21655184Y57997000D01*
X21524816Y57997000D01*
X21329863Y57977799D01*
X21079722Y57901919D01*
X20849192Y57778698D01*
X20647130Y57612870D01*
X20481302Y57410808D01*
X20358081Y57180278D01*
X20320000Y57054743D01*
X20281919Y57180278D01*
X20158698Y57410808D01*
X19992870Y57612870D01*
X19790808Y57778698D01*
X19560278Y57901919D01*
X19310137Y57977799D01*
X19115184Y57997000D01*
X18984816Y57997000D01*
X18789863Y57977799D01*
X18539722Y57901919D01*
X18309192Y57778698D01*
X18107130Y57612870D01*
X17941302Y57410808D01*
X17818081Y57180278D01*
X17780000Y57054743D01*
X17741919Y57180278D01*
X17618698Y57410808D01*
X17452870Y57612870D01*
X17250808Y57778698D01*
X17020278Y57901919D01*
X16770137Y57977799D01*
X16575184Y57997000D01*
X16444816Y57997000D01*
X16249863Y57977799D01*
X15999722Y57901919D01*
X15769192Y57778698D01*
X15567130Y57612870D01*
X15401302Y57410808D01*
X15325560Y57269105D01*
X15314157Y57301252D01*
X15165178Y57551355D01*
X14970269Y57767588D01*
X14736920Y57941641D01*
X14474099Y58066825D01*
X14326890Y58111476D01*
X14097000Y57990155D01*
X13843000Y57990155D01*
X13613110Y58111476D01*
X13465901Y58066825D01*
X13203080Y57941641D01*
X12969731Y57767588D01*
X12774822Y57551355D01*
X12625843Y57301252D01*
X12528519Y57026891D01*
X10627000Y57026891D01*
X10627000Y59373000D01*
X54373000Y59373000D01*
X54373000Y30627000D01*
X54373000Y30627000D01*
G37*
X54373000Y30627000D02*
X627000Y30627000D01*
X627000Y37896890D01*
X1573524Y37896890D01*
X1694845Y37667000D01*
X2888000Y37667000D01*
X2888000Y37687000D01*
X3142000Y37687000D01*
X3142000Y37667000D01*
X3162000Y37667000D01*
X3162000Y37413000D01*
X3142000Y37413000D01*
X3142000Y37393000D01*
X2888000Y37393000D01*
X2888000Y37413000D01*
X1694845Y37413000D01*
X1573524Y37183110D01*
X1618175Y37035901D01*
X1743359Y36773080D01*
X1917412Y36539731D01*
X2133645Y36344822D01*
X2383748Y36195843D01*
X2415895Y36184440D01*
X2274192Y36108698D01*
X2072130Y35942870D01*
X1906302Y35740808D01*
X1783081Y35510278D01*
X1707201Y35260137D01*
X1681580Y35000000D01*
X1707201Y34739863D01*
X1783081Y34489722D01*
X1906302Y34259192D01*
X2072130Y34057130D01*
X2274192Y33891302D01*
X2504722Y33768081D01*
X2630257Y33730000D01*
X2504722Y33691919D01*
X2274192Y33568698D01*
X2072130Y33402870D01*
X1906302Y33200808D01*
X1783081Y32970278D01*
X1707201Y32720137D01*
X1681580Y32460000D01*
X1707201Y32199863D01*
X1783081Y31949722D01*
X1906302Y31719192D01*
X2072130Y31517130D01*
X2274192Y31351302D01*
X2504722Y31228081D01*
X2754863Y31152201D01*
X2949816Y31133000D01*
X3080184Y31133000D01*
X3275137Y31152201D01*
X3525278Y31228081D01*
X3755808Y31351302D01*
X3957870Y31517130D01*
X4123698Y31719192D01*
X4225693Y31910011D01*
X4225693Y31610000D01*
X4234903Y31516492D01*
X4262178Y31426577D01*
X4306471Y31343711D01*
X4366079Y31271079D01*
X4438711Y31211471D01*
X4521577Y31167178D01*
X4611492Y31139903D01*
X4705000Y31130693D01*
X6405000Y31130693D01*
X6498508Y31139903D01*
X6588423Y31167178D01*
X6671289Y31211471D01*
X6743921Y31271079D01*
X6803529Y31343711D01*
X6847822Y31426577D01*
X6875097Y31516492D01*
X6884307Y31610000D01*
X6884307Y33310000D01*
X6875097Y33403508D01*
X6847822Y33493423D01*
X6803529Y33576289D01*
X6743921Y33648921D01*
X6671289Y33708529D01*
X6588423Y33752822D01*
X6498508Y33780097D01*
X6405000Y33789307D01*
X6104989Y33789307D01*
X6295808Y33891302D01*
X6497870Y34057130D01*
X6663698Y34259192D01*
X6786919Y34489722D01*
X6862799Y34739863D01*
X6888420Y35000000D01*
X6862799Y35260137D01*
X6786919Y35510278D01*
X6663698Y35740808D01*
X6497870Y35942870D01*
X6295808Y36108698D01*
X6065278Y36231919D01*
X5939743Y36270000D01*
X6065278Y36308081D01*
X6295808Y36431302D01*
X6497870Y36597130D01*
X6663698Y36799192D01*
X6786919Y37029722D01*
X6847501Y37229435D01*
X14804040Y37229435D01*
X14871020Y36989344D01*
X15120048Y36872244D01*
X15387135Y36805977D01*
X15662017Y36793090D01*
X15934133Y36834078D01*
X16193023Y36927364D01*
X16308980Y36989344D01*
X16375960Y37229435D01*
X49804040Y37229435D01*
X49871020Y36989344D01*
X50120048Y36872244D01*
X50387135Y36805977D01*
X50662017Y36793090D01*
X50934133Y36834078D01*
X51193023Y36927364D01*
X51308980Y36989344D01*
X51375960Y37229435D01*
X50590000Y38015395D01*
X49804040Y37229435D01*
X16375960Y37229435D01*
X15590000Y38015395D01*
X14804040Y37229435D01*
X6847501Y37229435D01*
X6862799Y37279863D01*
X6888420Y37540000D01*
X6862799Y37800137D01*
X6786919Y38050278D01*
X6748058Y38122983D01*
X14188090Y38122983D01*
X14229078Y37850867D01*
X14322364Y37591977D01*
X14384344Y37476020D01*
X14624435Y37409040D01*
X15410395Y38195000D01*
X15769605Y38195000D01*
X16555565Y37409040D01*
X16795656Y37476020D01*
X16912756Y37725048D01*
X16979023Y37992135D01*
X16985157Y38122983D01*
X49188090Y38122983D01*
X49229078Y37850867D01*
X49322364Y37591977D01*
X49384344Y37476020D01*
X49624435Y37409040D01*
X50410395Y38195000D01*
X50769605Y38195000D01*
X51555565Y37409040D01*
X51795656Y37476020D01*
X51912756Y37725048D01*
X51979023Y37992135D01*
X51991910Y38267017D01*
X51950922Y38539133D01*
X51857636Y38798023D01*
X51795656Y38913980D01*
X51555565Y38980960D01*
X50769605Y38195000D01*
X50410395Y38195000D01*
X49624435Y38980960D01*
X49384344Y38913980D01*
X49267244Y38664952D01*
X49200977Y38397865D01*
X49188090Y38122983D01*
X16985157Y38122983D01*
X16991910Y38267017D01*
X16950922Y38539133D01*
X16857636Y38798023D01*
X16795656Y38913980D01*
X16555565Y38980960D01*
X15769605Y38195000D01*
X15410395Y38195000D01*
X14624435Y38980960D01*
X14384344Y38913980D01*
X14267244Y38664952D01*
X14200977Y38397865D01*
X14188090Y38122983D01*
X6748058Y38122983D01*
X6663698Y38280808D01*
X6497870Y38482870D01*
X6295808Y38648698D01*
X6065278Y38771919D01*
X5939743Y38810000D01*
X6065278Y38848081D01*
X6295808Y38971302D01*
X6497870Y39137130D01*
X6517102Y39160565D01*
X14804040Y39160565D01*
X15590000Y38374605D01*
X16375960Y39160565D01*
X49804040Y39160565D01*
X50590000Y38374605D01*
X51375960Y39160565D01*
X51308980Y39400656D01*
X51059952Y39517756D01*
X50792865Y39584023D01*
X50517983Y39596910D01*
X50245867Y39555922D01*
X49986977Y39462636D01*
X49871020Y39400656D01*
X49804040Y39160565D01*
X16375960Y39160565D01*
X16308980Y39400656D01*
X16059952Y39517756D01*
X15792865Y39584023D01*
X15517983Y39596910D01*
X15245867Y39555922D01*
X14986977Y39462636D01*
X14871020Y39400656D01*
X14804040Y39160565D01*
X6517102Y39160565D01*
X6663698Y39339192D01*
X6786919Y39569722D01*
X6862799Y39819863D01*
X6888420Y40080000D01*
X6862799Y40340137D01*
X6786919Y40590278D01*
X6663698Y40820808D01*
X6497870Y41022870D01*
X6295808Y41188698D01*
X6154105Y41264440D01*
X6186252Y41275843D01*
X6436355Y41424822D01*
X6652588Y41619731D01*
X6826641Y41853080D01*
X6951825Y42115901D01*
X6996476Y42263110D01*
X6875155Y42493000D01*
X5682000Y42493000D01*
X5682000Y42473000D01*
X5428000Y42473000D01*
X5428000Y42493000D01*
X5408000Y42493000D01*
X5408000Y42747000D01*
X5428000Y42747000D01*
X5428000Y43940814D01*
X5682000Y43940814D01*
X5682000Y42747000D01*
X6875155Y42747000D01*
X6996476Y42976890D01*
X6951825Y43124099D01*
X6859930Y43317031D01*
X14351000Y43317031D01*
X14351000Y43072969D01*
X14398614Y42833597D01*
X14492012Y42608113D01*
X14627606Y42405184D01*
X14800184Y42232606D01*
X15003113Y42097012D01*
X15228597Y42003614D01*
X15467969Y41956000D01*
X15712031Y41956000D01*
X15951403Y42003614D01*
X16176887Y42097012D01*
X16379816Y42232606D01*
X16552394Y42405184D01*
X16687988Y42608113D01*
X16781386Y42833597D01*
X16829000Y43072969D01*
X16829000Y43317031D01*
X49351000Y43317031D01*
X49351000Y43072969D01*
X49398614Y42833597D01*
X49492012Y42608113D01*
X49627606Y42405184D01*
X49800184Y42232606D01*
X50003113Y42097012D01*
X50228597Y42003614D01*
X50467969Y41956000D01*
X50712031Y41956000D01*
X50951403Y42003614D01*
X51176887Y42097012D01*
X51379816Y42232606D01*
X51552394Y42405184D01*
X51687988Y42608113D01*
X51781386Y42833597D01*
X51829000Y43072969D01*
X51829000Y43317031D01*
X51781386Y43556403D01*
X51687988Y43781887D01*
X51552394Y43984816D01*
X51379816Y44157394D01*
X51176887Y44292988D01*
X50951403Y44386386D01*
X50712031Y44434000D01*
X50467969Y44434000D01*
X50228597Y44386386D01*
X50003113Y44292988D01*
X49800184Y44157394D01*
X49627606Y43984816D01*
X49492012Y43781887D01*
X49398614Y43556403D01*
X49351000Y43317031D01*
X16829000Y43317031D01*
X16781386Y43556403D01*
X16687988Y43781887D01*
X16552394Y43984816D01*
X16379816Y44157394D01*
X16176887Y44292988D01*
X15951403Y44386386D01*
X15712031Y44434000D01*
X15467969Y44434000D01*
X15228597Y44386386D01*
X15003113Y44292988D01*
X14800184Y44157394D01*
X14627606Y43984816D01*
X14492012Y43781887D01*
X14398614Y43556403D01*
X14351000Y43317031D01*
X6859930Y43317031D01*
X6826641Y43386920D01*
X6652588Y43620269D01*
X6436355Y43815178D01*
X6186252Y43964157D01*
X5911891Y44061481D01*
X5682000Y43940814D01*
X5428000Y43940814D01*
X5198109Y44061481D01*
X4923748Y43964157D01*
X4673645Y43815178D01*
X4457412Y43620269D01*
X4283359Y43386920D01*
X4201548Y43215160D01*
X4123698Y43360808D01*
X3957870Y43562870D01*
X3755808Y43728698D01*
X3525278Y43851919D01*
X3275137Y43927799D01*
X3080184Y43947000D01*
X2949816Y43947000D01*
X2754863Y43927799D01*
X2504722Y43851919D01*
X2274192Y43728698D01*
X2072130Y43562870D01*
X1906302Y43360808D01*
X1783081Y43130278D01*
X1707201Y42880137D01*
X1681580Y42620000D01*
X1707201Y42359863D01*
X1783081Y42109722D01*
X1906302Y41879192D01*
X2072130Y41677130D01*
X2274192Y41511302D01*
X2504722Y41388081D01*
X2630257Y41350000D01*
X2504722Y41311919D01*
X2274192Y41188698D01*
X2072130Y41022870D01*
X1906302Y40820808D01*
X1783081Y40590278D01*
X1707201Y40340137D01*
X1681580Y40080000D01*
X1707201Y39819863D01*
X1783081Y39569722D01*
X1906302Y39339192D01*
X2072130Y39137130D01*
X2274192Y38971302D01*
X2415895Y38895560D01*
X2383748Y38884157D01*
X2133645Y38735178D01*
X1917412Y38540269D01*
X1743359Y38306920D01*
X1618175Y38044099D01*
X1573524Y37896890D01*
X627000Y37896890D01*
X627000Y44373000D01*
X10500000Y44373000D01*
X10524776Y44375440D01*
X10548601Y44382667D01*
X10570557Y44394403D01*
X10589803Y44410197D01*
X10605597Y44429443D01*
X10617333Y44451399D01*
X10624560Y44475224D01*
X10627000Y44500000D01*
X10627000Y51666528D01*
X37958000Y51666528D01*
X37958000Y51513472D01*
X37987859Y51363357D01*
X38046431Y51221952D01*
X38131464Y51094691D01*
X38239691Y50986464D01*
X38366952Y50901431D01*
X38508357Y50842859D01*
X38658472Y50813000D01*
X38695999Y50813000D01*
X39228000Y50280998D01*
X39228000Y50243472D01*
X39257859Y50093357D01*
X39316431Y49951952D01*
X39401464Y49824691D01*
X39509691Y49716464D01*
X39636952Y49631431D01*
X39778357Y49572859D01*
X39928472Y49543000D01*
X40081528Y49543000D01*
X40231643Y49572859D01*
X40373048Y49631431D01*
X40500309Y49716464D01*
X40608536Y49824691D01*
X40693569Y49951952D01*
X40752141Y50093357D01*
X40782000Y50243472D01*
X40782000Y50396528D01*
X40752141Y50546643D01*
X40693569Y50688048D01*
X40608536Y50815309D01*
X40500309Y50923536D01*
X40373048Y51008569D01*
X40231643Y51067141D01*
X40081528Y51097000D01*
X40044002Y51097000D01*
X39512000Y51629001D01*
X39512000Y51666528D01*
X39482141Y51816643D01*
X39423569Y51958048D01*
X39338536Y52085309D01*
X39230309Y52193536D01*
X39103048Y52278569D01*
X38961643Y52337141D01*
X38811528Y52367000D01*
X38658472Y52367000D01*
X38508357Y52337141D01*
X38366952Y52278569D01*
X38239691Y52193536D01*
X38131464Y52085309D01*
X38046431Y51958048D01*
X37987859Y51816643D01*
X37958000Y51666528D01*
X10627000Y51666528D01*
X10627000Y56313109D01*
X12528519Y56313109D01*
X12625843Y56038748D01*
X12774822Y55788645D01*
X12969731Y55572412D01*
X13203080Y55398359D01*
X13465901Y55273175D01*
X13613110Y55228524D01*
X13843000Y55349845D01*
X13843000Y56543000D01*
X12649186Y56543000D01*
X12528519Y56313109D01*
X10627000Y56313109D01*
X10627000Y57026891D01*
X12528519Y57026891D01*
X12649186Y56797000D01*
X13843000Y56797000D01*
X13843000Y57990155D01*
X14097000Y57990155D01*
X14097000Y56797000D01*
X14117000Y56797000D01*
X14117000Y56543000D01*
X14097000Y56543000D01*
X14097000Y55349845D01*
X14326890Y55228524D01*
X14474099Y55273175D01*
X14736920Y55398359D01*
X14970269Y55572412D01*
X15165178Y55788645D01*
X15314157Y56038748D01*
X15325560Y56070895D01*
X15401302Y55929192D01*
X15567130Y55727130D01*
X15769192Y55561302D01*
X15999722Y55438081D01*
X16249863Y55362201D01*
X16444816Y55343000D01*
X16575184Y55343000D01*
X16770137Y55362201D01*
X17020278Y55438081D01*
X17250808Y55561302D01*
X17452870Y55727130D01*
X17618698Y55929192D01*
X17741919Y56159722D01*
X17780000Y56285257D01*
X17818081Y56159722D01*
X17941302Y55929192D01*
X18107130Y55727130D01*
X18309192Y55561302D01*
X18539722Y55438081D01*
X18789863Y55362201D01*
X18984816Y55343000D01*
X19115184Y55343000D01*
X19310137Y55362201D01*
X19560278Y55438081D01*
X19790808Y55561302D01*
X19992870Y55727130D01*
X20158698Y55929192D01*
X20281919Y56159722D01*
X20320000Y56285257D01*
X20358081Y56159722D01*
X20481302Y55929192D01*
X20647130Y55727130D01*
X20849192Y55561302D01*
X21079722Y55438081D01*
X21329863Y55362201D01*
X21524816Y55343000D01*
X21655184Y55343000D01*
X21850137Y55362201D01*
X22100278Y55438081D01*
X22330808Y55561302D01*
X22532870Y55727130D01*
X22698698Y55929192D01*
X22821919Y56159722D01*
X22860000Y56285257D01*
X22898081Y56159722D01*
X23021302Y55929192D01*
X23187130Y55727130D01*
X23389192Y55561302D01*
X23619722Y55438081D01*
X23869863Y55362201D01*
X24064816Y55343000D01*
X24195184Y55343000D01*
X24390137Y55362201D01*
X24640278Y55438081D01*
X24870808Y55561302D01*
X25072870Y55727130D01*
X25238698Y55929192D01*
X25340693Y56120011D01*
X25340693Y55820000D01*
X25349903Y55726492D01*
X25377178Y55636577D01*
X25421471Y55553711D01*
X25481079Y55481079D01*
X25553711Y55421471D01*
X25636577Y55377178D01*
X25726492Y55349903D01*
X25820000Y55340693D01*
X27520000Y55340693D01*
X27613508Y55349903D01*
X27703423Y55377178D01*
X27786289Y55421471D01*
X27853375Y55476528D01*
X43038000Y55476528D01*
X43038000Y55323472D01*
X43067859Y55173357D01*
X43126431Y55031952D01*
X43211464Y54904691D01*
X43319691Y54796464D01*
X43446952Y54711431D01*
X43588357Y54652859D01*
X43738472Y54623000D01*
X43775999Y54623000D01*
X44308000Y54090998D01*
X44308000Y54053472D01*
X44337859Y53903357D01*
X44396431Y53761952D01*
X44481464Y53634691D01*
X44589691Y53526464D01*
X44716952Y53441431D01*
X44858357Y53382859D01*
X45008472Y53353000D01*
X45161528Y53353000D01*
X45311643Y53382859D01*
X45453048Y53441431D01*
X45580309Y53526464D01*
X45688536Y53634691D01*
X45773569Y53761952D01*
X45832141Y53903357D01*
X45862000Y54053472D01*
X45862000Y54206528D01*
X45832141Y54356643D01*
X45773569Y54498048D01*
X45688536Y54625309D01*
X45580309Y54733536D01*
X45453048Y54818569D01*
X45311643Y54877141D01*
X45161528Y54907000D01*
X45124002Y54907000D01*
X44592000Y55439001D01*
X44592000Y55476528D01*
X44562141Y55626643D01*
X44503569Y55768048D01*
X44418536Y55895309D01*
X44310309Y56003536D01*
X44183048Y56088569D01*
X44041643Y56147141D01*
X43891528Y56177000D01*
X43738472Y56177000D01*
X43588357Y56147141D01*
X43446952Y56088569D01*
X43319691Y56003536D01*
X43211464Y55895309D01*
X43126431Y55768048D01*
X43067859Y55626643D01*
X43038000Y55476528D01*
X27853375Y55476528D01*
X27858921Y55481079D01*
X27918529Y55553711D01*
X27962822Y55636577D01*
X27990097Y55726492D01*
X27999307Y55820000D01*
X27999307Y57520000D01*
X27990097Y57613508D01*
X27962822Y57703423D01*
X27918529Y57786289D01*
X27858921Y57858921D01*
X27786289Y57918529D01*
X27703423Y57962822D01*
X27613508Y57990097D01*
X27520000Y57999307D01*
X25820000Y57999307D01*
X25726492Y57990097D01*
X25636577Y57962822D01*
X25553711Y57918529D01*
X25481079Y57858921D01*
X25421471Y57786289D01*
X25377178Y57703423D01*
X25349903Y57613508D01*
X25340693Y57520000D01*
X25340693Y57219989D01*
X25238698Y57410808D01*
X25072870Y57612870D01*
X24870808Y57778698D01*
X24640278Y57901919D01*
X24390137Y57977799D01*
X24195184Y57997000D01*
X24064816Y57997000D01*
X23869863Y57977799D01*
X23619722Y57901919D01*
X23389192Y57778698D01*
X23187130Y57612870D01*
X23021302Y57410808D01*
X22898081Y57180278D01*
X22860000Y57054743D01*
X22821919Y57180278D01*
X22698698Y57410808D01*
X22532870Y57612870D01*
X22330808Y57778698D01*
X22100278Y57901919D01*
X21850137Y57977799D01*
X21655184Y57997000D01*
X21524816Y57997000D01*
X21329863Y57977799D01*
X21079722Y57901919D01*
X20849192Y57778698D01*
X20647130Y57612870D01*
X20481302Y57410808D01*
X20358081Y57180278D01*
X20320000Y57054743D01*
X20281919Y57180278D01*
X20158698Y57410808D01*
X19992870Y57612870D01*
X19790808Y57778698D01*
X19560278Y57901919D01*
X19310137Y57977799D01*
X19115184Y57997000D01*
X18984816Y57997000D01*
X18789863Y57977799D01*
X18539722Y57901919D01*
X18309192Y57778698D01*
X18107130Y57612870D01*
X17941302Y57410808D01*
X17818081Y57180278D01*
X17780000Y57054743D01*
X17741919Y57180278D01*
X17618698Y57410808D01*
X17452870Y57612870D01*
X17250808Y57778698D01*
X17020278Y57901919D01*
X16770137Y57977799D01*
X16575184Y57997000D01*
X16444816Y57997000D01*
X16249863Y57977799D01*
X15999722Y57901919D01*
X15769192Y57778698D01*
X15567130Y57612870D01*
X15401302Y57410808D01*
X15325560Y57269105D01*
X15314157Y57301252D01*
X15165178Y57551355D01*
X14970269Y57767588D01*
X14736920Y57941641D01*
X14474099Y58066825D01*
X14326890Y58111476D01*
X14097000Y57990155D01*
X13843000Y57990155D01*
X13613110Y58111476D01*
X13465901Y58066825D01*
X13203080Y57941641D01*
X12969731Y57767588D01*
X12774822Y57551355D01*
X12625843Y57301252D01*
X12528519Y57026891D01*
X10627000Y57026891D01*
X10627000Y59373000D01*
X54373000Y59373000D01*
X54373000Y30627000D01*
M02*
